<?xml version="1.0" standalone="no"?>
<!DOCTYPE svg PUBLIC "-//W3C//DTD SVG 1.1//EN" "http://www.w3.org/Graphics/SVG/1.1/DTD/svg11.dtd" >
<svg xmlns="http://www.w3.org/2000/svg" xmlns:xlink="http://www.w3.org/1999/xlink" version="1.1">
<metadata>
Created by FontForge 20201107 at Sat Apr  1 11:59:19 2023
 By 
Copyrighted (c) 2022 By Aveni Letter Type (Aveni Yuanita /aveniyuanita.fontdesigner@gmail.com). All rights reserved
</metadata>
<defs>
<font id="AestheticMonolineRegular" horiz-adv-x="0" >
  <font-face 
    font-family="Aesthetic Monoline"
    font-weight="400"
    font-stretch="normal"
    units-per-em="1000"
    panose-1="0 0 0 0 0 0 0 0 0 0"
    ascent="800"
    descent="-200"
    x-height="391"
    cap-height="774.5"
    bbox="-390.714 -515.021 1396.96 880.721"
    underline-thickness="0"
    underline-position="0"
    unicode-range="U+000A-FB00"
  />
<missing-glyph horiz-adv-x="527" 
d="M50 700h427v-700h-427v700zM78 680l185 -309l186 309h-371zM251 350l-180 300v-601zM264 329l-185 -308h370zM276 350l181 -303v605z" />
    <glyph glyph-name="sr.liga" unicode="sr" horiz-adv-x="640" 
d="M625 214q23 -14 10 -47q-10 -25 -38 -26.5t-46 13.5q-36 24 -50 75q-5 15 -8 33q-1 -3 -3.5 -8t-4 -9t-2.5 -6q-5 -12 -22 -55.5t-29 -71t-25.5 -53.5t-41.5 -43.5t-55 -12.5q-26 5 -40 29t-14.5 50.5t1.5 50.5q1 14 3 28q-44 -48 -56 -60q-2 -3 -2 -6q1 -20 1 -31
q-1 -57 -42 -94t-95 -31q-37 3 -53 28t-2 59q2 6 6 13t7 12t9 12l9 10.5t10.5 11l10 10t11 10t10 9.5t-0.5 4q-43 33 -47 37q-34 29 -36 67.5t20.5 74.5t51 65.5t59.5 49.5q14 11 34 10t31 -17q8 -11 8 -25.5t-8 -25.5q-13 -16 -43.5 -44t-43.5 -44q-25 -31 9 -60
q8 -7 32 -27q7 -5 12 1q26 28 74 79t63 66q1 1 7 7.5t8 8.5l7.5 7.5t8.5 8t8.5 6t9.5 5t9.5 2.5t9.5 1q26 -4 32 -26.5t-3 -42.5q-7 -16 -37 -108q-2 -6 -3 -10t1.5 -4.5t3.5 2.5q50 114 89 188q15 28 40 47.5t54 18.5q27 -1 43.5 -18.5t11.5 -44.5q-15 -72 -13 -101
q2 -35 39 -58z" />
    <glyph glyph-name="sh.liga" unicode="sh" horiz-adv-x="668" 
d="M558 397q34 8 58.5 -12t22.5 -54q-1 -25 -9.5 -53t-23.5 -63t-20 -50q-22 -63 -15 -104q2 -18 -3 -35.5t-19 -26.5q-16 -11 -36.5 -4.5t-27.5 25.5q-14 37 -7 82q3 25 10.5 51.5t18.5 59t16 49.5q1 2 -0.5 3t-3.5 -1q-65 -63 -131 -200q-4 -7 -16 -37t-21 -44
q-10 -16 -30.5 -20t-36.5 7t-16 31q2 91 19 188q-80 -86 -82.5 -88.5t-2.5 -5.5q1 -20 1 -31q-1 -57 -42 -94t-95 -31q-37 3 -53 28t-2 59q2 6 6 13t7 12t9 12l9 10.5t10.5 11l10 10t11 10t10 9.5t-0.5 4q-43 33 -47 37q-34 29 -36 67.5t20.5 74.5t51 65.5t59.5 49.5
q14 11 34 10t31 -17q8 -11 8 -25.5t-8 -25.5q-13 -16 -43.5 -44t-43.5 -44q-25 -31 9 -60q8 -7 32 -27q7 -5 12 1q16 18 149 158q12 13 14 15q48 161 126 299q51 89 103 120q33 20 63.5 9.5t42.5 -46.5q30 -94 -62 -227q-55 -79 -172 -170q-6 -4 -10.5 -10.5t-8 -15.5
t-5 -14.5t-4 -17t-3.5 -14.5q-2 -8 1 -8q4 5 10.5 13t7.5 10q26 32 41.5 49.5t44.5 38.5t58 28zM572 671q-25 -22 -63 -90.5t-50 -110.5q27 13 70 90t43 111z" />
    <glyph glyph-name="sp.liga" unicode="sp" horiz-adv-x="683" 
d="M710 268q17 -2 26 -16.5t6 -32.5q-5 -38 -44 -38q-53 0 -73 -9t-40 -47q-76 -148 -237 -124q-9 1 -9 -1q-69 -249 -110 -408q-5 -20 -13 -41q-7 -20 -21.5 -28.5t-30.5 -4.5q-19 4 -28 19.5t-4 35.5q9 41 39 158q27 109 114 457q-77 -83 -81 -87q-2 -3 -2 -6q1 -20 1 -31
q-1 -57 -42 -94t-95 -31q-37 3 -53 28t-2 59q3 7 6.5 14t9.5 15l9 12t12 13l11 11t13 12.5l11 10.5q2 2 0 4q-42 32 -47 37q-34 29 -36 67.5t20.5 74.5t51 65.5t59.5 49.5q14 11 34 10t31 -17q8 -12 8.5 -26t-8.5 -25q-10 -11 -41 -40.5t-46 -47.5q-25 -31 9 -60
q7 -6 32 -27q7 -5 12 1q16 18 149 158q17 18 18 25q11 41 41 45q24 4 39 -10t12 -37q35 30 88 39q60 11 93.5 -16t34.5 -78q1 -17 -3 -33q0 -3 1.5 -4.5t4.5 -1.5q41 3 70 1zM358 62q40 2 80 28.5t54 58.5q-47 -4 -91 -31.5t-43 -55.5zM532 272q4 29 -8 36q-14 9 -37 -5
q-63 -37 -87 -73q-3 -4 -2 -9q1 0 93 26q2 0 6.5 1.5t6.5 2l6 1.5t5.5 2t4.5 2.5t4.5 3l3.5 3.5t2.5 4.5t1.5 4.5z" />
    <glyph glyph-name="sk.liga" unicode="sk" horiz-adv-x="654" 
d="M552 389q41 -5 59 -39t13 -74t-24 -69q-45 -64 -146 -105l-2 -2q4 -41 30 -68t65 -31q20 -2 33.5 -13t14.5 -30q2 -31 -25.5 -41.5t-58.5 -3.5q-83 20 -129 107q-9 16 -16 32q-2 6 -6 3q-1 -1 -1 -2q-1 -5 -2 -23q-4 -36 -11 -47q-10 -16 -30 -20t-36.5 7t-16.5 31
q2 88 17 181q-70 -75 -76 -81q-2 -3 -2 -6q1 -20 1 -31q-1 -57 -42 -94t-95 -31q-37 3 -53 28t-2 59q2 6 6 13t7 12t9 12l9 10.5t10.5 11l10 10t11 10t10 9.5t-0.5 4q-43 33 -47 37q-34 29 -36 67.5t20.5 74.5t51 65.5t59.5 49.5q14 11 34 10t31 -17q8 -11 8 -25.5t-8 -25.5
q-13 -16 -43.5 -44t-43.5 -44q-25 -31 9 -60q8 -7 32 -27q7 -5 12 1q16 18 149 158l5 5q47 167 127 309q20 35 49 69t58 51q33 20 63 9.5t42 -46.5q56 -171 -234 -397q-13 -10 -20 -29q-3 -7 -6 -18q12 12 14 15q34 41 68.5 65t74.5 18zM567 671q-25 -22 -62.5 -90.5
t-49.5 -110.5q27 13 69.5 90t42.5 111zM442 198q42 14 69 43.5t22 55.5q-19 -11 -36.5 -29.5t-26 -30t-28.5 -39.5z" />
    <glyph glyph-name="sl.liga" unicode="sl" horiz-adv-x="495" 
d="M554 227q40 -24 16 -65q-33 -56 -84.5 -112.5t-99.5 -86.5q-40 -26 -83.5 -4t-44.5 70q-1 67 7 136q-50 -52 -61 -64q-2 -3 -2 -6q1 -20 1 -31q-1 -57 -42 -94t-95 -31q-37 3 -53 28t-2 59q2 6 6 13t7 12t9 12l9 10.5t10.5 11l10 10t11 10t10 9.5t-0.5 4q-43 33 -47 37
q-34 29 -36 67.5t20.5 74.5t51 65.5t59.5 49.5q14 11 34 10t31 -17q8 -11 8 -25.5t-8 -25.5q-13 -16 -43.5 -44t-43.5 -44q-25 -31 9 -60q8 -7 32 -27q7 -5 12 1q26 27 133 141q44 164 138 331q20 35 49.5 69t57.5 51q33 20 63.5 9.5t42.5 -46.5q10 -40 7.5 -78t-20.5 -77
t-42 -73t-56 -66.5t-62.5 -57.5t-60.5 -45q-15 -10 -21 -29q-31 -112 -38 -231q0 -13 5 -17t13 3q53 44 113 129q1 2 6 9t6.5 9.5t6.5 8.5t8 7.5t8.5 4.5t10.5 2.5t11 -2t13 -5.5zM558 671q-25 -22 -63 -90.5t-50 -110.5q27 13 70 90t43 111z" />
    <glyph glyph-name="sm.liga" unicode="sm" horiz-adv-x="834" 
d="M794 504q25 13 45 -3.5t13 -43.5q-1 -6 -13 -33q-118 -279 -74 -444q7 -24 -20 -29q-31 -7 -54 19q-7 7 -11 17q-27 67 -9 176q1 3 2.5 11t2.5 14.5l1 6.5q-16 -23 -44 -66t-33 -52q-67 -99 -123 -76q-6 3 -11.5 6.5t-9.5 9t-6.5 10t-4.5 12.5t-3 12.5t-1.5 14t-0.5 13
v13.5v12q0 8 1 31q-2 -4 -8.5 -13t-8.5 -13q-5 -8 -20.5 -33t-25 -38t-27 -29t-35.5 -22q-39 -13 -62 18.5t-17 69.5q4 36 13 75q-35 -38 -46 -49q-2 -3 -2 -6q1 -20 1 -31q-1 -57 -42 -94t-95 -31q-37 3 -53 28t-2 59q2 6 6 13t7 12t9 12l9 10.5t10.5 11l10 10t11 10
t10 9.5t-0.5 4q-43 33 -47 37q-34 29 -36 67.5t20.5 74.5t51 65.5t59.5 49.5q14 11 34 10t31 -17q8 -11 8 -25.5t-8 -25.5q-13 -16 -43.5 -44t-43.5 -44q-25 -31 9 -60q8 -7 32 -27q7 -5 12 1q15 16 46 50t55 60t47 48q13 17 37.5 20t40.5 -11.5t8 -39.5q-5 -15 -18 -55.5
t-20 -62.5q-10 -33 -6 -32q1 0 2 2q4 5 16 24q92 142 96 147q1 2 7 11l8 12t8 11.5t9 12t9 10t11 10t11.5 7t12.5 5.5q24 9 41 -6t15 -41q-1 -13 -13 -51q-8 -26 -23 -74t-21 -70q-4 -12 -7 -24q-1 -6 1 -6.5t6 3.5q5 8 15 23q22 34 61.5 94t72 109.5t61.5 92.5q22 35 43 45
z" />
    <glyph glyph-name="sn.liga" unicode="sn" horiz-adv-x="648" 
d="M653 501q21 -16 12 -47q-1 -4 -12 -30q-53 -125 -76.5 -232t-0.5 -206q2 -6 -2 -11q-18 -19 -41 -15t-36 24q-20 29 -21 87q0 38 15 122q-9 -11 -15 -20t-30.5 -49.5t-42.5 -64.5t-40 -42q-37 -31 -71.5 -19t-44.5 59q-8 37 0 89q-31 -33 -43 -45q-2 -3 -2 -6
q1 -20 1 -31q-1 -57 -42 -94t-95 -31q-37 3 -53 28t-2 59q2 6 6 13t7 12t9 12l9 10.5t10.5 11l10 10t11 10t10 9.5t-0.5 4q-43 33 -47 37q-34 29 -36 67.5t20.5 74.5t51 65.5t59.5 49.5q14 11 34 10t31 -17q8 -11 8 -25.5t-8 -25.5q-13 -16 -43.5 -44t-43.5 -44
q-25 -31 9 -60q8 -7 32 -27q7 -5 12 1q31 34 126 134q12 12 20 19t19.5 13.5t24 5.5t26.5 -9q11 -7 15.5 -20t0.5 -26q-38 -125 -40 -129q-5 -17 -7 -28q0 -2 2 -3t3 1q3 3 19 27q180 274 192 292q50 76 90 44z" />
    <glyph glyph-name="ax.liga" unicode="ax" horiz-adv-x="702" 
d="M688 311q-61 -77 -81 -101q-13 -16 -7 -35q5 -14 41 -127q7 -13 2 -31t-25 -24q-50 -16 -67 31q-11 29 -20 57q-4 13 -7 24q-2 -3 -8.5 -10.5t-8.5 -10.5q-52 -65 -53 -66q-40 -45 -72 -17q-13 11 -13.5 25t4.5 23t15 22q58 73 91 113q15 18 7 39q-3 8 -7 21
q-28 -50 -84 -147q-27 -42 -42 -63q-19 -25 -46.5 -36t-52.5 -5.5t-40 25.5q-10 14 -16 36t-6.5 33t-2.5 40q-20 -24 -21 -25q-3 -3 -22 -25.5t-27 -31t-25 -21.5t-34 -19q-31 -12 -57 4t-31 49q-10 64 25 139.5t87 137.5q25 29 56.5 45.5t67 13t62.5 -33.5q3 -4 5 -8.5
t3.5 -7t2.5 -8.5t1.5 -8t1.5 -9.5t1 -8.5q0 -6 13 -19t11 -23q-5 -27 -15 -77l-14 -70q-7 -34 0 -40q1 -1 3 0q13 10 51 73q17 28 56 97t51 89q2 3 6 10.5t6.5 12t7 10.5t8.5 10q19 16 40.5 11t30.5 -28q4 -13 24 -74q5 6 12 15q7 8 23 28.5t25 30.5q41 49 74 20
q13 -12 12.5 -26.5t-6 -24.5t-16.5 -24zM76 136q20 22 43 47t50 55.5t42 47.5q-9 18 -19 18.5t-21 -10.5q-57 -45 -96 -153q0 -4 1 -5z" />
    <glyph glyph-name="ix.liga" unicode="ix" horiz-adv-x="500" 
d="M487 311q-61 -76 -81 -101q-13 -16 -7 -35q5 -14 41 -127q6 -13 1 -31t-25 -24q-49 -16 -66 31q-11 29 -20 57q-5 13 -8 24q-2 -3 -8 -10.5t-9 -10.5q-52 -65 -52 -66q-40 -45 -72 -17q-13 11 -13.5 25t4.5 23t15 22q57 73 91 113q14 18 7 39q-5 14 -12 33
q-44 -75 -62 -106q-2 -4 -7 -12q-13 -22 -21 -36t-26.5 -38.5t-34.5 -38t-38.5 -21.5t-44.5 -3q-25 7 -37 32t-12 53q0 92 47 225q6 16 25 22t38.5 1t28.5 -16q8 -11 3 -26q-33 -94 -47 -174q-1 -9 5.5 -10.5t11.5 6.5q27 41 77.5 126t72.5 120q5 13 16 23q19 16 40 11
t30 -28q5 -13 24 -74q5 6 13 15q7 8 23 28.5t25 30.5q40 49 74 20q12 -12 12 -26.5t-5.5 -24.5t-16.5 -24zM108 355q-18 4 -28 18t-5 35q6 26 15 44q7 14 22 19.5t30 1.5q15 -5 23.5 -17.5t6.5 -28.5q-3 -24 -14 -48q-6 -15 -20.5 -21.5t-29.5 -2.5z" />
    <glyph glyph-name="ux.liga" unicode="ux" horiz-adv-x="706" 
d="M692 311q-61 -77 -81 -101q-13 -16 -7 -35q5 -14 41 -127q7 -13 2 -31t-25 -24q-50 -16 -67 31q-11 29 -20 57q-4 13 -7 24q-2 -3 -8.5 -10.5t-8.5 -10.5q-52 -65 -53 -66q-40 -45 -72 -17q-13 11 -13.5 25t4.5 23t15 22q58 73 91 113q15 18 7 39q-4 12 -9 26
q-132 -233 -193 -253q-43 -15 -73 4.5t-33 60.5q-1 7 -2 27q0 1 -0.5 1h-0.5q-12 -24 -23 -42q-16 -27 -41 -40.5t-54 -8.5q-45 7 -65 46t-15 87q8 100 60 231q14 37 51 33q22 -3 32.5 -19t4.5 -36q-39 -123 -40 -125q-29 -105 -17 -128q3 -5 8 -2t12 12.5t15.5 25.5
t15.5 29.5t17 33.5t14 29q45 87 78 148q11 20 24 29t34 0q12 -5 19.5 -12t10 -13t1 -17.5t-3 -16t-5.5 -17.5q-46 -135 -53 -220q-1 -12 7 -16.5t14 4.5q60 89 172 269q7 12 12.5 19t15 13.5t21.5 7.5q30 4 43 -27q4 -13 24 -74q5 6 12 15q7 8 23 28.5t25 30.5q41 49 74 20
q13 -12 12.5 -26.5t-6 -24.5t-16.5 -24z" />
    <glyph glyph-name="ex.liga" unicode="ex" horiz-adv-x="628" 
d="M615 311q-61 -77 -82 -101q-13 -16 -6 -35q5 -14 41 -127q6 -13 1 -31t-25 -24q-50 -16 -67 31q-10 29 -20 57q-4 13 -7 24q-2 -3 -8 -10.5t-9 -10.5q-52 -65 -53 -66q-39 -45 -72 -17q-12 11 -12.5 25t4.5 23t15 22q57 73 91 113q14 18 6 39q-3 11 -8 25
q-25 -42 -46 -74.5t-53.5 -73.5t-63 -66.5t-69 -42t-75.5 -12.5q-35 4 -59.5 24.5t-34 49t-13 62t4.5 63.5q16 85 65 151q36 47 77 64q29 13 56 7.5t47.5 -21t30 -42t2.5 -56.5q-14 -52 -62.5 -92t-106.5 -57q-3 -1 -9.5 -3t-9.5 -3l-4 -3q-1 -38 16.5 -50t46.5 -2
q63 23 218 266q4 5 5 8q19 30 29 38q19 16 40 11t30 -28q5 -13 24 -74q5 6 13 15q6 8 22.5 28.5t25.5 30.5q40 49 74 20q12 -12 12 -26.5t-6 -24.5t-16 -24zM161 308q-34 -24 -52 -74q48 20 70 59q7 11 2 18q-6 7 -17 -2q-2 -1 -3 -1z" />
    <glyph glyph-name="ox.liga" unicode="ox" horiz-adv-x="604" 
d="M590 311q-60 -76 -81 -101q-13 -16 -6 -35q5 -14 40 -127q7 -13 2 -31t-25 -24q-50 -16 -67 31q-10 29 -20 57q-4 13 -7 24q-2 -3 -8 -10.5t-9 -10.5q-52 -65 -53 -66q-40 -45 -72 -17q-13 11 -13.5 25t5 23t15.5 22q57 73 90 113q15 18 7 39l-12 36q-49 -53 -95 -92
q-21 -80 -83 -150q-26 -29 -62.5 -44.5t-74 -8t-59.5 41.5q-32 49 -16 128q1 5 2 8q12 29 4 74q-10 58 28 112t94 69q66 18 113 -14.5t61 -93.5q39 40 74 83q16 23 43 21.5t37 -27.5q5 -13 24 -74q5 6 12 15q7 8 23 28.5t25 30.5q41 49 74 20q13 -12 13 -26.5t-6 -24.5
t-17 -24zM100 55q20 13 37 31q-11 -2 -21 -2q-4 0 -7 1q-20 1 -37 10q-1 -16 1 -28q1 -13 8.5 -16t18.5 4zM198 222q1 19 1.5 42t-11.5 39t-37 11q-1 -1 -24 -9l6 -6q46 -33 4 -72q-8 -7 -25 -26q-9 -10 -5 -23q3 -8 8 -8q26 -2 81 38q1 8 2 14z" />
    <glyph glyph-name="az.liga" unicode="az" horiz-adv-x="745" 
d="M817 216q25 -38 -27 -74q-13 -9 -132 -91l-2 -8q37 -98 -2 -220q-44 -138 -150 -229q-29 -25 -70 -43t-84.5 -24.5t-82 11.5t-56.5 61q-41 95 56 219q15 19 33.5 39.5t33 35t38.5 36.5t35.5 32.5t40 35t37.5 32.5q1 1 20 18q1 2 0.5 4t-3.5 1q-2 0 -5 -1q-20 -4 -32 -5
t-27.5 4t-23.5 20q-15 30 11 59q10 10 44 45.5t55 59t40 49.5q2 3 0 3q-4 -1 -14 -9q-12 -9 -25.5 -18.5t-30 -21t-26.5 -18.5q-6 -5 -18 -26q-7 -11 -22.5 -39t-24.5 -43t-23 -37t-27 -40q-20 -25 -47 -36t-52 -5.5t-40 25.5q-11 14 -16.5 36t-6.5 33t-2 40
q-20 -24 -21 -25t-11.5 -13t-13 -15t-12 -13t-14 -14.5t-13 -12.5t-15 -12t-14 -9t-15.5 -8q-30 -14 -56.5 3t-31.5 50q-9 57 32 149q31 71 80 128q25 29 56.5 45.5t67 13t61.5 -33.5q3 -4 5.5 -8.5t4 -7t2.5 -8.5t1.5 -8t1 -9.5t0.5 -8.5q1 -6 13.5 -19t10.5 -23
q-5 -27 -15 -77l-14 -70q-6 -34 1 -40q1 -1 3 0q13 10 51 73q10 16 27.5 47t24.5 43q27 45 56 70q33 27 76 50q52 29 96 32q39 2 60 -25q12 -16 12.5 -37.5t-6.5 -40.5t-19 -35q-37 -51 -81 -100q-1 -2 -3 -4t-5 -5.5t-5 -5.5q-6 -6 2 -11l24 -12q3 -2 7 1q79 56 139 96
q53 36 78 -1zM76 136q20 22 42.5 47t50 55.5t42.5 47.5q-9 18 -19 18.5t-21 -10.5q-57 -45 -96 -153q-1 -4 1 -5zM582 -80q8 59 -5 65q-2 1 -13 -8q-48 -39 -84.5 -71t-80 -75.5t-70 -85t-32.5 -77.5q-5 -31 8 -45t35 -11t45.5 13t41.5 25q133 102 155 270z" />
    <glyph glyph-name="iz.liga" unicode="iz" horiz-adv-x="554" 
d="M626 216q25 -38 -27 -74q-13 -9 -133 -91l-1 -8q36 -98 -2 -220q-44 -138 -150 -229q-29 -25 -70.5 -43t-84.5 -24.5t-81.5 11.5t-57.5 61q-41 95 57 219q15 19 33.5 39.5t33 35t38 36.5t35.5 32.5l40 35t37 32.5q1 1 20 18q2 2 1 4t-3 1q-2 0 -5 -1q-21 -4 -32.5 -5
t-27.5 4t-24 20q-15 30 12 59q9 10 43 45.5t55 59t40 49.5q4 5 -4 0q-4 -2 -10 -6q-5 -3 -23.5 -15.5t-26 -18t-21.5 -16t-24 -20.5t-18 -21q-3 -4 -24 -34t-39.5 -53t-44.5 -50t-51.5 -40t-46.5 -8q-25 7 -37 32t-12 53q0 92 47 225q6 16 25 22t38.5 1t28.5 -16
q8 -11 3 -26q-33 -94 -47 -174q-1 -9 3.5 -9t10.5 7q15 20 49 64.5t54 69.5t53.5 57t68.5 52q115 69 159 12q11 -16 12 -37.5t-6 -40.5t-19 -35q-38 -51 -81 -100l-4 -4t-5 -5.5t-4 -5.5q-6 -6 2 -11q2 -1 23 -12q4 -2 7 1q80 56 139 96q53 36 79 -1zM391 -80q7 59 -5 65
q-2 1 -14 -8q-47 -39 -83.5 -71t-80 -75.5t-70.5 -85t-32 -77.5q-5 -31 7.5 -45t34.5 -11t45.5 13t42.5 25q133 102 155 270zM104 356q-17 5 -26.5 19t-3.5 35q7 25 16 43q8 14 23 19t30 0q14 -5 22.5 -18t5.5 -28q-4 -25 -15 -48q-7 -15 -21.5 -21t-30.5 -1z" />
    <glyph glyph-name="uz.liga" unicode="uz" horiz-adv-x="773" 
d="M844 216q25 -38 -27 -74q-13 -9 -132 -91l-2 -8q37 -98 -2 -220q-44 -138 -150 -229q-29 -25 -70 -43t-84.5 -24.5t-82 11.5t-56.5 61q-41 95 56 219q15 19 33.5 39.5t33 35t38.5 36.5t35.5 32.5t40 35t37.5 32.5q1 1 20 18q1 2 0.5 4t-3.5 1q-2 0 -5 -1q-20 -4 -32 -5
t-27.5 4t-23.5 20q-15 30 11 59q10 10 44 45.5t55 59t40 49.5q2 3 0 3q-4 -1 -14 -9q-11 -8 -34.5 -24.5t-41 -30.5t-31.5 -29q-16 -17 -40.5 -53.5t-29.5 -42.5q-58 -77 -112 -101q-42 -19 -75.5 1t-33.5 64q1 18 1 27q0 1 -0.5 1h-0.5q-12 -24 -23 -42q-16 -27 -41 -40.5
t-54 -8.5q-45 7 -65 46t-15 87q8 100 60 231q14 37 51 33q22 -3 32.5 -19t4.5 -36q-40 -124 -40 -125q-29 -105 -17 -128q3 -5 8 -2q6 3 12 10.5t9 13t8.5 16.5l6.5 13q13 25 53 104t63 121q11 20 24 29t34 0q12 -5 19.5 -12t10 -13t1 -17.5t-3 -16t-5.5 -17.5
q-45 -131 -53 -220q-1 -9 6 -14t15 2q35 31 83.5 102t74.5 98q43 45 97 76.5t106 35.5q39 2 60 -25q12 -16 12.5 -37.5t-6.5 -40.5t-19 -35q-37 -51 -81 -100q-1 -2 -3 -4t-5 -5.5t-5 -5.5q-6 -6 2 -11l24 -12q3 -2 7 1q79 56 139 96q53 36 78 -1zM609 -80q8 59 -5 65
q-2 1 -13 -8q-48 -39 -84.5 -71t-80 -75.5t-70 -85t-32.5 -77.5q-5 -31 8 -45t35 -11t45.5 13t41.5 25q133 102 155 270z" />
    <glyph glyph-name="ez.liga" unicode="ez" horiz-adv-x="675" 
d="M746 216q26 -38 -27 -74q-12 -9 -132 -91l-1 -8q36 -98 -2 -220q-44 -138 -150 -229q-29 -25 -70.5 -43t-84.5 -24.5t-81.5 11.5t-57.5 61q-41 95 57 219q15 19 33.5 39.5t33 35t38 36.5t35.5 32.5l40 35t37 32.5q1 1 20 18q2 2 1 4t-4 1q-1 0 -5 -1q-20 -4 -31.5 -5
t-27.5 4t-24 20q-15 30 12 59q9 10 43 45.5t55 59t40 49.5q2 3 1 3q-4 -1 -15 -9q-7 -5 -22.5 -16.5t-25 -19t-21.5 -18.5t-21 -22l-28.5 -38t-32 -41.5t-31.5 -37.5t-35.5 -37.5t-36 -28.5t-40.5 -24.5t-41.5 -12t-46.5 -2.5q-35 4 -59.5 24.5t-34 49t-13 62t4.5 63.5
q13 69 49.5 130.5t92.5 84.5q29 13 56 7.5t47.5 -21t30 -42t2.5 -56.5q-14 -52 -62.5 -92t-106.5 -57q-3 -1 -9.5 -3t-9.5 -3l-4 -3q-2 -70 63 -52q24 7 58 39q30 29 66.5 78.5t72.5 91.5t77 67q139 85 185 24q12 -16 13 -37.5t-6.5 -40.5t-18.5 -35q-38 -51 -81 -100l-4 -4
t-5 -5.5t-4 -5.5q-6 -6 2 -11q2 -1 23 -12q4 -2 7 1q80 56 139 96q53 36 78 -1zM161 308q-34 -24 -52 -74q48 20 70 59q7 11 2 18q-6 7 -17 -2q-2 -1 -3 -1zM511 -80q8 59 -5 65q-1 1 -13 -8q-47 -39 -83.5 -71t-80 -75.5t-70.5 -85t-32 -77.5q-5 -31 7.5 -45t34.5 -11
t45.5 13t42.5 25q133 102 154 270z" />
    <glyph glyph-name="oz.liga" unicode="oz" horiz-adv-x="675" 
d="M747 216q25 -38 -27 -74q-13 -9 -132 -91l-2 -8q37 -98 -2 -220q-44 -138 -150 -229q-29 -25 -70 -43t-84.5 -24.5t-82 11.5t-56.5 61q-41 95 56 219q15 19 33.5 39.5t33 35t38.5 36.5t35.5 32.5t40 35t36.5 32.5q2 1 20 18q2 2 1.5 4t-3.5 1q-2 0 -5 -1q-21 -4 -32.5 -5
t-27.5 4t-23 20q-16 30 11 59q10 10 44 45.5t55 59t40 49.5q2 3 0 3q-4 -1 -14 -9q-17 -13 -48.5 -35.5t-44.5 -32.5q-61 -45 -116 -75q-24 -62 -73 -117q-26 -29 -62.5 -44.5t-74 -8t-59.5 41.5q-32 49 -16 128q1 5 2 8q12 29 4 74q-10 58 28 112t94 69q76 20 126.5 -25
t51.5 -121v-2.5v-1.5q33 22 75 55q4 2 11 8q20 16 32.5 25t37 25.5t43.5 24t41 12.5t40 -2t32 -24q12 -16 12.5 -37.5t-6.5 -40.5t-19 -35q-38 -51 -81 -100q-1 -2 -3.5 -4t-5 -5.5t-4.5 -5.5q-6 -6 2 -11q2 -1 23 -12q4 -2 8 1q79 56 139 96q53 36 78 -1zM100 55
q20 13 38 32q-16 -1 -30 0q-19 3 -35 11q-2 -18 0 -31q1 -13 8.5 -16t18.5 4zM198 222q1 19 1.5 42t-12 39t-36.5 11q-1 -1 -24 -9l6 -6q46 -33 4 -72q-8 -7 -25 -26q-8 -7 -6.5 -17.5t12.5 -11.5q26 -3 74 18q4 17 6 32zM512 -80q7 59 -5 65q-2 1 -13 -8q-48 -39 -84.5 -71
t-80 -75.5t-70 -85t-32.5 -77.5q-5 -31 7.5 -45t34.5 -11t45.5 13t42.5 25q133 102 155 270z" />
    <glyph glyph-name="av.liga" unicode="av" horiz-adv-x="769" 
d="M783 244q1 0 8.5 -0.5t9.5 -1t8.5 -1.5t9 -2.5t7 -4t6 -5.5t4 -7t3 -10t0.5 -13q-2 -27 -24 -36.5t-52 -7.5q-47 4 -95 39q-58 -109 -100 -165q-13 -16 -27.5 -29.5t-32.5 -24t-38 -10t-37 14.5q-33 26 -37 90q-1 12 -1 27v0q-27 -42 -42 -63q-20 -25 -47 -36t-52 -5.5
t-40 25.5q-11 14 -16.5 36t-6.5 33t-2 40q-20 -24 -21 -25q-3 -3 -22 -25.5t-27.5 -31t-25.5 -21.5t-33 -19q-31 -12 -57 4t-31 49q-9 57 32 149q31 71 80 128q25 29 56.5 45.5t67 13t61.5 -33.5q3 -4 5.5 -8.5t4 -7t2.5 -8.5t1.5 -7.5t1 -9.5t0.5 -9q1 -6 13.5 -19
t10.5 -23q-5 -27 -15 -77l-14 -70q-6 -34 1 -40q1 -1 3 0q13 10 51 73q17 28 46.5 80.5t40.5 70.5l0.5 0.5t0.5 1.5q1 2 9 42q2 10 5 17q8 17 22.5 24.5t31.5 3.5q17 -5 26 -19.5t6 -31.5q-32 -173 -37 -257q0 -11 3 -11q2 0 11 12q53 72 114 204q1 3 7 30q7 35 35 60.5
t58 5.5t15 -59q-7 -21 -12 -28q-9 -17 7 -32q21 -20 60 -24zM76 136q20 22 42.5 47t50 55.5t42.5 47.5q-9 18 -19 18.5t-21 -10.5q-57 -45 -96 -153q-1 -4 1 -5z" />
    <glyph glyph-name="iv.liga" unicode="iv" horiz-adv-x="576" 
d="M589 244q2 0 12 -1t12.5 -1.5l10 -2t10 -4.5t6.5 -7.5t5 -11.5t0 -17q-1 -27 -23.5 -36.5t-51.5 -7.5q-47 4 -95 39q-59 -109 -101 -165q-12 -16 -26.5 -29.5t-33 -24t-38.5 -10t-37 14.5q-32 26 -36 90q-3 35 0 74q-81 -161 -164 -143q-25 6 -37 31t-12 54q0 92 47 225
q6 16 25 22t38.5 1t28.5 -16q8 -11 3 -26q-33 -94 -47 -174q-1 -9 6 -10.5t11 6.5q14 24 41.5 77.5t50 93.5t45.5 75q29 42 57 34q17 -5 26.5 -19.5t5.5 -31.5q-32 -173 -36 -257q-1 -11 2 -11t12 12q52 72 114 204q1 3 6 30q7 35 35.5 60.5t58.5 5.5q29 -20 15 -59
q-7 -21 -12 -28q-9 -17 6 -32q22 -20 60 -24zM108 355q-18 4 -28 18t-5 35q6 26 15 44q7 14 22 19.5t30 1.5q15 -5 23.5 -17.5t6.5 -28.5q-3 -24 -14 -48q-6 -15 -20.5 -21.5t-29.5 -2.5z" />
    <glyph glyph-name="uv.liga" unicode="uv" horiz-adv-x="752" 
d="M765 244q2 0 12 -1t12.5 -1.5l10 -2t10 -4.5t6.5 -7.5t5 -11.5t0 -17q-1 -27 -23.5 -36.5t-51.5 -7.5q-47 4 -95 39q-59 -109 -101 -165q-12 -16 -27 -29.5t-33 -24t-38 -10t-37 14.5q-32 26 -36 90q-1 8 -1 17q-47 -77 -90 -91q-43 -15 -73 4.5t-33 60.5q-1 7 -2 27
q0 1 -0.5 1h-0.5q-12 -24 -23 -42q-16 -27 -41 -40.5t-54 -8.5q-45 7 -65 46t-15 87q8 100 60 231q14 37 51 33q22 -3 32.5 -19t4.5 -36q-39 -123 -40 -125q-29 -105 -17 -128q3 -5 8 -2t12 12.5t15.5 25.5t15.5 29.5t17 33.5t14 29q45 87 78 148q11 20 24 29t34 0
q12 -5 19.5 -12t10 -13t1 -17.5t-3 -16t-5.5 -17.5q-46 -135 -53 -220q-1 -10 2 -15t7.5 -4t8.5 7q17 29 36 65t31 61t33 69.5t30 63.5q9 18 15.5 28t20 18.5t29.5 4.5q17 -5 26.5 -19.5t5.5 -31.5q-32 -173 -36 -257q-1 -11 2 -11t11 12q53 72 115 204q1 3 6 30
q7 35 35.5 60.5t58.5 5.5q29 -20 15 -59q-8 -21 -12 -28q-10 -17 6 -32q22 -20 60 -24z" />
    <glyph glyph-name="ev.liga" unicode="ev" horiz-adv-x="708" 
d="M722 244q2 0 11.5 -1t12.5 -1.5t10 -2.5t10 -4.5t6.5 -7t4.5 -11.5t1 -17q-2 -27 -24.5 -36.5t-51.5 -7.5q-47 4 -95 39q-58 -109 -101 -165q-12 -16 -26.5 -29.5t-33 -24t-38 -10t-36.5 14.5q-33 26 -37 90q-3 34 0 73q-123 -176 -238 -164q-35 4 -59.5 24.5t-34 49
t-13 62t4.5 63.5q13 69 49.5 130.5t92.5 84.5q29 13 56 7.5t47.5 -21t30 -42t2.5 -56.5q-14 -52 -62.5 -92t-106.5 -57q-3 -1 -9.5 -3t-9.5 -3l-4 -3q-2 -72 63 -52q47 15 111 108q77 111 116 179q26 45 57 36q17 -5 26.5 -19.5t6.5 -31.5q-33 -173 -37 -257q-1 -11 2 -11
t12 12q52 72 114 204q1 3 7 30q6 35 34.5 60.5t58.5 5.5t15 -59q-7 -21 -12 -28q-9 -17 7 -32q21 -19 60 -24zM161 308q-34 -24 -52 -74q48 20 70 59q7 11 2 18q-6 7 -17 -2q-2 -1 -3 -1z" />
    <glyph glyph-name="ov.liga" unicode="ov" horiz-adv-x="712" 
d="M725 244q2 0 12 -1t12.5 -1.5t10 -2.5t10 -4.5t6.5 -7t5 -11.5t0 -17q-1 -27 -23.5 -36.5t-51.5 -7.5q-48 4 -95 39q-59 -109 -101 -165q-12 -16 -27 -29.5t-33 -24t-38 -10t-37 14.5q-32 26 -37 90q-4 63 9 144q-36 -33 -69 -58q-22 -74 -80 -139q-26 -29 -62.5 -44.5
t-74 -8t-59.5 41.5q-32 49 -16 128q1 5 2 8q12 29 4 74q-10 58 28 112t94 69q69 19 117.5 -18t58.5 -103q51 47 91 98q23 28 51 20q17 -5 26.5 -19.5t5.5 -31.5q-32 -173 -36 -257q-1 -11 2 -11t11 12q53 72 115 204q1 3 6 30q7 35 35.5 60.5t58.5 5.5q29 -20 15 -59
q-8 -21 -12 -28q-10 -17 6 -32q22 -19 60 -24zM100 55q19 13 36 31q-10 -2 -18 -2q-4 0 -8 1q-20 1 -38 10q-1 -16 1 -28q1 -13 8.5 -16t18.5 4zM198 222q1 19 1.5 42t-12 39t-36.5 11q-1 -1 -24 -9l6 -6q46 -33 4 -72q-8 -7 -25 -26q-6 -6 -6 -17.5t10 -13.5q26 -2 78 31
q3 11 4 21z" />
    <glyph glyph-name="div.liga" unicode="div" horiz-adv-x="999" 
d="M1012 244q1 0 11 -1t12.5 -1.5t10.5 -2t10.5 -4.5t6.5 -7.5t5 -11.5t0 -17q-2 -27 -24 -36.5t-51 -7.5q-48 4 -96 39q-58 -109 -100 -165q-12 -16 -27 -29.5t-33 -24t-38 -10t-37 14.5q-33 26 -37 90q-2 35 0 74q-80 -161 -164 -143q-24 6 -36 31t-12 54v7
q-11 -15 -23 -30q-13 -17 -27.5 -33t-37 -34.5t-42 -27.5t-41.5 -4.5t-37 27.5q-6 9 -10.5 20.5t-6.5 20t-3.5 24t-1.5 21v24.5v21q-4 -8 -17 -30t-21.5 -35t-22 -30t-28.5 -27.5t-32 -14.5q-24 -5 -46 7.5t-31 35.5q-24 66 5.5 151.5t81.5 151.5q19 25 40 40.5t49 21.5
t56 -11l27 -15q11 27 11 29q44 125 94 218q8 15 14.5 26.5t19.5 32.5t24.5 36t27 33t31 27.5t31.5 15t32 -0.5t30 -23q33 -37 14 -117q-35 -146 -231 -296q-15 -11 -19 -28q-34 -123 -45 -198q-7 -49 4 -63q3 -5 8 0q32 31 77 99q52 77 87 144q11 23 24 29q16 8 39 5t34 -18
q9 -11 3 -26q-32 -94 -46 -174q-2 -9 5.5 -10.5t11.5 6.5q75 137 137 246q24 43 57 34q17 -5 26 -19.5t6 -31.5q-32 -173 -37 -257q0 -11 3 -11q2 0 11 12q53 72 114 204q2 3 7 30q7 35 35 60.5t59 5.5q29 -20 15 -59q-8 -21 -12 -28q-10 -17 6 -32q22 -20 60 -24zM489 671
q-28 -26 -61 -86t-43 -96q34 26 69 86t35 96zM77 116q1 2 105 175q-14 10 -18 10t-13 -10q-58 -73 -79 -173q0 -2 2 -2.5t3 0.5zM513 452q7 14 21.5 19.5t30.5 1.5q14 -5 22.5 -17.5t6.5 -28.5q-3 -24 -13 -48q-7 -15 -21 -21.5t-30 -2.5q-17 4 -27.5 18t-4.5 35q6 26 15 44
z" />
    <glyph glyph-name="on.liga" unicode="on" horiz-adv-x="720" 
d="M725 501q21 -16 12 -47q-1 -4 -13 -30q-52 -125 -75.5 -232t-0.5 -206q2 -6 -2 -11q-18 -19 -41 -15t-36 24q-20 29 -21 87q-1 47 9 93q0 1 5 28q-10 -12 -14 -19q-8 -12 -23 -35t-27 -41.5t-23 -34.5q-20 -29 -40 -45q-37 -31 -71.5 -19t-44.5 59q-10 42 2 106l2 9
q-26 -20 -52 -36q-24 -63 -73 -119q-26 -29 -62.5 -44.5t-74 -8t-59.5 41.5q-32 49 -16 128q1 5 2 8q12 29 4 74q-10 58 28 112t94 69q75 20 125 -23.5t53 -117.5q41 34 80 75q3 3 8 6q13 12 33 14t36 -8q12 -7 16.5 -20t0.5 -26q-39 -125 -40 -129q-5 -17 -7 -28
q0 -2 1.5 -3t3.5 1q3 3 19 27q180 274 192 292q50 76 90 44zM100 55q16 10 31 25h-5q-8 0 -15 1q-21 2 -39 13q-1 -16 1 -27q1 -13 8.5 -16t18.5 4zM198 222q1 19 1.5 42t-12 39t-36.5 11q-1 -1 -24 -9l6 -6q46 -33 4 -72q-8 -7 -25 -26q-8 -8 -5.5 -21t15.5 -15
q24 -3 69 22q5 17 7 35z" />
    <glyph glyph-name="yx.liga" unicode="yx" horiz-adv-x="629" 
d="M296 394q35 -6 30 -42q-29 -203 -89 -411q-6 -21 -14.5 -46t-22.5 -60.5t-29.5 -70.5t-36 -72t-41.5 -67.5t-46.5 -55t-51.5 -37.5t-55.5 -11.5t-58.5 20.5q-33 21 -39.5 70.5t16.5 86.5q14 24 40 26.5t43 -18.5q13 -14 3 -33q-20 -43 -5 -55q13 -9 38 16q46 47 84 122
t78 176q22 57 13 61q-7 4 -27 -11q-24 -17 -51.5 -17t-47.5 19q-33 31 -36 106q-4 116 43 265q12 38 46 38q13 -1 22.5 -4.5t13 -11.5t5.5 -15t0 -19.5t-3.5 -18.5t-4.5 -19q-36 -137 -32 -216q1 -28 10 -37q15 -15 40 18q63 85 107 275q13 56 59 49zM615 311
q-61 -77 -81 -101q-13 -16 -7 -35q5 -14 41 -127q7 -13 2 -31t-25 -24q-50 -16 -67 31q-11 29 -20 57q-4 13 -7 24q-2 -3 -8.5 -10.5t-8.5 -10.5q-52 -65 -53 -66q-40 -45 -72 -17q-13 11 -13.5 25t4.5 23t15 22q58 73 91 113q15 18 7 39q-7 20 -33 102q-10 35 16 58
q19 16 40.5 11t30.5 -28q4 -13 24 -74q5 6 12 15q7 8 23 28.5t25 30.5q41 49 74 20q13 -12 12.5 -26.5t-6 -24.5t-16.5 -24z" />
    <glyph glyph-name="gx.liga" unicode="gx" horiz-adv-x="639" 
d="M625 311q-61 -77 -81 -101q-13 -16 -7 -35q5 -14 41 -127q7 -13 2 -31t-25 -24q-50 -16 -67 31q-11 29 -20 57q-4 13 -7 24q-3 -3 -9 -10.5t-8 -10.5q-52 -65 -53 -66q-40 -45 -72 -17q-13 11 -13.5 25t4.5 23t15 22q58 73 91 113q15 18 7 39q-5 13 -10 31
q-22 -26 -72 -83q-35 -42 -56 -66q-31 -171 -71 -304q-42 -140 -87 -206q-25 -36 -58 -60.5t-73 -33.5t-79 13q-32 17 -41 53t-1 77q15 81 97.5 201t232.5 297h-1q-3 1 -15 -14q-7 -7 -24.5 -28t-27 -32t-25 -26t-30.5 -26q-39 -28 -77 -8q-61 32 -24 145q30 90 89 168
q25 32 58 53.5t72.5 20.5t67.5 -35q16 -20 15 -39q-1 -14 8 -20q17 -13 18 -37q55 64 81 97q12 29 43.5 31.5t42.5 -26.5q5 -13 25 -74q5 6 12 15q7 8 23 28.5t25 30.5q41 49 74 20q13 -12 12.5 -26.5t-6 -24.5t-16.5 -24zM133 -151q15 45 32 112q-58 -73 -99 -131
q-92 -129 -106 -197q-4 -22 6.5 -35.5t32.5 -6.5q31 9 54 48q6 11 12 24t11 23.5t11.5 27.5t9.5 25.5t10 29t9 26t9 28.5t8 26zM74 136q75 83 136 151q-10 17 -19.5 17t-21.5 -10q-2 -2 -6 -5q-49 -47 -89 -153z" />
    <glyph glyph-name="om.liga" unicode="om" horiz-adv-x="901" 
d="M861 504q25 13 45 -3.5t13 -43.5q-2 -6 -13 -33q-118 -279 -74 -444q6 -24 -20 -29q-32 -7 -55 19q-7 7 -11 17q-27 67 -8 176q0 3 1.5 11t3 14.5l1.5 6.5q-17 -23 -44.5 -66t-33.5 -52q-66 -99 -122 -76q-7 3 -12.5 6.5t-9 9t-6.5 10.5t-4.5 12.5t-3 12t-1.5 14t-0.5 13
t-0.5 13.5v12q0 7 1 31q-2 -3 -8 -12.5t-9 -13.5q-5 -8 -20.5 -33t-25 -38t-26.5 -29t-35 -22q-40 -13 -62.5 18.5t-17.5 69.5q6 47 19 96q-26 -19 -51 -35q-24 -63 -73 -119q-26 -29 -62.5 -44.5t-74 -8t-59.5 41.5q-32 49 -16 128q1 5 2 8q12 29 4 74q-10 58 28 112t94 69
q75 20 125 -23.5t53 -117.5q28 24 55 50q3 3 16 16.5t19 18t18 9.5t24 5q21 -1 33 -14.5t6 -33.5q-5 -15 -18 -55.5t-21 -62.5q-10 -33 -6 -32q1 0 3 2q4 5 16 24q92 142 95 147q1 2 7 11l8 12t8 11.5t9.5 12t9.5 10t10.5 10t11 7t12.5 5.5q25 9 42 -6t14 -41
q-1 -13 -13 -51q-7 -26 -22 -74t-22 -70l-6 -24q-2 -6 0.5 -6.5t5.5 3.5q6 8 16 24l194 295q23 35 44 45zM112 201q-8 -8 -5.5 -21t15.5 -15q24 -3 69 22q5 17 7 35q1 19 1.5 42t-11.5 39t-37 11q-1 -1 -24 -9l6 -6q46 -33 4 -72q-8 -7 -25 -26zM100 55q16 10 31 25h-5
q-8 0 -15 1q-21 2 -39 13q-1 -16 1 -27q1 -13 8.5 -16t18.5 4z" />
    <glyph glyph-name="am.liga" unicode="am" horiz-adv-x="964" 
d="M924 504q25 13 45 -3.5t13 -43.5q-2 -6 -13 -33q-118 -279 -74 -444q7 -24 -20 -29q-31 -7 -55 19q-7 7 -11 17q-27 67 -8 176q1 3 2.5 11t2.5 14.5l1 6.5q-16 -23 -44 -66t-34 -52q-66 -99 -122 -76q-7 3 -12 6.5t-9 9t-7 10.5t-4.5 12.5t-2.5 12t-1.5 14t-0.5 13v13.5
v12q0 7 1 31q-3 -4 -9 -13t-8 -13q-6 -8 -21.5 -33t-24.5 -38t-26.5 -29t-35.5 -22q-34 -11 -55.5 10.5t-24.5 55.5q-7 -11 -13 -19q-20 -25 -47 -36t-52 -5.5t-40 25.5q-11 14 -16.5 36t-6.5 33t-2 40q-20 -24 -21 -25q-3 -3 -22 -25.5t-27.5 -31t-25.5 -21.5t-33 -19
q-31 -12 -57 4t-31 49q-9 57 32 149q31 71 80 128q25 29 56.5 45.5t67 13t61.5 -33.5q3 -4 5.5 -8.5t4 -7t2.5 -8.5t1.5 -7.5t1 -9.5t0.5 -9q1 -6 13.5 -19t10.5 -23q-5 -27 -15 -77l-14 -70q-6 -34 1 -40q1 -1 3 0q13 10 51 73q15 26 43.5 76t42.5 74q2 2 5.5 8t5 9
t5.5 8.5t6 8.5t6.5 7t8 6t8.5 5t9.5 3.5t11 0.5t12.5 -1q42 -8 28 -52q-5 -15 -18 -55.5t-20 -62.5q-11 -33 -6 -32l2 2q4 5 16 24q92 142 96 147q1 2 7 11l8 12t7.5 11.5t9 12t9.5 10t11 10t11 7t13 5.5q24 9 41 -6t15 -41q-2 -13 -13 -51q-8 -26 -23 -74t-21 -70
q-4 -12 -7 -24q-1 -6 1 -6.5t5 3.5q6 8 16 24l195 295q22 35 43 45zM76 136q20 22 42.5 47t50 55.5t42.5 47.5q-9 18 -19 18.5t-21 -10.5q-57 -45 -96 -153q-1 -4 1 -5z" />
    <glyph glyph-name="im.liga" unicode="im" horiz-adv-x="795" 
d="M755 504q25 13 45 -3.5t13 -43.5q-2 -6 -13 -33q-118 -279 -74 -444q6 -24 -20 -29q-32 -7 -55 19q-7 7 -11 17q-27 67 -8 176q0 3 1.5 11t3 14.5l1.5 6.5q-17 -23 -44.5 -66t-33.5 -52q-66 -99 -122 -76q-7 3 -12.5 6.5t-9 9t-6.5 10.5t-4.5 12.5t-3 12t-1.5 14t-0.5 13
t-0.5 13.5v12q0 7 1 31q-2 -3 -8 -12.5t-9 -13.5q-5 -8 -20.5 -33t-25 -38t-26.5 -29t-35 -22q-40 -13 -62.5 18.5t-17.5 69.5q4 27 10 58q-107 -147 -168 -132q-25 7 -37 32t-12 53q0 92 47 225q6 16 25 22t38.5 1t28.5 -16q8 -11 3 -26q-33 -94 -47 -174q-1 -9 5.5 -10.5
t11.5 6.5q111 137 163 214q0 1 2 3q10 21 35.5 26t44 -9.5t10.5 -40.5q-5 -15 -18 -55.5t-20 -62.5q-11 -33 -7 -32q1 0 3 2q4 5 16 24q93 143 95 147q1 2 7 11l8 12t8 11.5t9.5 12t9.5 10t10.5 10t11 7t12.5 5.5q25 9 42 -6t14 -41q-1 -13 -12 -51q-8 -26 -23 -74t-22 -70
l-6 -24q-2 -6 0.5 -6.5t5.5 3.5q6 8 16 24q194 294 194 295q23 35 44 45zM104 356q-17 5 -26.5 19t-3.5 35q7 25 16 43q8 14 23.5 19t29.5 0q15 -5 23 -18t5 -28q-4 -25 -15 -48q-7 -15 -21.5 -21t-30.5 -1z" />
    <glyph glyph-name="um.liga" unicode="um" horiz-adv-x="955" 
d="M915 504q26 13 45.5 -3.5t12.5 -43.5q-1 -6 -13 -33q-118 -279 -73 -444q6 -24 -21 -29q-31 -7 -54 19q-7 7 -11 17q-27 67 -8 176q0 3 1.5 11t2.5 14.5l1 6.5q-16 -23 -44 -66t-33 -52q-67 -99 -123 -76q-6 3 -11.5 6.5t-9.5 9t-6.5 10t-4.5 12.5t-3 12.5t-1.5 14
t-0.5 13v13.5v12q0 7 1 31q-2 -4 -8.5 -13t-8.5 -13q-5 -8 -20.5 -33t-25 -38t-27 -29t-35.5 -22q-33 -11 -55 10.5t-25 56.5q-37 -46 -69 -58q-42 -17 -73 2.5t-33 62.5q0 5 -1 13.5t-1 13.5q0 1 -0.5 1h-0.5q-12 -24 -23 -42q-16 -27 -41 -40.5t-54 -8.5q-45 7 -65 46
t-15 87q8 100 60 231q14 37 51 33q22 -3 32.5 -19t4.5 -36q-39 -123 -40 -125q-29 -105 -17 -128q3 -5 8 -2t12 12.5t15.5 25.5t15.5 29.5t17 33.5t14 29q45 87 78 148q11 20 23.5 28.5t34.5 0.5q7 -2 12 -5t9 -5.5t6 -7t3.5 -7t1 -8.5t0 -8t-1.5 -9t-2.5 -8.5l-3 -9
t-2.5 -8.5q-45 -133 -53 -220q-1 -11 6.5 -15.5t14.5 3.5q53 63 102 158q5 8 21 42.5t27 51.5q12 18 37 21t41.5 -11t8.5 -39q-5 -15 -18 -55.5t-20 -62.5q-10 -33 -6 -32q1 0 2 2q4 5 16 24q93 142 96 147q1 2 7 11l8 12t8 11.5t9 12t9 10t11 10t11.5 7t12.5 5.5
q24 9 41 -6t15 -41q-1 -13 -13 -51q-8 -26 -23 -74t-21 -70q-4 -12 -7 -24q-1 -6 1 -6.5t6 3.5l15 24l195 295q22 35 43 45z" />
    <glyph glyph-name="em.liga" unicode="em" horiz-adv-x="900" 
d="M860 504q25 13 45 -3.5t13 -43.5q-1 -6 -13 -33q-118 -279 -74 -444q7 -24 -20 -29q-31 -7 -55 19q-7 7 -11 17q-27 67 -8 176q1 3 2.5 11t2.5 14.5l1 6.5q-16 -23 -44 -66t-33 -52q-67 -99 -123 -76q-6 3 -11.5 6.5t-9.5 9t-7 10.5t-4.5 12.5t-2.5 12t-1.5 14t-0.5 13
v13.5v12q0 7 1 31q-3 -4 -9 -13t-8 -13q-6 -8 -21 -33t-24.5 -38t-27 -29t-35.5 -22q-40 -13 -62.5 18.5t-16.5 69.5q0 1 2 17q-104 -124 -208 -113q-35 4 -59.5 24.5t-34 49t-13 62t4.5 63.5q13 69 49.5 130.5t92.5 84.5q29 13 56 7.5t47.5 -21t30 -42t2.5 -56.5
q-14 -52 -62.5 -92t-106.5 -57q-3 -1 -9.5 -3t-9.5 -3l-4 -3q-1 -53 36 -56q38 -2 85 43q56 52 130 163q4 5 16 26t22.5 34t22.5 19q18 7 36 5.5t29 -15.5t4 -35q-5 -15 -18 -55.5t-20 -62.5q-10 -33 -6 -32l2 2q4 5 16 24q92 142 96 147q1 2 7 11l8 12t7.5 11.5t9 12
t9.5 10t11 10t11 7t13 5.5q24 9 41 -6t15 -41q-1 -13 -13 -51q-8 -26 -23 -74t-21 -70q-4 -12 -7 -24q-1 -6 1 -6.5t6 3.5l15 24l195 295q22 35 43 45zM161 308q-34 -24 -52 -74q48 20 70 59q7 11 2 18q-6 7 -17 -2q-2 -1 -3 -1z" />
    <glyph glyph-name="dim.liga" unicode="dim" horiz-adv-x="1218" 
d="M1178 504q25 13 45 -3.5t13 -43.5q-2 -6 -13 -33q-119 -279 -74 -444q6 -24 -21 -29q-31 -7 -54 19q-7 7 -11 17q-27 67 -8 176q0 3 1.5 11t2.5 14.5l1 6.5q-16 -23 -43.5 -66t-33.5 -52q-66 -99 -122 -76q-7 3 -12.5 6.5t-9.5 9t-6.5 10.5t-4.5 12.5t-3 12t-1.5 14
t-0.5 13v13.5v12q0 7 1 31q-2 -3 -8 -12.5t-9 -13.5q-5 -8 -20.5 -33t-25 -38t-26.5 -29t-35 -22q-40 -13 -62.5 18.5t-17.5 69.5q4 27 10 58q-107 -147 -168 -132q-25 7 -37 32t-12 53v4.5v2.5q-11 -15 -23 -30q-13 -17 -27.5 -33t-37 -34.5t-42 -27.5t-41.5 -4.5t-37 27.5
q-6 9 -10.5 20.5t-6.5 20t-3.5 24t-1.5 21v24.5v21q-4 -8 -17 -30t-21.5 -35t-22 -30t-28.5 -27.5t-32 -14.5q-24 -5 -46 7.5t-31 35.5q-24 66 5.5 151.5t81.5 151.5q19 25 40 40.5t49 21.5t56 -11q4 -3 13.5 -8t13.5 -7q11 27 11 29q44 125 94 218q8 15 14.5 26.5
t19.5 32.5t24.5 36t27 33t31 27.5t31.5 15t32 -0.5t30 -23q33 -37 14 -117q-35 -146 -231 -296q-15 -11 -19 -28q-34 -123 -45 -198q-7 -49 4 -63q3 -5 8 0q34 34 82.5 107t88.5 147q12 22 43.5 23.5t47.5 -18.5q8 -11 3 -26q-33 -94 -47 -174q-2 -9 4.5 -10.5t12.5 6.5
q111 137 162 214q1 1 2 3q11 21 36.5 26t44 -9.5t10.5 -40.5l-18.5 -55.5t-20.5 -62.5q-10 -33 -6 -32q1 0 2 2q4 5 16 24q93 142 96 147q1 2 7 11l8 12t8 11.5t9.5 12t9.5 10t10.5 10t11 7t12.5 5.5q24 9 41.5 -6t14.5 -41q-1 -13 -13 -51q-7 -26 -22 -74t-22 -70
q-4 -12 -6 -24q-2 -6 0 -6.5t6 3.5q6 8 16 23q22 34 61 94t71.5 109.5t61.5 92.5q23 35 44 45zM489 671q-28 -26 -61 -86t-43 -96q34 26 69 86t35 96zM77 116q1 2 105 175q-14 10 -18 10t-13 -10q-58 -73 -79 -173q0 -2 2 -2.5t3 0.5zM513 453q8 14 23 19t30 0q14 -5 22 -18
t6 -28q-4 -25 -15 -48q-7 -15 -21.5 -21t-30.5 -1q-17 5 -26.5 19t-3.5 35q7 25 16 43z" />
    <glyph glyph-name="an.liga" unicode="an" horiz-adv-x="783" 
d="M789 501q20 -16 11 -47q-1 -4 -12 -30q-53 -125 -76.5 -232t-0.5 -206q2 -6 -2 -11q-18 -19 -41 -15t-36 24q-20 29 -21 87q0 47 9 93q1 1 5 28q-9 -12 -14 -19q-8 -12 -22.5 -35t-27 -41.5t-23.5 -34.5q-20 -29 -40 -45q-37 -31 -71.5 -19t-44.5 59q-2 7 -3 16
q-16 -25 -26 -39q-30 -39 -71 -43t-66 29q-11 14 -17 34.5t-7.5 33.5t-2.5 39q-20 -24 -21 -25q-3 -3 -22 -25.5t-27.5 -31t-25.5 -21.5t-33 -19q-31 -12 -57 4t-31 49q-9 57 32 149q31 71 80 128q25 29 56.5 45.5t67 13t61.5 -33.5q4 -4 6 -8.5t3.5 -7t2.5 -8.5t1.5 -8
t1 -9.5t0.5 -8.5q1 -6 13.5 -19t10.5 -23q-5 -27 -15 -77l-14 -70q-6 -34 1 -40q1 -1 3 0q13 10 51 73q17 28 46.5 80.5t40.5 70.5q20 33 39 42q27 11 53 -5t16 -45q-39 -128 -40 -129q-5 -17 -6 -28q-1 -2 1 -3t3 1q4 3 19 27q180 274 192 292q50 76 91 44zM76 136
q20 22 42.5 47t50 55.5t42.5 47.5q-9 18 -19 18.5t-21 -10.5q-57 -45 -96 -153q-1 -4 1 -5z" />
    <glyph glyph-name="in.liga" unicode="in" horiz-adv-x="612" 
d="M104 356q-17 5 -26.5 19t-3.5 35q7 25 16 43q8 14 23 19t30 0q14 -5 22.5 -18t5.5 -28q-4 -25 -15 -48q-7 -15 -21.5 -21t-30.5 -1zM617 501q21 -16 12 -47q-1 -4 -12 -31q-53 -124 -76.5 -231t-0.5 -206q2 -6 -2 -11q-18 -19 -41 -15t-36 24q-20 29 -21 87q0 47 9 93
q0 1 5 28q-10 -12 -14 -19q-8 -12 -22.5 -35t-27 -41.5t-23.5 -34.5q-20 -29 -40 -45q-37 -31 -71.5 -19t-44.5 59q-8 34 -2 79q-108 -150 -170 -135q-25 7 -37 32t-12 53q0 92 47 225q6 16 25 22t38.5 1t28.5 -16q8 -11 3 -26q-33 -94 -47 -174q-1 -9 5.5 -10.5t11.5 6.5
q110 135 160 211q4 6 9 11l1 1l1 1q2 2 4 3q13 10 31 10.5t33 -8.5q12 -7 16.5 -20t0.5 -26q-38 -125 -40 -129q-5 -17 -7 -28q0 -2 2 -3t3 1q3 3 19 27q180 274 192 292q50 76 90 44z" />
    <glyph glyph-name="un.liga" unicode="un" horiz-adv-x="775" 
d="M780 501q20 -16 11 -47q-1 -4 -12 -31q-53 -124 -76 -231t0 -206q1 -6 -3 -11q-17 -19 -40 -15t-37 24q-19 29 -20 87q-1 47 9 93q0 1 5 28q-10 -12 -15 -19q-8 -12 -22.5 -35t-26.5 -41.5t-23 -34.5q-20 -29 -40 -45q-37 -31 -71.5 -19t-45.5 59q-1 6 -2 14
q-46 -61 -83 -75q-42 -17 -73 2.5t-33 62.5q0 5 -0.5 13.5t-1.5 13.5q0 1 -0.5 1h-0.5q-12 -24 -23 -42q-16 -27 -41 -40.5t-54 -8.5q-45 7 -65 46t-15 87q8 100 60 231q14 37 51 33q22 -3 32.5 -19t4.5 -36q-39 -123 -40 -125q-29 -105 -17 -128q3 -5 8 -2t12 12.5
t15.5 25.5t15.5 29.5t17 33.5t14 29q45 87 78 148q11 20 23.5 28.5t34.5 0.5q7 -2 12 -5t9 -5.5t6 -7t3.5 -7t1 -8.5t0 -8t-1.5 -9t-2.5 -8.5l-3 -9t-2.5 -8.5q-45 -133 -53 -220q-1 -11 6.5 -15.5t14.5 3.5q46 56 97 148q6 11 22 45t28 51q12 18 35 22.5t42 -7.5
q12 -7 16.5 -20t0.5 -26q-39 -125 -40 -129q-5 -17 -7 -28q0 -2 1.5 -3t2.5 1q4 3 20 27q179 274 191 292q50 76 91 44z" />
    <glyph glyph-name="en.liga" unicode="en" horiz-adv-x="716" 
d="M721 501q21 -16 12 -47q-1 -4 -13 -30q-52 -125 -75.5 -232t-0.5 -206q2 -6 -2 -11q-18 -19 -41 -15t-36 24q-20 29 -21 87q-1 47 9 93q0 1 5 28q-10 -12 -14 -19q-8 -12 -23 -35t-27 -41.5t-23 -34.5q-20 -29 -40 -45q-37 -31 -71.5 -19t-44.5 59q-5 19 -5 40
q-106 -129 -213 -118q-35 4 -59.5 24.5t-34 49t-13 62t4.5 63.5q16 85 65 151q36 47 77 64q29 13 56 7.5t47.5 -21t30 -42t2.5 -56.5q-14 -52 -62.5 -92t-106.5 -57q-3 -1 -9.5 -3t-9.5 -3l-4 -3q-2 -70 63 -52q21 6 44.5 25.5t34.5 32t33 39.5q18 22 35.5 46.5t41 59.5
t32.5 48q10 22 35 28t45 -7q12 -7 16.5 -20t0.5 -26q-39 -125 -40 -129q-5 -17 -7 -28q0 -2 1.5 -3t3.5 1q3 3 19 27q180 274 192 292q50 76 90 44zM161 308q-34 -24 -52 -74q48 20 70 59q7 11 2 18q-6 7 -17 -2q-2 -1 -3 -1z" />
    <glyph glyph-name="cn.liga" unicode="cn" horiz-adv-x="700" 
d="M705 501q20 -16 12 -47q-2 -4 -13 -31q-53 -124 -76 -231t0 -206q1 -6 -3 -11q-17 -19 -40 -15t-37 24q-19 29 -20 87q-1 47 9 93q0 1 5 28q-10 -12 -15 -19q-8 -12 -22.5 -35t-26.5 -41.5t-23 -34.5q-20 -29 -40 -45q-37 -31 -71.5 -19t-45.5 59q-5 24 -4 52
q-104 -129 -184 -129q-40 0 -69 21t-41 59q-21 65 1.5 142.5t71.5 133.5q25 29 58.5 46t70.5 11.5t61 -39.5q11 -17 11.5 -34t-15.5 -32q-46 -33 -65 6q0 1 -1 3l-1.5 3t-2 3t-2.5 3t-3 2t-5 1q-14 3 -38 -26q-48 -59 -57 -131q-4 -33 8.5 -59.5t43.5 -17.5q12 3 27.5 15
t33.5 31.5t33.5 38t34 44.5t29 41t26 37.5t16.5 24.5q44 64 93 36q12 -7 16.5 -20t0.5 -26q-39 -125 -40 -129q-5 -17 -7 -28q0 -2 1.5 -3t2.5 1q4 3 20 27q179 274 191 292q50 76 91 44z" />
    <glyph glyph-name="din.liga" unicode="din" horiz-adv-x="1035" 
d="M513 453q8 14 23 19t30 0q14 -5 22 -18t6 -28q-4 -25 -15 -48q-7 -15 -21.5 -21t-30.5 -1q-17 5 -26.5 19t-3.5 35q7 25 16 43zM1040 501q20 -16 12 -47q-2 -4 -13 -31q-52 -124 -75.5 -231t-0.5 -206q2 -6 -3 -11q-17 -19 -40 -15t-36 24q-20 29 -21 87q-1 47 9 93
q0 1 5 28q-10 -12 -14 -19q-9 -12 -23.5 -35t-26.5 -41.5t-23 -34.5q-20 -29 -40 -45q-37 -31 -71.5 -19t-44.5 59q-8 34 -2 79q-108 -150 -170 -135q-25 7 -37 32t-12 53v12q-14 -21 -29.5 -42t-41 -46t-48 -38t-47 -10t-42.5 29q-6 9 -10.5 20.5t-6.5 20t-3.5 24t-1.5 21
v24.5v21q-4 -8 -17 -30t-21.5 -35t-22 -30t-28.5 -27.5t-32 -14.5q-24 -5 -46 7.5t-31 35.5q-24 66 5.5 151.5t81.5 151.5q19 25 40 40.5t49 21.5t56 -11q4 -3 13.5 -8t13.5 -7q11 27 11 29q44 125 94 218q8 15 14.5 26.5t19.5 32.5t24.5 36t27 33t31 27.5t31.5 15t32 -0.5
t31 -23q32 -37 13 -117q-35 -146 -231 -296q-15 -11 -19 -28q-38 -139 -45 -198q-3 -28 3 -55q3 -14 9 -8q66 65 172 256q2 4 5 7q4 4 9 7q17 10 41 6t35 -17q8 -11 3 -26q-33 -94 -47 -174q-2 -9 4.5 -10.5t12.5 6.5q109 135 160 211q4 6 9 11l1 1l1 1q2 2 4 3
q13 10 31 10.5t33 -8.5q12 -7 16.5 -20t0.5 -26q-39 -125 -40 -129q-5 -17 -7 -28q0 -2 1.5 -3t3.5 1q3 3 19 27q180 274 192 292q49 76 90 44zM489 671q-28 -26 -61 -86t-43 -96q34 26 69 86t35 96zM77 116q1 3 105 175q-14 10 -18 10t-13 -10q-58 -73 -79 -173
q0 -2 2 -2.5t3 0.5z" />
    <glyph glyph-name="aw.liga" unicode="aw" horiz-adv-x="923" 
d="M947 240q20 -8 24.5 -27t-6 -36.5t-30.5 -20.5q-36 -5 -76 8q-1 1 -26 10q-7 -16 -8 -20q-5 -10 -14.5 -33.5t-15.5 -36.5t-16 -32t-21.5 -33.5t-24.5 -26.5q-35 -31 -72.5 -22.5t-54.5 51.5q-12 32 -21 72q0 1 -1 0t-2.5 -3t-3 -3.5t-3.5 -4.5t-2 -4q-4 -5 -17 -25.5
t-19.5 -29.5t-19.5 -22.5t-26 -20.5q-28 -17 -56 -7.5t-39 39.5q-10 28 -11 70q-20 -31 -32 -48q-20 -25 -47 -36t-52 -5.5t-40 25.5q-11 14 -16.5 36t-6.5 33t-2 40q-20 -24 -21 -25q-3 -3 -22 -25.5t-27.5 -31t-25.5 -21.5t-33 -19q-31 -12 -57 4t-31 49q-9 57 32 149
q31 71 80 128q25 29 56.5 45.5t67 13t61.5 -33.5q4 -4 6 -8.5t3.5 -7t2.5 -8.5t1.5 -7.5t1 -9.5t0.5 -9q1 -6 13.5 -19t10.5 -23q-5 -27 -15 -77t-13 -70q-7 -34 0 -40q1 -1 3 0q13 10 51 73q17 28 46.5 80.5t40.5 70.5q9 15 9 16q5 14 10 26q9 26 26.5 40.5t42.5 3.5
q34 -15 16 -70q-40 -114 -50 -221q0 -2 2 -2.5t3 1.5q19 31 55.5 90t52.5 86q32 52 70 37q13 -5 20 -18.5t6 -29.5q-6 -113 -4 -170q1 -32 5 -30q9 13 21 37q31 58 50 138q3 11 -2 33q-7 34 6 70t44 49q25 12 45 -1.5t19 -41.5q0 -2 -9 -58q-2 -17 1 -23t18 -12
q11 -4 34.5 -7t34.5 -8zM76 136q20 22 42.5 47t50 55.5t42.5 47.5q-9 18 -19 18.5t-21 -10.5q-57 -45 -96 -153q-1 -4 1 -5z" />
    <glyph glyph-name="iw.liga" unicode="iw" horiz-adv-x="743" 
d="M767 240q19 -8 24 -27t-6 -36.5t-31 -20.5q-35 -5 -75 8q-1 1 -26 10q-7 -16 -9 -20q-4 -10 -13.5 -33.5t-15.5 -36.5t-16 -32t-21.5 -33.5t-25.5 -26.5q-35 -31 -72 -22.5t-54 51.5q-13 32 -22 72q0 1 -1 0t-2.5 -3t-2.5 -3.5l-3 -4.5t-2 -4q-4 -5 -17 -25.5
t-19.5 -29.5t-19.5 -22.5t-26 -20.5q-28 -17 -56 -7.5t-39 39.5q-18 46 -7 134q-103 -161 -170 -145q-25 7 -37 32t-12 53q0 92 47 225q6 16 25 22t38.5 1t28.5 -16q8 -11 3 -26q-33 -94 -47 -174q-1 -9 6 -10.5t11 6.5q55 86 165 251q24 42 62 26q34 -15 15 -70
q-39 -114 -50 -221q0 -2 2 -2.5t3 1.5q19 31 55.5 90t53.5 86q32 52 69 37q13 -5 20.5 -18.5t6.5 -29.5q-7 -113 -5 -170q2 -32 5 -30q9 13 22 37q31 58 50 138q2 11 -2 33q-7 34 6 70t44 49q25 12 44.5 -1.5t18.5 -41.5q0 -2 -8 -58q-3 -17 0 -23t19 -12q11 -4 34.5 -7
t34.5 -8zM108 355q-18 4 -28 18t-5 35q6 26 15 44q7 14 22 19.5t30 1.5q15 -5 23.5 -17.5t6.5 -28.5q-3 -24 -14 -48q-6 -15 -20.5 -21.5t-29.5 -2.5z" />
    <glyph glyph-name="uw.liga" unicode="uw" horiz-adv-x="912" 
d="M936 240q19 -8 24 -27t-6 -36.5t-31 -20.5q-35 -5 -75 8q-1 1 -26 10q-7 -16 -9 -20q-4 -10 -13.5 -33.5t-15.5 -36.5t-16 -32t-21.5 -33.5t-25.5 -26.5q-35 -31 -72 -22.5t-54 51.5q-10 26 -22 72q0 1 -1 0t-2.5 -3t-2.5 -3.5l-3 -4.5t-2 -4q-4 -5 -17 -25.5
t-19.5 -29.5t-19.5 -22.5t-26 -20.5q-28 -17 -56 -7.5t-39 39.5q-11 28 -11 68q-52 -75 -86 -84q-44 -13 -73.5 6t-32.5 59q-1 7 -2 27q0 1 -0.5 1h-0.5q-12 -24 -23 -42q-16 -27 -41 -40.5t-54 -8.5q-45 7 -65 46t-15 87q8 100 60 231q14 37 51 33q22 -3 32.5 -19t4.5 -36
q-39 -123 -40 -125q-29 -105 -17 -128q3 -5 8 -2t12 12.5t15.5 25.5t15.5 29.5t17 33.5t14 29q45 87 78 148q11 20 24 29t34 0q12 -5 19.5 -12t10 -13t1 -17.5t-3 -16t-5.5 -17.5q-46 -133 -53 -220q-2 -15 6.5 -18.5t14.5 6.5q46 70 148 263q10 26 27 40.5t43 3.5
q34 -15 15 -70q-39 -114 -50 -221q0 -2 2 -2.5t3 1.5q19 31 55.5 90t53.5 86q32 52 69 37q13 -5 20.5 -18.5t6.5 -29.5q-7 -113 -5 -170q2 -32 5 -30q15 22 22 37q35 75 50 138q2 11 -2 33q-7 34 6 70t44 49q25 12 44.5 -1.5t18.5 -41.5q0 -2 -8 -58q-3 -17 0 -23t19 -12
q11 -4 34.5 -7t34.5 -8z" />
    <glyph glyph-name="ew.liga" unicode="ew" horiz-adv-x="865" 
d="M889 240q20 -8 24.5 -27t-6 -36.5t-30.5 -20.5q-36 -5 -76 8q-1 1 -26 10q-7 -16 -9 -20q-4 -10 -13.5 -33.5t-15.5 -36.5t-16 -32t-21.5 -33.5t-25.5 -26.5q-34 -31 -71.5 -22.5t-54.5 51.5q-13 32 -21 72q-1 1 -1.5 0t-2 -3t-3 -3.5t-3.5 -4.5t-2 -4q-4 -5 -17 -25.5
t-19.5 -29.5t-19.5 -22.5t-26 -20.5q-28 -17 -56 -7.5t-39 39.5q-15 40 -9 110q-120 -154 -232 -143q-35 4 -59.5 24.5t-34 49t-13 62t4.5 63.5q12 67 50.5 129t91.5 86q28 14 55.5 8.5t48 -21t30 -42.5t2.5 -57q-14 -52 -62.5 -92t-106.5 -57q-3 -1 -9.5 -3t-9.5 -3l-4 -3
q-2 -70 63 -52q25 7 58 38.5t67.5 77t56 76t41.5 62.5q3 5 8.5 14t9 15t9.5 15t11 12.5t13 9t15 3.5t18 -3q35 -14 16 -70q-40 -114 -50 -221q0 -2 1.5 -2.5t3.5 1.5q19 31 55.5 90t52.5 86q32 52 69 37q14 -5 21 -18.5t6 -29.5q-7 -113 -4 -170q1 -32 5 -30q8 13 21 37
q31 58 50 138q3 11 -2 33q-7 34 6 70t44 49q25 12 45 -1.5t19 -41.5q0 -2 -9 -58q-2 -17 1 -23t18 -12q11 -4 34.5 -7t34.5 -8zM161 308q-34 -24 -52 -74q48 20 70 59q7 11 2 18q-6 7 -17 -2q-2 -1 -3 -1z" />
    <glyph glyph-name="ow.liga" unicode="ow" horiz-adv-x="857" 
d="M880 240q20 -8 24.5 -27t-6 -36.5t-30.5 -20.5q-36 -5 -76 8q-1 1 -26 10q-7 -16 -8 -20q-5 -10 -14.5 -33.5t-15.5 -36.5t-16 -32t-21.5 -33.5t-24.5 -26.5q-35 -31 -72.5 -22.5t-54.5 51.5q-12 32 -21 72q0 1 -1 0t-2.5 -3t-3 -3.5t-3.5 -4.5t-2 -4q-4 -5 -17 -25.5
t-19.5 -29.5t-19.5 -22.5t-26 -20.5q-28 -17 -56 -7.5t-39 39.5q-19 50 -4 153q1 12 3 24q-27 -23 -52 -41q-24 -70 -78 -131q-26 -29 -62.5 -44.5t-74 -8t-59.5 41.5q-32 49 -16 128q1 5 2 8q12 29 4 74q-10 58 28 112t94 69q71 19 120.5 -20t56.5 -108q53 47 89 95
q24 43 62 27q34 -15 16 -70q-40 -114 -50 -221q0 -2 2 -2.5t3 1.5q19 31 55.5 90t52.5 86q32 52 69 37q14 -5 21 -18.5t6 -29.5q-6 -113 -4 -170q1 -32 5 -30q9 13 21 37q31 58 50 138q3 11 -2 33q-7 34 6 70t44 49q25 12 45 -1.5t19 -41.5q0 -2 -9 -58q-2 -17 1 -23t18 -12
q11 -4 34.5 -7t34.5 -8zM100 55q19 12 36 30q-23 -3 -41 2q-23 5 -23 8q-1 -16 1 -28q1 -13 8.5 -16t18.5 4zM198 222q1 19 1.5 42t-12 39t-36.5 11q-1 -1 -24 -9l6 -6q46 -33 4 -72q-8 -7 -25 -26q-9 -10 -5 -23q3 -8 11 -9q27 -1 76 27q2 14 4 26z" />
    <glyph glyph-name="ar.liga" unicode="ar" horiz-adv-x="764" 
d="M750 214q22 -14 9 -47q-10 -25 -37.5 -26.5t-46.5 13.5q-43 30 -58 108q-1 -3 -3.5 -8t-4 -9t-2.5 -6q-5 -12 -22 -55.5t-29 -71t-25.5 -53.5t-41 -43.5t-55.5 -12.5q-45 9 -53 72q-17 -26 -28 -41q-19 -25 -46.5 -36t-52.5 -5.5t-40 25.5q-10 14 -16 36t-6.5 33t-2.5 40
q-20 -24 -21 -25q-3 -3 -22 -25.5t-27 -31t-25 -21.5t-34 -19q-31 -12 -57 4t-31 49q-10 64 25 140t87 137q25 29 56.5 45.5t67 13t62.5 -33.5q3 -4 5 -8.5t3.5 -7t2.5 -8.5t1.5 -7.5t1.5 -9.5t1 -9q0 -6 13 -19t11 -23q-5 -27 -15 -77l-14 -70q-7 -34 0 -40q1 -1 3 0
q13 10 51 73q44 73 104 187q11 20 28 27.5t35 -0.5q17 -9 22 -26.5t-3 -39.5q-6 -16 -37 -108q-2 -6 -3 -10t1.5 -4.5t3.5 2.5q22 62 89 188q17 30 43 49.5t59 17.5q25 -2 38.5 -20.5t8.5 -43.5q0 -2 -2.5 -14t-3.5 -15t-2.5 -13.5t-2 -15l-1.5 -13.5t-1 -15v-14t2 -15
q1 -11 8 -20t12 -12.5t18 -11.5zM76 136q20 22 42.5 47t50 55.5t42.5 47.5q-9 18 -19 18.5t-21 -10.5q-57 -45 -96 -153q-1 -4 1 -5z" />
    <glyph glyph-name="er.liga" unicode="er" horiz-adv-x="708" 
d="M694 214q23 -14 10 -47q-10 -25 -38 -26.5t-47 13.5q-43 30 -57 108q-1 -3 -3.5 -8t-4 -9t-2.5 -6q-5 -12 -22 -55t-29 -71t-25.5 -54t-41.5 -43.5t-55 -12.5q-57 11 -55 104q-111 -139 -220 -128q-35 4 -60.5 24.5t-37 49t-15.5 62t3 63.5q13 67 53 129.5t97 85.5
q28 13 55.5 7.5t48 -21t30 -42t1.5 -56.5q-13 -52 -62 -92t-106 -57q-3 -1 -9.5 -3t-10.5 -3l-3 -3q-2 -70 63 -52q24 7 58 39q55 52 130 163q8 11 23 35.5t23 36.5q27 38 60 23q18 -9 23 -26.5t-4 -39.5q-6 -16 -36 -108q-2 -6 -3 -10t1.5 -4.5t3.5 2.5q22 62 89 188
q16 29 41.5 48.5t58.5 18.5q25 -2 39.5 -20.5t9.5 -43.5q-1 -2 -3.5 -13.5t-3 -15t-2.5 -14t-2.5 -15l-1.5 -13.5t-1 -15t0.5 -14t1.5 -15q2 -11 8.5 -20t11.5 -12.5t18 -11.5zM168 308q-34 -24 -53 -74q48 20 71 59q6 11 1 18t-17 -2q-1 -1 -2 -1z" />
    <glyph glyph-name="ir.liga" unicode="ir" horiz-adv-x="596" 
d="M582 214q23 -14 9 -47q-9 -25 -37 -26.5t-47 13.5q-36 25 -50 75q-4 15 -8 33q-1 -3 -3 -8t-4 -9l-3 -6q-4 -12 -21.5 -55.5t-29.5 -71t-25.5 -53.5t-41 -43.5t-55.5 -12.5q-26 5 -40 29t-14 50.5t1 50.5q0 2 0.5 5.5t0.5 4.5q-112 -157 -175 -142q-25 7 -37 32t-12 53
q0 92 47 225q6 16 25 22t38.5 1t28.5 -16q8 -11 3 -26q-33 -94 -47 -174q-1 -9 5.5 -10.5t11.5 6.5q7 8 29 35t31.5 39t28.5 36.5t30 40t25 36.5t24 40q12 20 28.5 27.5t34.5 -0.5q17 -9 22 -26.5t-3 -39.5q-6 -16 -36 -108q-3 -6 -4 -10q0 -4 2 -4.5t3 2.5q11 30 21 51
q45 93 69 137q16 30 42 49.5t59 17.5q25 -2 39 -20.5t8 -43.5q0 -2 -2.5 -14t-3 -15t-2.5 -13.5t-2.5 -15l-1.5 -13.5t-1 -15t0.5 -14t1.5 -15q1 -11 8 -20t12 -12.5t18 -11.5zM104 356q-17 5 -26.5 19t-3.5 35q7 25 16 43q8 14 23 19t30 0q14 -5 22.5 -18t5.5 -28
q-4 -25 -15 -48q-7 -15 -21.5 -21t-30.5 -1z" />
    <glyph glyph-name="or.liga" unicode="or" horiz-adv-x="702" 
d="M688 214q23 -14 10 -47q-10 -25 -38 -26.5t-47 13.5q-35 25 -50 75q-4 15 -7 33q-2 -3 -4 -8t-3.5 -9t-2.5 -6q-5 -12 -22 -55.5t-29 -71t-26 -53.5t-41.5 -43.5t-55.5 -12.5q-25 5 -39 29t-14.5 50.5t0.5 50.5q2 18 6 40q-28 -22 -55 -40q-23 -61 -72 -116
q-26 -29 -62.5 -44.5t-74 -8t-59.5 41.5q-32 49 -16 128q1 5 2 7q12 30 4 75q-10 58 28 112t94 69q75 20 125 -23.5t53 -117.5q44 39 89 93q27 33 58 19q17 -9 22 -26.5t-3 -39.5q-6 -16 -36 -108q-2 -6 -3 -10t1 -4.5t4 2.5q10 31 21 51q44 93 68 137q16 30 42 49.5
t59 17.5q25 -2 39 -20.5t8 -43.5q0 -2 -2.5 -14t-3 -15t-2.5 -13.5t-2.5 -15l-1.5 -13.5t-1 -15t0.5 -14t1.5 -15q2 -11 8.5 -20t11.5 -12.5t18 -11.5zM100 55q16 10 31 25h-2h-2h-10q-24 2 -45 14q-1 -16 1 -27q1 -13 8.5 -16t18.5 4zM198 222q1 19 1.5 42t-11.5 39t-37 11
q-1 -1 -24 -9l6 -6q46 -33 4 -72q-21 -18 -25 -25q-7 -10 -4 -23t16 -14q25 -2 67 20q5 19 7 37z" />
    <glyph glyph-name="dir.liga" unicode="dir" horiz-adv-x="1020" 
d="M1005 214q23 -14 10 -47q-10 -25 -38 -26.5t-46 13.5q-36 25 -50 75q-5 15 -8 33q-1 -3 -3.5 -8t-4 -9t-2.5 -6q-5 -12 -22 -55t-29 -71t-25.5 -54t-41.5 -43.5t-55 -12.5q-26 5 -40 29t-14.5 50.5t0.5 50.5q1 2 1.5 5.5t0.5 4.5q-112 -157 -176 -142q-24 7 -36.5 32
t-12.5 53q0 1 1 8q-12 -16 -24 -31q-13 -17 -27.5 -33t-37 -34.5t-42 -27.5t-41.5 -4.5t-37 27.5q-6 9 -10.5 20.5t-6.5 20t-3.5 24t-1.5 21v24.5v21q-5 -8 -17.5 -30t-21 -35t-22 -30t-28.5 -27.5t-32 -14.5q-24 -5 -46 7.5t-31 35.5q-24 66 5.5 151.5t81.5 151.5
q19 25 40 40.5t49 21.5t56 -11q4 -3 13.5 -8t13.5 -7q11 27 11 29q44 125 94 218q8 15 14.5 26.5t19.5 32.5t24.5 36t27 33t31 27.5t31.5 15t32 -0.5t30 -23q33 -37 14 -117q-35 -146 -231 -296q-15 -11 -19 -28q-34 -123 -45 -198q-7 -49 4 -63q3 -5 8 0q35 34 83.5 108
t88.5 149q7 12 22 16q17 7 38 2.5t30 -16.5q9 -11 3 -26q-32 -94 -46 -174q-2 -9 4.5 -10.5t12.5 6.5t28.5 35.5t32 39t28 36t30 40t25 36.5t24.5 40q11 20 28 27.5t34 -0.5q18 -9 23 -26.5t-3 -39.5q-6 -16 -37 -108q-2 -6 -3 -10t1.5 -4.5t3.5 2.5q11 30 21 51
q45 93 68 137q16 30 42 49.5t59 17.5q26 -2 39.5 -20.5t8.5 -43.5q-1 -2 -3.5 -14t-3 -15t-2.5 -13.5t-2.5 -15l-1.5 -13.5t-1 -15t0.5 -14t1.5 -15q2 -11 8.5 -20t11.5 -12.5t18 -11.5zM489 671q-28 -26 -61 -86t-43 -96q34 26 69 86t35 96zM77 116q1 3 105 175
q-14 10 -18 10t-13 -10q-58 -73 -79 -173q0 -2 2 -2.5t3 0.5zM514 453q7 14 22.5 19t30.5 0q14 -5 22 -18t6 -28q-4 -25 -15 -48q-8 -15 -22 -21t-30 -1q-17 5 -27 19t-4 35q7 25 17 43z" />
    <glyph glyph-name="oj.liga" unicode="oj" horiz-adv-x="551" 
d="M622 218q27 -37 -29 -74q-85 -56 -147 -96q-20 -13 -26 -36q-43 -167 -97 -281q-21 -46 -35 -73t-40 -63t-54 -59q-34 -27 -75.5 -35.5t-78.5 9.5t-51 63q-17 57 6.5 123.5t66.5 123.5q89 117 267 251q19 15 23 38q6 38 12 72q-52 -39 -101 -65q-23 -52 -65 -99
q-26 -29 -62.5 -44.5t-74 -8t-59.5 41.5q-32 49 -16 128q1 5 2 8q12 29 4 74q-10 58 28 112t94 69q76 20 126.5 -25.5t51.5 -120.5q0 -8 -1 -18q46 32 86 70q14 13 20 18t19 10.5t27 3.5q35 -5 30 -49q-4 -37 -19 -125q79 49 89 56q56 34 79 1zM100 55q15 10 29 23
q-8 0 -13 1q-24 3 -44 14q-1 -15 1 -26q1 -13 8.5 -16t18.5 4zM198 222q1 19 1.5 42t-11.5 39t-37 11q-1 -1 -24 -9l6 -6q46 -33 4 -72q-8 -7 -25 -26q-10 -11 -4.5 -23.5t19.5 -14.5q23 -3 61 12q7 23 10 47zM297 -94q2 6 9 30q-3 3 -12 -4q-114 -97 -168 -174
q-10 -15 -21.5 -35.5t-23.5 -49t-10.5 -52t20.5 -32.5q6 -3 11.5 -3t10.5 2t10.5 6t9.5 8t9.5 10t8.5 10t7 10t6 8q76 100 133 266zM444 353q-18 2 -30 14.5t-10 34.5q2 25 8 44q5 16 19 23.5t30 5.5q15 -3 25 -14t11 -27q0 -25 -7 -50q-4 -15 -17 -23.5t-29 -7.5z" />
    <glyph glyph-name="dj.liga" unicode="dj" horiz-adv-x="641" 
d="M712 218q27 -37 -29 -74q-85 -56 -147 -96q-20 -13 -26 -36q-43 -167 -97 -281q-21 -46 -35 -73t-40 -63t-54 -59q-34 -27 -75.5 -35.5t-78.5 9.5t-51 63q-17 57 6.5 123.5t66.5 123.5q89 117 267 251q19 15 23 38q0 2 1 6t1 6q-68 -82 -136 -133q-67 -50 -103 3
q-6 9 -10.5 20.5t-6.5 20t-3.5 24t-1.5 21v24.5v21q-4 -8 -17 -30t-21.5 -35t-22 -30t-28.5 -27.5t-32 -14.5q-24 -5 -46 7.5t-31 35.5q-24 66 5.5 151.5t81.5 151.5q19 25 40 40.5t49 21.5t56 -11q4 -3 13.5 -8t13.5 -7q11 27 11 29q44 125 94 218q8 15 14.5 26.5
t19.5 32.5t24.5 36t27 33t31 27.5t31.5 15t32 -0.5t30 -23q33 -37 14 -117q-35 -146 -231 -296q-15 -11 -19 -28q-34 -123 -45 -198q-3 -20 -2 -39q1 -3 3.5 -4.5t5.5 0.5q39 32 94.5 97t102.5 139q16 25 51 20t31 -49q-5 -37 -19 -125q78 49 88 56q56 34 79 1zM489 671
q-28 -26 -61 -86t-43 -96q34 26 69 86t35 96zM77 116q1 2 105 175q-14 10 -18 10t-13 -10q-58 -73 -79 -173q0 -2 2 -2.5t3 0.5zM387 -94q2 6 9 30q-3 3 -12 -4q-114 -97 -168 -174q-10 -15 -21.5 -35.5t-23.5 -49t-10.5 -52t20.5 -32.5q6 -3 11.5 -3t10.5 2t10.5 6t10 8
t9.5 10t8 10t7 10t6 8q76 100 133 266zM551 475q15 -3 25 -14t11 -27q0 -25 -7 -50q-4 -15 -17 -23.5t-29 -7.5q-18 2 -30 14.5t-10 34.5q2 26 8 44q5 16 19 23.5t30 5.5z" />
    <glyph glyph-name="ol.liga" unicode="ol" horiz-adv-x="562" 
d="M621 227q39 -24 15 -65q-33 -56 -84 -112.5t-99 -86.5q-41 -26 -84.5 -4t-44.5 70q-1 80 10 162q-30 -27 -60 -48q-23 -67 -76 -126q-26 -29 -62.5 -44.5t-74 -8t-59.5 41.5q-32 49 -16 128q1 5 2 8q12 29 4 74q-10 58 28 112t94 69q72 19 121.5 -21t55.5 -110
q43 39 78 81q44 151 131 305q19 35 48.5 69t58.5 51q33 20 63 9.5t42 -46.5q11 -40 8.5 -78t-21 -77t-42.5 -73t-56 -66.5t-62 -57.5t-61 -45q-15 -10 -20 -29q-32 -112 -38 -231q-1 -13 4 -17t13 3q53 44 113 129q1 2 6 9t7 9.5t7 8.5t8 7.5t8.5 4.5t10 2.5t11 -2
t13.5 -5.5zM624 671q-25 -22 -62.5 -90.5t-50.5 -110.5q28 13 70.5 90t42.5 111zM100 55q17 11 33 27h-10h-9q-22 2 -42 12q-1 -16 1 -27q1 -13 8.5 -16t18.5 4zM198 222q1 19 1.5 42t-12 39t-36.5 11q-1 -1 -24 -9l6 -6q46 -33 4 -72q-8 -7 -25 -26q-9 -10 -5 -23l0.5 -1
l0.5 -1v-0.5t1 -1.5q3 -6 11 -7q26 -2 72 25q4 16 6 30z" />
    <glyph glyph-name="el.liga" unicode="el" horiz-adv-x="575" 
d="M633 227q40 -24 16 -65q-33 -56 -84 -112.5t-99 -86.5q-41 -26 -84.5 -4t-44.5 70q-1 54 4 109q-127 -171 -244 -159q-35 4 -59.5 24.5t-34 49t-13 62t4.5 63.5q16 85 65 151q36 47 77 64q29 13 56 7.5t47.5 -21t30 -42t2.5 -56.5q-14 -52 -62.5 -92t-106.5 -57
q-3 -1 -9.5 -3t-9.5 -3l-4 -3q-2 -70 63 -52q25 7 58 38.5t67.5 77t56 76t41.5 62.5q7 12 14 21q45 152 132 306q19 35 48.5 69t57.5 51q34 20 64 9.5t42 -46.5q11 -40 8 -78t-21 -77t-42 -73t-56 -66.5t-62 -57.5t-61 -45q-15 -10 -20 -29q-32 -112 -38 -231q-1 -13 4 -17
t13 3q53 44 113 129q1 2 6 9t7 9.5t7 8.5t8 7.5t8.5 4.5t10 2.5t11 -2t12.5 -5.5zM637 671q-25 -22 -62.5 -90.5t-50.5 -110.5q27 13 70 90t43 111zM161 308q-34 -24 -52 -74q48 20 70 59q7 11 2 18q-6 7 -17 -2q-2 -1 -3 -1z" />
    <glyph glyph-name="dl.liga" unicode="dl" horiz-adv-x="675" 
d="M733 227q40 -24 16 -65q-33 -56 -84 -112.5t-99 -86.5q-41 -26 -84.5 -4t-44.5 70q-1 50 3 101q-24 -34 -50 -67q-14 -18 -28 -33.5t-36.5 -34.5t-42 -27.5t-41.5 -4t-37 27.5q-6 9 -10.5 20.5t-6.5 20t-3.5 24t-1.5 21v24.5v21q-4 -8 -17 -30t-21.5 -35t-22 -30
t-28.5 -27.5t-32 -14.5q-24 -5 -46 7.5t-31 35.5q-24 66 5.5 151.5t81.5 151.5q19 25 40 40.5t49 21.5t56 -11q4 -3 13.5 -8t13.5 -7q11 27 11 29q44 125 94 218q8 15 14.5 26.5t19.5 32.5t24.5 36t27 33t31 27.5t31.5 15t32 -0.5t30 -23q33 -37 14 -117q-35 -146 -231 -296
q-15 -11 -19 -28q-38 -139 -45 -198q-3 -28 3 -55q4 -14 9 -8q37 37 71.5 85.5t110.5 169.5q44 167 141 338q19 35 48.5 69t57.5 51q34 20 64 9.5t42 -46.5q11 -40 8 -78t-21 -77t-42 -73t-56 -66.5t-62 -57.5t-61 -45q-15 -10 -20 -29q-32 -112 -38 -231q-1 -13 4 -17t13 3
q53 44 113 129q1 2 6 9t7 9.5t7 8.5t8 7.5t8.5 4.5t10 2.5t11 -2t12.5 -5.5zM737 671q-25 -22 -62.5 -90.5t-50.5 -111.5q27 14 70 91t43 111zM489 671q-28 -26 -61 -86t-43 -96q34 26 69 86t35 96zM77 116q1 2 105 175q-14 10 -18 10t-13 -10q-58 -73 -79 -173q0 -2 2 -2.5
t3 0.5z" />
    <glyph glyph-name="cl.liga" unicode="cl" horiz-adv-x="547" 
d="M606 227q40 -24 15 -65q-32 -56 -83.5 -112.5t-99.5 -86.5q-40 -26 -83.5 -4t-44.5 70q-1 52 3 105q-116 -154 -203 -154q-40 0 -69 21t-41 59q-21 65 1.5 142.5t71.5 133.5q25 29 58.5 46t70.5 11.5t61 -39.5q11 -17 11.5 -34t-15.5 -32q-46 -33 -65 6q0 1 -1 3l-1.5 3
t-2 3t-2.5 3t-3 2t-5 1q-14 3 -38 -26q-48 -59 -57 -131q-4 -33 8.5 -59.5t43.5 -17.5q12 3 27.5 15t33.5 31.5t33.5 38t34 44.5t29 41t26 37.5t16.5 24.5q9 12 11 16q44 163 138 329q20 35 49.5 69t57.5 51q33 20 63.5 9.5t41.5 -46.5q11 -40 8.5 -78t-20.5 -77t-42 -73
t-56 -66.5t-62.5 -57.5t-60.5 -45q-15 -10 -21 -29q-31 -112 -38 -231q0 -13 5 -17t13 3q53 44 113 129q1 2 6 9t6.5 9.5t6.5 8.5t8 7.5t8.5 4.5t10.5 2.5t11 -2t13 -5.5zM609 671q-24 -22 -62 -90.5t-50 -111.5q27 14 69.5 91t42.5 111z" />
    <glyph glyph-name="ll.liga" unicode="ll" horiz-adv-x="483" 
d="M542 227q39 -24 15 -65q-32 -56 -83.5 -112.5t-99.5 -86.5q-41 -26 -84.5 -4t-44.5 70q0 46 3 94q-84 -114 -139 -160q-18 -15 -41 -16t-42 9t-32 30t-14 43q-6 302 176 623q19 35 48.5 69t57.5 51q33 20 63.5 9.5t42.5 -46.5q11 -40 8 -78t-21 -77t-42 -73t-56 -66.5
t-62 -57.5t-61 -45q-15 -10 -20 -29q-32 -112 -39 -231q0 -13 5 -17t13 3q107 118 190 260q44 163 138 328q20 35 49 69t58 51q33 20 63 9.5t42 -46.5q11 -40 8.5 -78t-21 -77t-42.5 -73t-56 -66.5t-62 -57.5t-61 -45q-15 -10 -20 -29q-32 -112 -38 -231q-1 -13 4.5 -17
t12.5 3q54 44 113 129q1 2 6.5 9t7 9.5t6.5 8.5t8 7.5t8.5 4.5t10 2.5t11 -2t13.5 -5.5zM545 671q-25 -22 -62.5 -90.5t-49.5 -111.5q27 14 69.5 91t42.5 111zM280 671q-25 -22 -62.5 -90.5t-50.5 -111.5q27 14 70 91t43 111z" />
    <glyph glyph-name="al.liga" unicode="al" horiz-adv-x="629" 
d="M688 227q40 -24 16 -65q-33 -56 -84 -112.5t-100 -86.5q-40 -26 -83.5 -4t-44.5 70q-1 32 1 65q-25 -40 -40 -60q-20 -25 -47 -36t-52 -5.5t-40 25.5q-11 14 -16.5 36t-6.5 33t-2 40q-20 -24 -21 -25q-3 -3 -22 -25.5t-27.5 -31t-25.5 -21.5t-33 -19q-31 -12 -57 4
t-31 49q-9 57 32 149q31 71 80 128q25 29 56.5 45.5t67 13t61.5 -33.5q4 -4 6 -8.5t3.5 -7t2.5 -8.5t1.5 -8t1 -9.5t0.5 -8.5q1 -6 13.5 -19t10.5 -23q-5 -27 -15 -77l-14 -70q-6 -34 1 -40q1 -1 3 0q13 10 51 73q17 28 46.5 80.5t40.5 70.5q2 3 4 6.5t3 4.5q44 167 139 336
q20 35 49.5 69t57.5 51q33 20 63.5 9.5t42.5 -46.5q10 -40 7.5 -78t-20.5 -77t-42 -73t-56 -66.5t-62.5 -57.5t-60.5 -45q-15 -10 -21 -29q-31 -112 -38 -231q0 -13 5 -17t13 3q53 44 113 129q1 2 6 9t7 9.5t7 8.5t7.5 7.5t8 4.5t10.5 2.5t11 -2t13 -5.5zM692 671
q-25 -22 -63 -90.5t-50 -111.5q27 14 70 91t43 111zM76 136q20 22 42.5 47t50 55.5t42.5 47.5q-9 18 -19 18.5t-21 -10.5q-57 -45 -96 -153q-1 -4 1 -5z" />
    <glyph glyph-name="il.liga" unicode="il" horiz-adv-x="454" 
d="M108 355q-18 4 -28 18t-5 35q6 26 15 44q7 14 22 19.5t30 1.5q15 -5 23.5 -17.5t6.5 -28.5q-3 -24 -14 -48q-6 -15 -20.5 -21.5t-29.5 -2.5zM513 227q40 -24 15 -65q-32 -56 -83.5 -112.5t-99.5 -86.5q-41 -26 -84 -4t-44 70q-2 62 5 125q-21 -30 -38.5 -52.5t-44.5 -51
t-52.5 -41.5t-47.5 -8q-25 7 -37 32t-12 53q0 92 47 225q6 16 25 22t38.5 1t28.5 -16q8 -11 3 -26q-33 -94 -47 -174q-1 -9 5.5 -10.5t11.5 6.5q91 112 148 194q44 170 142 344q20 35 49.5 69t57.5 51q33 20 63 9.5t42 -46.5q11 -40 8.5 -78t-21 -77t-42.5 -73t-56 -66.5
t-62 -57.5t-61 -45q-15 -10 -20 -29q-31 -112 -38 -231q-1 -13 4.5 -17t13.5 3q53 44 113 129q1 2 6 9t6.5 9.5t6.5 8.5t8 7.5t8.5 4.5t10 2.5t11 -2t13.5 -5.5zM516 671q-25 -22 -62.5 -90.5t-49.5 -110.5q27 13 69.5 90t42.5 111z" />
    <glyph glyph-name="all.liga" unicode="all" horiz-adv-x="898" 
d="M957 227q40 -24 15 -65q-32 -56 -83.5 -112.5t-99.5 -86.5q-41 -26 -84 -4t-44 70q-1 46 2 94q-84 -114 -139 -160q-18 -15 -41 -16t-42 9t-32 30t-14 43q0 35 2 71l-2 -3q-27 -42 -42 -63q-20 -25 -47 -36t-52 -5.5t-40 25.5q-11 14 -16.5 36t-6.5 33t-2 40
q-20 -24 -21 -25q-3 -3 -22 -25.5t-27.5 -31t-25.5 -21.5t-33 -19q-31 -12 -57 4t-31 49q-9 57 32 149q31 71 80 128q25 29 56.5 45.5t67 13t61.5 -33.5q3 -4 5.5 -8.5t4 -7t2.5 -8.5t1.5 -8t1 -9.5t0.5 -8.5q1 -6 13.5 -19t10.5 -23q-5 -27 -15 -77l-14 -70q-6 -34 1 -40
q1 -1 3 0q13 10 51 73q17 28 46.5 80.5t40.5 70.5q10 16 12 19q1 2 1 3q44 161 137 325q20 35 49 69t58 51q33 20 63 9.5t42 -46.5q11 -40 8.5 -78t-21 -77t-42.5 -73t-56 -66.5t-62 -57.5t-61 -45q-15 -10 -20 -29q-32 -112 -38 -231q-1 -13 4.5 -17t12.5 3
q106 118 190 259q1 1 1 3q44 162 137 326q20 35 49.5 69t57.5 51q33 20 63 9.5t42 -46.5q11 -40 8.5 -78t-20.5 -77t-42 -73t-56 -66.5t-62.5 -57.5t-60.5 -45q-15 -10 -21 -29q-31 -112 -38 -231q0 -13 5 -17t13 3q53 44 113 129q1 2 6 9t6.5 9.5t6.5 8.5t8 7.5t8.5 4.5
t10 2.5t11 -2t13.5 -5.5zM960 671q-25 -22 -62.5 -90.5t-49.5 -111.5q27 14 69.5 91t42.5 111zM695 671q-25 -22 -62.5 -90.5t-49.5 -111.5q27 14 69.5 91t42.5 111zM76 136q20 22 42.5 47t50 55.5t42.5 47.5q-9 18 -19 18.5t-21 -10.5q-57 -45 -96 -153q-1 -4 1 -5z" />
    <glyph glyph-name="ill.liga" unicode="ill" horiz-adv-x="726" 
d="M108 355q-18 4 -28 18t-5 35q6 26 15 44q7 14 22 19.5t30 1.5q15 -5 23.5 -17.5t6.5 -28.5q-3 -24 -14 -48q-6 -15 -20.5 -21.5t-29.5 -2.5zM785 227q39 -24 15 -65q-33 -56 -84 -112.5t-99 -86.5q-41 -26 -84.5 -4t-44.5 70q-1 46 3 94q-84 -114 -140 -160
q-17 -15 -40 -16t-42 9t-32 30t-14 43q-1 67 7 136q-19 -27 -29.5 -41.5t-35 -44t-43 -45t-41.5 -26.5t-42 -7q-25 7 -37 32t-12 53q0 92 47 225q6 16 25 22t38.5 1t28.5 -16q8 -11 3 -26q-33 -94 -47 -174q-1 -9 5.5 -10.5t11.5 6.5q98 121 159 209q44 163 137 329
q20 35 49.5 69t57.5 51q33 20 63.5 9.5t42.5 -46.5q11 -40 8 -78t-21 -77t-42 -73t-56 -66.5t-62.5 -57.5t-60.5 -45q-15 -10 -20 -29q-32 -112 -39 -231q0 -13 5 -17t13 3q106 118 190 260q44 163 138 328q19 35 48.5 69t58.5 51q33 20 63 9.5t42 -46.5q11 -40 8.5 -78
t-21 -77t-42.5 -73t-56 -66.5t-62 -57.5t-61 -45q-15 -10 -20 -29q-32 -112 -38 -231q-1 -13 4 -17t13 3q53 44 113 129q1 2 6 9t7 9.5t7 8.5t8 7.5t8.5 4.5t10 2.5t11 -2t13.5 -5.5zM788 671q-25 -22 -62.5 -90.5t-50.5 -111.5q28 14 70.5 91t42.5 111zM523 671
q-25 -22 -63 -90.5t-50 -111.5q27 14 70 91t43 111z" />
    <glyph glyph-name="dil.liga" unicode="dil" horiz-adv-x="877" 
d="M513 452q7 14 21.5 19.5t30.5 1.5q14 -5 22.5 -17.5t6.5 -28.5q-3 -24 -13 -48q-7 -15 -21 -21.5t-30 -2.5q-17 4 -27.5 18t-4.5 35q6 26 15 44zM935 227q40 -24 16 -65q-33 -56 -84 -112.5t-99 -86.5q-41 -26 -84.5 -4t-44.5 70q-1 62 6 125q-22 -30 -39.5 -52.5
t-44 -51t-52.5 -41.5t-47 -8q-25 7 -37 32t-12 53v7q-11 -15 -23 -30q-13 -17 -27.5 -33t-37 -34.5t-42 -27.5t-41.5 -4.5t-37 27.5q-6 9 -10.5 20.5t-6.5 20t-3.5 24t-1.5 21v24.5v21q-4 -8 -17 -30t-21.5 -35t-22 -30t-28.5 -27.5t-32 -14.5q-24 -5 -46 7.5t-31 35.5
q-24 66 5.5 151.5t81.5 151.5q19 25 40 40.5t49 21.5t56 -11l27 -15q11 27 11 29q44 125 94 218q8 15 14.5 26.5t19.5 32.5t24.5 36t27 33t31 27.5t31.5 15t32 -0.5t30 -23q33 -37 14 -117q-35 -146 -231 -296q-15 -11 -19 -28q-34 -123 -45 -198q-7 -49 4 -63q3 -5 8 0
q34 33 82 105.5t88 146.5q12 23 43.5 25.5t47.5 -18.5q9 -11 3 -26q-32 -94 -46 -174q-2 -9 4.5 -10.5t12.5 6.5q91 112 148 194q43 170 142 344q19 35 48.5 69t57.5 51q34 20 64 9.5t42 -46.5q11 -40 8 -78t-21 -77t-42 -73t-56 -66.5t-62 -57.5t-61 -45q-15 -10 -20 -29
q-32 -112 -38 -231q-1 -13 4 -17t13 3q53 44 113 129q1 2 6 9t7 9.5t7 8.5t8 7.5t8.5 4.5t10 2.5t11 -2t12.5 -5.5zM939 671q-25 -22 -62.5 -90.5t-50.5 -111.5q27 14 70 91t43 111zM489 671q-28 -26 -61 -86t-43 -96q34 26 69 86t35 96zM77 116q1 2 105 175q-14 10 -18 10
t-13 -10q-58 -73 -79 -173q0 -2 2 -2.5t3 0.5z" />
    <glyph glyph-name="ell.liga" unicode="ell" horiz-adv-x="840" 
d="M899 227q40 -24 15 -65q-32 -56 -83.5 -112.5t-99.5 -86.5q-40 -26 -83.5 -4t-44.5 70q-1 46 3 94q-85 -114 -140 -160q-18 -15 -40.5 -16t-41.5 9t-32.5 30t-13.5 43q-2 54 4 110q-127 -172 -245 -160q-35 4 -59.5 24.5t-34 49t-13 62t4.5 63.5q16 85 65 151
q36 47 77 64q29 13 56 7.5t47.5 -21t30 -42t2.5 -56.5q-14 -52 -62.5 -92t-106.5 -57q-3 -1 -9.5 -3t-9.5 -3l-4 -3q-2 -70 63 -52q25 7 58 38.5t67.5 77t56 76t41.5 62.5q8 12 15 22q44 151 131 305q20 35 49 69t58 51q33 20 63 9.5t42 -46.5q11 -40 8.5 -78t-21 -77
t-42.5 -73t-56 -66.5t-62 -57.5t-61 -45q-15 -10 -20 -29q-31 -112 -38 -231q-1 -13 4.5 -17t13.5 3q106 118 190 260q44 163 137 328q20 35 49.5 69t57.5 51q33 20 63.5 9.5t41.5 -46.5q11 -40 8.5 -78t-20.5 -77t-42 -73t-56 -66.5t-62.5 -57.5t-60.5 -45q-15 -10 -21 -29
q-31 -112 -38 -231q0 -13 5 -17t13 3q53 44 113 129q1 2 6 9t6.5 9.5t6.5 8.5t8 7.5t8.5 4.5t10.5 2.5t11 -2t13 -5.5zM902 671q-24 -22 -62 -90.5t-50 -110.5q27 13 69.5 90t42.5 111zM637 671q-25 -22 -62.5 -90.5t-49.5 -110.5q27 13 69.5 90t42.5 111zM161 308
q-34 -24 -52 -74q48 20 70 59q7 11 2 18q-6 7 -17 -2q-2 -1 -3 -1z" />
    <glyph glyph-name="dill.liga" unicode="dill" horiz-adv-x="1146" 
d="M515 453q8 14 23 19t30 0q14 -5 22 -18t6 -28q-4 -25 -15 -48q-7 -15 -21.5 -21t-30.5 -1q-17 5 -26.5 19t-3.5 35q7 25 16 43zM1205 227q39 -24 15 -65q-32 -56 -83.5 -112.5t-99.5 -86.5q-41 -26 -84 -4t-44 70q-1 46 2 94q-84 -114 -139 -160q-18 -15 -41 -16t-42 9
t-32 30t-14 43q-1 58 5 117q-32 -44 -38 -53q-9 -12 -15.5 -20.5t-17.5 -21t-20.5 -21t-22.5 -16.5t-24.5 -11.5t-25.5 -3t-27 6.5q-39 20 -40 95q-13 -19 -27 -38q-15 -22 -36 -42.5t-48 -40t-54.5 -18.5t-46.5 29q-6 9 -10.5 20.5t-6.5 20t-3.5 24t-1.5 21v24.5v21
q-4 -8 -17 -30t-21.5 -35t-22 -30t-28.5 -27.5t-32 -14.5q-24 -5 -46 7.5t-31 35.5q-24 66 5.5 151.5t81.5 151.5q19 25 40 40.5t49 21.5t56 -11q4 -3 13.5 -8t13.5 -7q11 27 11 29q44 125 94 218q8 15 14.5 26.5t19.5 32.5t24.5 36t27 33t31 27.5t31.5 15t32 -0.5t30 -23
q33 -37 14 -117q-35 -146 -231 -296q-15 -11 -19 -28q-38 -139 -45 -198q-5 -45 4 -60q5 -7 12 1q53 53 170 253q12 20 40.5 19.5t41.5 -17.5q9 -11 4 -26q-39 -112 -47 -174q-4 -32 5 -30q3 0 5 3q15 16 28 32.5t33.5 44.5t25.5 35q63 83 76 103q44 171 143 346
q19 35 48.5 69t57.5 51q34 20 64 9.5t42 -46.5q11 -40 8 -78t-21 -77t-42 -73t-56 -66.5t-62 -57.5t-61 -45q-15 -10 -20 -29q-32 -112 -38 -231q-1 -13 4 -17t13 3q107 118 190 260q44 163 138 328q20 35 49 69t58 51q33 20 63 9.5t42 -46.5q11 -40 8.5 -78t-21 -77
t-42.5 -73t-56 -66.5t-62 -57.5t-61 -45q-15 -10 -20 -29q-31 -112 -38 -231q-1 -13 4.5 -17t13.5 3q53 44 112 129q2 2 7 9t6.5 9.5t6.5 8.5t8 7.5t8.5 4.5t10 2.5t11 -2t13.5 -5.5zM1208 671q-25 -22 -62.5 -90.5t-49.5 -111.5q27 14 69.5 91t42.5 111zM943 671
q-25 -22 -62.5 -90.5t-50.5 -111.5q27 14 70 91t43 111zM489 671q-28 -26 -61 -86t-43 -96q34 26 69 86t35 96zM77 116q1 2 105 175q-14 10 -18 10t-13 -10q-58 -73 -79 -173q0 -2 2 -2.5t3 0.5z" />
    <glyph glyph-name="oll.liga" unicode="oll" horiz-adv-x="827" 
d="M886 227q40 -24 16 -65q-33 -56 -84.5 -112.5t-99.5 -86.5q-40 -26 -83.5 -4t-44.5 70q-1 46 3 94q-84 -114 -140 -160q-18 -15 -40.5 -16t-41.5 9t-32.5 30t-13.5 43q-2 86 12 175q-30 -27 -59 -49q-22 -73 -80 -139q-26 -29 -62.5 -44.5t-74 -8t-59.5 42.5
q-32 49 -16 128q1 4 2 7q12 29 4 74q-10 58 28 112.5t94 69.5q69 18 117.5 -18.5t58.5 -103.5q46 43 84 89q44 143 126 288q20 35 49.5 69t57.5 51q33 20 63.5 9.5t41.5 -46.5q11 -40 8.5 -78t-20.5 -77t-42 -73t-56 -66.5t-62.5 -57.5t-60.5 -45q-15 -10 -21 -29
q-31 -112 -38 -231q0 -13 5 -17t13 3q106 118 190 260q44 163 137 328q20 35 49.5 69t57.5 51q33 20 63.5 9.5t42.5 -46.5q10 -40 7.5 -78t-20.5 -77t-42 -73t-56 -66.5t-62.5 -57.5t-60.5 -45q-15 -10 -21 -29q-31 -112 -38 -231q0 -13 5 -17t13 3q53 44 113 129q1 2 6 9
t7 9.5t6.5 8.5t7.5 7.5t8.5 4.5t10.5 2.5t11 -2t13 -5.5zM890 671q-25 -22 -63 -90.5t-50 -110.5q27 13 70 90t43 111zM624 671q-24 -22 -62 -90.5t-50 -110.5q27 13 69.5 90t42.5 111zM112 201q-9 -10 -5 -23q0 -1 0.5 -1.5t0.5 -1.5t1 -1q2 -5 7 -5h3q26 0 75 31
q3 12 4 22q1 19 1.5 41.5t-12 38.5t-36.5 11q-1 0 -24 -8q6 -6 6 -7q46 -33 4 -72q-8 -7 -25 -25zM100 54q19 13 36 31q-10 -1 -18 -1h-8q-20 1 -38 11q-1 -17 1 -29q1 -12 8.5 -15.5t18.5 3.5z" />
    <glyph glyph-name="os.liga" unicode="os" horiz-adv-x="607" 
d="M683 210q9 -21 -2.5 -38.5t-32.5 -27.5q-99 -48 -115 -57v-23q1 -53 -40.5 -90t-96.5 -35q-37 1 -54 27.5t-1 59.5q8 16 21.5 34t23.5 27.5t29 28.5q-47 37 -50 39q-16 14 -25 31q-36 -29 -69 -50q-24 -63 -73 -119q-26 -29 -62.5 -44.5t-74 -8t-59.5 41.5
q-32 49 -16 128q1 5 2 8q12 29 4 74q-10 58 28 112t94 69q75 20 125 -23.5t53 -117.5q41 34 80 75q1 0 2 1l1 1q37 47 86 79q14 11 34 10t31 -17q8 -11 8 -25.5t-8 -25.5q-13 -16 -43.5 -44t-43.5 -44q-26 -31 8 -60q3 -2 45 -36q11 6 47 23.5t55 26.5q69 33 89 -10zM100 55
q16 10 31 25h-5q-8 0 -15 1q-21 2 -39 13q-1 -16 1 -27q1 -13 8.5 -16t18.5 4zM198 222q1 19 1.5 42t-12 39t-36.5 11q-1 -1 -24 -9l6 -6q46 -33 4 -72q-8 -7 -25 -26q-9 -10 -5 -23l1 -2v-0.5t1 -1.5q4 -8 13 -9q24 -3 69 22q5 17 7 35z" />
    <glyph glyph-name="op.liga" unicode="op" horiz-adv-x="743" 
d="M770 268q17 -2 26 -16.5t6 -32.5q-5 -38 -44 -38q-53 0 -73 -9t-40 -47q-76 -148 -237 -124q-9 1 -9 -1q-69 -249 -110 -408q-5 -20 -13 -41q-7 -20 -21.5 -28.5t-30.5 -4.5q-19 4 -28 19.5t-4 35.5q9 41 39 158q33 134 122 487q-39 -35 -76 -62q-22 -74 -80 -139
q-20 -22 -48 -37t-59 -18t-58 13q-25 15 -38.5 43.5t-13.5 57.5t5 58q1 5 2 7q12 30 4 75q-10 58 28 112t94 69q69 19 118 -18t58 -104q63 56 108 114q12 16 33 19q23 4 38.5 -10t11.5 -37q36 30 89 39q60 11 93.5 -16t34.5 -78q0 -17 -3 -33q0 -3 1.5 -4.5t4.5 -1.5
q41 3 70 1zM99 55q20 13 38 32q-11 -2 -21 -2q-4 0 -8 1q-19 1 -37 10q-1 -17 1 -29q1 -13 8.5 -16t18.5 4zM197 222q1 19 1.5 42t-11.5 39t-37 11q-1 -1 -23 -9l5 -6q46 -33 4 -72q-8 -7 -25 -26q-9 -10 -5 -23l1 -2l0.5 -0.5t0.5 -1.5q2 -3 6 -3h3q26 0 77 31q2 11 3 20z
M418 62q40 2 80 28.5t54 58.5q-47 -4 -91 -31.5t-43 -55.5zM592 272q4 29 -8 36q-14 9 -37 -5q-63 -37 -87 -73q-3 -4 -2 -9q1 0 93 26q2 0 6.5 1.5t6.5 2l6 1.5t5.5 2t4.5 2.5t4.5 3l3.5 3.5t2.5 4.5t1.5 4.5z" />
    <glyph glyph-name="ss.liga" unicode="ss" horiz-adv-x="520" 
d="M596 210q9 -21 -2.5 -38.5t-32.5 -27.5q-98 -48 -115 -57v-23q1 -53 -40.5 -90t-96.5 -35q-36 1 -53.5 27.5t-1.5 59.5q8 16 22 34t23.5 27.5l28.5 28.5q-47 37 -49 39q-12 10 -21 22q-63 -61 -66 -64q18 -21 15 -50t-23 -58q-19 -29 -51.5 -47.5t-66.5 -18.5
q-36 0 -53.5 27t-1.5 60q8 16 22 34t23.5 27.5l28.5 28.5q-47 37 -49 39q-34 29 -36 67.5t20.5 74.5t51 65.5t59.5 49.5q15 10 34 9t31 -16q10 -14 10 -27.5t-10 -23.5q-9 -9 -28 -27t-33 -32.5t-26 -28.5q-6 -8 -8.5 -16t-0.5 -15.5t5 -13t10.5 -13t12 -11.5t14 -11
t12.5 -9q44 43 91 90l9 9q15 38 49.5 75t70.5 61q15 11 34.5 10t30.5 -17q8 -11 8 -25.5t-8 -25.5q-13 -16 -43.5 -44t-43.5 -44q-25 -31 9 -60q2 -2 44 -36q11 6 47 23.5t55 26.5q70 33 89 -10z" />
    <glyph glyph-name="oss.liga" unicode="oss" horiz-adv-x="846" 
d="M922 210q9 -21 -2.5 -38.5t-33.5 -27.5q-98 -48 -114 -57v-23q0 -53 -41.5 -90t-95.5 -35q-37 1 -54 27.5t-2 59.5q8 16 22 34t24 27.5t29 28.5q-47 37 -50 39q-12 10 -20 22q-63 -61 -66 -64q17 -21 14.5 -50t-22.5 -58q-19 -29 -52 -47.5t-66 -18.5q-37 0 -54 27t-2 60
q8 16 22 34t23.5 27.5t29.5 28.5q-47 37 -50 39q-15 13 -24 29q-34 -28 -66 -48q-24 -63 -73 -119q-26 -29 -62.5 -44.5t-74 -8t-59.5 41.5q-32 49 -16 128q1 5 2 8q12 29 4 74q-10 58 28 112t94 69q75 20 125 -23.5t53 -117.5q34 28 68 62q38 56 96 94q15 10 34 9t32 -16
q10 -14 10 -27.5t-10 -23.5q-9 -9 -28 -27t-33 -32.5t-26 -28.5q-7 -8 -9.5 -16t0 -15.5t5 -13t10.5 -13t12.5 -11.5t14 -11t11.5 -9q45 43 91 90q2 1 9 9q16 38 50.5 75t69.5 61q15 11 34.5 10t31.5 -17q8 -11 8 -25.5t-8 -25.5q-13 -16 -43.5 -44t-43.5 -44q-26 -31 8 -60
q3 -2 44 -36q11 6 47.5 23.5t55.5 26.5q69 33 89 -10zM100 55q16 10 31 25h-5q-8 0 -15 1q-21 2 -39 13q-1 -16 1 -27q1 -13 8.5 -16t18.5 4zM198 222q1 19 1.5 42t-12 39t-36.5 11q-1 -1 -24 -9l6 -6q46 -33 4 -72q-8 -7 -25 -26q-9 -10 -5 -23l1 -2v-0.5t1 -1.5
q4 -8 13 -9q24 -3 69 22q5 17 7 35z" />
    <glyph glyph-name="tt.liga" unicode="tt" horiz-adv-x="337" 
d="M692 640q18 0 34.5 1.5t28 -10.5t11.5 -39q0 -12 -4 -20.5t-8.5 -12.5t-14.5 -6.5t-15.5 -3t-17.5 -0.5q-63 -3 -340 -16q-7 -1 -10 -7q-32 -91 -52 -155q-37 -118 -57 -207.5t-20 -177.5q0 -24 20 -46q12 -13 9.5 -29.5t-15 -26.5t-28 -13.5t-30.5 8.5q-49 40 -46 141
q2 57 11.5 116t30 130t32 108t39.5 121q2 4 4 10t4.5 12.5t3.5 10.5q-8 0 -22.5 -1t-20.5 -1q-36 -2 -50 -43q-53 -158 -83 -278t-30 -219q0 -24 19 -46q13 -14 10.5 -30t-15 -26t-28.5 -13.5t-30 8.5q-49 40 -46 141q2 43 7.5 85.5t19.5 98t20 80t28 96.5t26 82
q7 27 -1.5 38.5t-35.5 9.5q-36 -3 -102 -10.5t-88 -10.5q-14 -1 -26 -0.5t-21 9t-12 25.5q-4 22 6.5 36.5t29.5 17.5q26 4 86 10q25 3 213 22q6 15 16.5 46.5t20 56t19.5 45.5q9 17 25 24t33 1q17 -7 24.5 -23.5t0.5 -35.5q-4 -13 -18 -49t-20 -56q38 2 40 2q15 0 38 1
q20 57 49 136q6 18 23 24.5t34 0.5q17 -7 24.5 -23.5t1.5 -35.5q-12 -35 -29 -82q-2 -6 1 -10t9 -4q230 11 284 13z" />
    <glyph glyph-name="oh.liga" unicode="oh" horiz-adv-x="714" 
d="M604 397q34 8 58.5 -12t23.5 -54q-1 -25 -10 -53t-23.5 -63t-20.5 -50q-21 -63 -15 -104q3 -18 -2.5 -35.5t-18.5 -26.5q-17 -11 -37 -4.5t-27 25.5q-14 37 -8 82q4 25 11.5 51.5t18.5 59t16 49.5q0 2 -1.5 3t-2.5 -1q-66 -63 -132 -200q-3 -7 -15 -37t-21 -44
q-10 -16 -30.5 -20t-37 7t-15.5 31q1 86 17 178q-31 -25 -61 -44q-24 -62 -73 -118q-26 -29 -62.5 -44.5t-74 -8t-59.5 41.5q-32 49 -16 128q1 5 2 8q12 29 4 74q-10 58 28 112t94 69q74 20 124.5 -23.5t53.5 -116.5q41 36 74 75q48 172 132 320q50 89 103 120q33 20 63 9.5
t42 -46.5q31 -94 -62 -227q-55 -79 -172 -170q-6 -4 -10.5 -10.5t-7.5 -15.5t-5 -14.5t-4.5 -17t-3.5 -14.5q-1 -8 2 -8q4 5 10.5 13t7.5 10q25 32 41 49.5t44.5 38.5t57.5 28zM618 671q-25 -22 -62.5 -90.5t-49.5 -111.5q27 14 69.5 91t42.5 111zM100 55q16 11 31 25h-5
q-5 0 -10 1q-24 2 -44 13q-1 -16 1 -27q1 -13 8.5 -16t18.5 4zM198 222q1 19 1.5 42t-12 39t-36.5 11q-1 -1 -24 -9l6 -6q46 -33 4 -72q-8 -7 -25 -26q-9 -10 -5 -23l0.5 -1l0.5 -1v-0.5t1 -1.5q4 -8 14 -8q25 -2 68 20q5 18 7 36z" />
    <glyph glyph-name="ch.liga" unicode="ch" horiz-adv-x="691" 
d="M581 397q34 8 58.5 -12t22.5 -54q-1 -25 -9.5 -53t-23.5 -63t-20 -50q-22 -63 -15 -104q2 -18 -3 -35.5t-18 -26.5q-17 -11 -37.5 -4.5t-27.5 25.5q-13 37 -7 82q4 25 11 51.5t18 59t16 49.5q1 2 -0.5 3t-2.5 -1q-66 -63 -132 -200q-3 -7 -15.5 -37t-21.5 -44
q-10 -16 -30 -20t-36.5 7t-16.5 31q1 55 8 115q-107 -136 -189 -136q-40 0 -69 21t-41 59q-21 65 1.5 142.5t71.5 133.5q25 29 58.5 46t70.5 11.5t61 -39.5q11 -17 11.5 -34t-15.5 -32q-46 -33 -65 6q0 1 -1 3l-1.5 3t-2 3t-2.5 3t-3 2t-5 1q-14 3 -38 -26q-48 -59 -57 -131
q-4 -33 8.5 -59.5t43.5 -17.5q10 3 24 13.5t27 23t30 32.5t29 35.5t28.5 38.5t25 35t21.5 31t14 22q49 186 139 346q51 89 103 120q34 20 64 9.5t42 -46.5q31 -94 -62 -227q-55 -79 -172 -170q-6 -4 -10.5 -10.5t-8 -15.5t-5 -14.5t-4 -17t-3.5 -14.5q-2 -8 1 -8
q4 5 10.5 13t7.5 10q26 32 41.5 49.5t44.5 38.5t58 28zM595 671q-25 -22 -62.5 -90.5t-50.5 -111.5q27 14 70 91t43 111z" />
    <glyph glyph-name="dh.liga" unicode="dh" horiz-adv-x="831" 
d="M722 397q33 8 58 -12t23 -54q-1 -25 -9.5 -53t-23.5 -63t-20 -50q-22 -63 -16 -104q3 -18 -2 -35.5t-19 -26.5q-17 -11 -37 -4.5t-27 25.5q-14 37 -7 82q3 25 10.5 51.5t18.5 59t16 49.5q0 2 -1.5 3t-2.5 -1q-66 -63 -132 -200q-3 -7 -15 -37t-21 -44q-10 -16 -30.5 -20
t-37 7t-15.5 31q1 64 10 131q-25 -35 -52 -69q-56 -72 -101 -93q-23 -11 -46.5 -5.5t-37.5 26.5q-6 9 -10.5 20.5t-6.5 20t-3.5 24t-1.5 21v24.5v21q-5 -8 -17.5 -30t-21 -35t-22 -30t-28.5 -27.5t-32 -14.5q-24 -5 -46 7.5t-31 35.5q-24 66 5.5 151.5t81.5 151.5
q19 25 40 40.5t49 21.5t56 -11q4 -3 13.5 -8t13.5 -7q11 27 11 29q44 125 94 218q8 15 14.5 26.5t19.5 32.5t24.5 36t27 33t31 27.5t31.5 15t32 -0.5t30 -23q33 -37 14 -117q-35 -146 -231 -296q-15 -11 -19 -28q-38 -139 -45 -198q-5 -44 3 -60q4 -8 9 -3q38 38 74 88.5
t118 182.5q49 173 133 322q50 89 103 120q33 20 63.5 9.5t41.5 -46.5q31 -94 -62 -227q-55 -79 -171 -170q-6 -4 -11 -10.5t-8 -15.5t-5 -14.5t-4.5 -17t-2.5 -14.5q-2 -8 1 -8q4 5 10.5 13t7.5 10q25 32 41 49.5t44.5 38.5t58.5 28zM735 671q-24 -22 -62 -90.5t-50 -111.5
q27 14 69.5 91t42.5 111zM489 671q-28 -26 -61 -86t-43 -96q34 26 69 86t35 96zM77 116q1 2 105 175q-14 10 -18 10t-13 -10q-58 -73 -79 -173q0 -2 2 -2.5t3 0.5z" />
    <glyph glyph-name="di.liga" unicode="di" horiz-adv-x="615" 
d="M663 235q17 -2 27 -18.5t0 -31.5q-46 -75 -93 -125q-30 -33 -67.5 -51.5t-72.5 -1.5q-39 18 -40 94q-13 -19 -27 -38q-49 -69 -101 -93q-23 -11 -46.5 -5.5t-37.5 26.5q-6 9 -10.5 20.5t-6.5 20t-3.5 24t-1.5 21v24.5v21q-4 -8 -17 -30t-21.5 -35t-22 -30t-28.5 -27.5
t-32 -14.5q-24 -5 -46 7.5t-31 35.5q-24 66 5.5 151.5t81.5 151.5q19 25 40 40.5t49 21.5t56 -11q4 -3 13.5 -8t13.5 -7q11 27 11 29q44 125 94 218q8 15 14.5 26.5t19.5 32.5t24.5 36t27 33t31 27.5t31.5 15t32 -0.5t30 -23q33 -37 14 -117q-35 -146 -231 -296
q-15 -11 -19 -28q-38 -139 -45 -198q-5 -45 4 -60q5 -7 12 1q53 53 170 253q12 20 40.5 19.5t41.5 -17.5q9 -11 3 -26q-32 -94 -46 -174q-2 -11 0 -19.5t10 -7.5q22 3 51 40q30 37 63 86q13 21 36 18zM489 671q-28 -26 -61 -86t-43 -96q34 26 69 86t35 96zM77 116
q1 2 105 175q-14 10 -18 10t-13 -10q-58 -73 -79 -173q0 -2 2 -2.5t3 0.5zM515 453q8 14 23 19t30 0q14 -5 22 -18t6 -28q-4 -25 -15 -48q-7 -15 -21.5 -21t-30.5 -1q-17 5 -26.5 19t-3.5 35q7 25 16 43z" />
    <glyph glyph-name="dih.liga" unicode="dih" horiz-adv-x="1035" 
d="M925 397q34 8 58.5 -12t22.5 -54q-1 -25 -9.5 -53t-23.5 -63t-20 -50q-22 -63 -15 -104q2 -18 -3 -35.5t-18 -26.5q-17 -11 -37.5 -4.5t-27.5 25.5q-13 37 -7 82q4 25 11 51.5t18 59t16 49.5q1 2 -0.5 3t-2.5 -1q-66 -63 -132 -200q-3 -7 -15.5 -37t-21.5 -44
q-10 -16 -30 -20t-36.5 7t-16.5 32q2 73 13 152q-21 -30 -38.5 -52.5t-44 -51t-52.5 -41.5t-48 -8q-42 11 -42 85q0 9 1 21q-15 -20 -34 -44q-13 -17 -27.5 -33t-37 -34.5t-42.5 -27t-41.5 -4.5t-36.5 27q-6 9 -10.5 20.5t-6.5 20t-3.5 24t-1.5 21v24.5v21q-5 -8 -17.5 -30
t-21 -35t-22 -30t-28.5 -27.5t-32 -14.5q-24 -5 -46 7.5t-31 35.5q-24 66 5.5 151.5t81.5 151.5q19 25 40 40.5t49 21.5t56 -11q4 -3 13.5 -8t13.5 -7q11 27 11 29q44 125 94 218q8 15 14.5 26.5t19.5 32.5t24.5 36t27 33t31 27.5t31.5 15t32 -0.5t30 -23q33 -37 14 -117
q-35 -146 -231 -296q-15 -11 -19 -28q-38 -139 -45 -198q-3 -29 3 -55q3 -14 9 -8q75 74 182 257q12 20 41 20t42 -18q8 -11 3 -26q-32 -94 -47 -174q-1 -9 5.5 -10.5t12.5 6.5q95 118 153 202q49 181 136 336q51 89 103 120q34 20 64 9.5t42 -46.5q31 -94 -62 -227
q-55 -79 -172 -170q-6 -4 -10.5 -10.5t-8 -15.5t-5 -14.5t-4 -17t-3.5 -14.5q-2 -8 1 -8q4 5 11 13t8 10q25 32 40.5 49.5t44.5 38.5t58 28zM939 671q-25 -22 -62.5 -90.5t-50.5 -111.5q28 14 70.5 91t42.5 111zM489 671q-28 -26 -61 -86t-43 -96q34 26 69 86t35 96zM77 116
q1 3 105 175q-14 10 -18 10t-13 -10q-58 -73 -79 -173q0 -2 2 -2.5t3 0.5zM524 453q7 14 22.5 19t30.5 0q14 -5 22 -18t6 -28q-4 -25 -16 -48q-7 -15 -21 -21t-30 -1q-17 5 -27 19t-4 35q7 25 17 43z" />
    <glyph glyph-name="ok.liga" unicode="ok" horiz-adv-x="703" 
d="M606 389q41 -5 59 -39t13 -74t-24 -69q-45 -64 -146 -105l-2 -2q4 -41 30 -68t65 -31q20 -2 33.5 -13t14.5 -30q2 -31 -25.5 -41.5t-58.5 -3.5q-83 20 -129 107q-9 16 -16 32q-2 6 -6 3q-1 -1 -1 -2q-1 -5 -2 -23q-4 -36 -11 -47q-10 -16 -30 -20t-36.5 7t-16.5 31
q2 92 19 191q-32 -28 -62 -49q-23 -67 -76 -126q-26 -29 -62.5 -44.5t-74 -8t-59.5 41.5q-32 49 -16 128q1 5 2 8q12 29 4 74q-10 58 28 112t94 69q72 19 121.5 -21t55.5 -110q45 41 81 86q47 162 125 300q20 35 49 69t58 51q33 20 63 9.5t42 -46.5q56 -171 -234 -397
q-13 -10 -20 -29q-3 -7 -6 -18q12 12 14 15q34 41 68.5 65t74.5 18zM621 671q-25 -22 -62.5 -90.5t-49.5 -110.5q27 13 69.5 90t42.5 111zM100 55q17 11 33 27h-10h-9q-22 2 -42 12q-1 -16 1 -27q1 -13 8.5 -16t18.5 4zM198 222q1 19 1.5 42t-12 39t-36.5 11q-1 -1 -24 -9
l6 -6q46 -33 4 -72q-8 -7 -25 -26q-9 -10 -5 -23l0.5 -1l0.5 -1v-0.5t1 -1.5q3 -6 11 -7q26 -2 72 25q4 16 6 30zM496 198q42 14 69 43.5t22 55.5q-19 -11 -36.5 -29.5t-26 -30t-28.5 -39.5z" />
    <glyph glyph-name="ck.liga" unicode="ck" horiz-adv-x="685" 
d="M588 389q40 -5 58 -39t13.5 -74t-24.5 -69q-44 -64 -146 -105l-2 -2q4 -41 30 -68t65 -31q20 -2 34 -13t15 -30q1 -31 -26.5 -41.5t-57.5 -2.5q-83 19 -130 106q-8 16 -15 32q-3 6 -7 3q-1 -1 -1 -2q0 -5 -2 -23q-3 -36 -10 -47q-10 -16 -30.5 -20t-37 7t-15.5 32
q1 61 8 124q-112 -146 -197 -146q-40 0 -69 21t-41 59q-21 65 1.5 142.5t71.5 133.5q25 29 58.5 46t70.5 11.5t61 -39.5q11 -17 11.5 -34t-15.5 -32q-46 -33 -65 6q0 1 -1 3l-1.5 3t-2 3t-2.5 3t-3 2t-5 1q-14 3 -38 -26q-48 -59 -57 -131q-4 -33 8.5 -59.5t43.5 -17.5
q12 3 27.5 15t33.5 31.5t33.5 38t34 44.5t29 41t26 37.5t16.5 24.5l8 12q48 181 134 333q20 35 49.5 69t57.5 51q33 20 63 9.5t42 -46.5q56 -171 -233 -397q-13 -10 -21 -29q-3 -7 -5 -18q11 12 13 15q34 41 69 65t75 18zM602 671q-25 -22 -62.5 -90.5t-49.5 -111.5
q27 14 69.5 91t42.5 111zM478 197q42 15 68.5 44.5t21.5 55.5q-18 -11 -36 -29.5t-26.5 -30t-27.5 -40.5z" />
    <glyph glyph-name="dik.liga" unicode="dik" horiz-adv-x="1030" 
d="M513 452q7 14 22 19.5t30 1.5q15 -5 23.5 -17.5t6.5 -28.5q-3 -24 -14 -48q-6 -15 -20.5 -21.5t-30.5 -2.5q-17 4 -27 18t-5 35q6 26 15 44zM933 389q40 -5 58 -39t13.5 -74t-24.5 -69q-44 -64 -146 -105l-2 -2q4 -41 30 -68t65 -31q20 -2 34 -13t15 -30
q1 -31 -26.5 -41.5t-57.5 -2.5q-83 19 -130 106q-8 16 -15 32q-3 6 -7 3q-1 -1 -1 -2q0 -5 -2 -23q-3 -36 -10 -47q-10 -16 -30.5 -20t-37 7t-15.5 32q1 83 15 172q-2 -3 -8 -11q-18 -26 -29.5 -42t-35.5 -44t-42 -43.5t-41 -26t-41 -6.5q-25 7 -37 32t-12 53v7
q-11 -15 -23 -30q-13 -17 -27.5 -33t-37 -34.5t-42 -27.5t-41.5 -4.5t-37 27.5q-6 9 -10.5 20.5t-6.5 20t-3.5 24t-1.5 21v24.5v21q-5 -8 -17.5 -30t-21 -35t-22 -30t-28.5 -27.5t-32 -14.5q-24 -5 -46 7.5t-31 35.5q-24 66 5.5 151.5t81.5 151.5q19 25 40 40.5t49 21.5
t56 -11q4 -3 13.5 -8t13.5 -7q11 27 11 29q44 125 94 218q8 15 14.5 26.5t19.5 32.5t24.5 36t27 33t31 27.5t31.5 15t32 -0.5t30 -23q33 -37 14 -117q-35 -146 -231 -296q-15 -11 -19 -28q-34 -123 -45 -198q-7 -49 4 -63q3 -5 8 0q35 34 83.5 108t88.5 148q11 21 43.5 21.5
t46.5 -18.5q8 -11 3 -26q-33 -94 -47 -174q-2 -9 5 -10.5t12 6.5q107 132 170 226q47 169 128 312q20 35 49.5 69t57.5 51q33 20 63 9.5t42 -46.5q56 -171 -233 -397q-13 -10 -21 -29q-3 -7 -5 -18q11 12 13 15q34 41 69 65t75 18zM947 671q-25 -22 -62.5 -90.5
t-49.5 -111.5q27 14 69.5 91t42.5 111zM489 671q-28 -26 -61 -86t-43 -96q34 26 69 86t35 96zM77 116q1 3 105 175q-14 10 -18 10t-13 -10q-58 -73 -79 -173q0 -2 2 -2.5t3 0.5zM823 198q42 14 68.5 43.5t21.5 55.5q-18 -11 -36 -29.5t-26.5 -30t-27.5 -39.5z" />
    <glyph glyph-name="gj.liga" unicode="gj" horiz-adv-x="576" 
d="M644 229q10 -12 11.5 -23.5t-5.5 -21t-13.5 -15.5t-18.5 -15q-84 -59 -144 -101q-19 -13 -24 -36q-34 -156 -86 -285q-64 -160 -127 -207q-45 -32 -93.5 -26.5t-82.5 41.5q-11 -11 -34 -24q-45 -27 -97.5 -13t-69.5 63q-10 26 -10 55.5t6 55.5t20.5 56.5t27.5 53.5
t34.5 52t35 46t33.5 42q76 91 185 196q2 19 1 19q-3 1 -16 -14q-6 -7 -23.5 -28t-27 -32t-25.5 -26t-31 -26q-39 -28 -76 -8q-61 32 -24 145q29 90 89 168q24 32 57.5 53.5t72.5 20.5t67 -35q17 -20 15 -39q0 -14 8 -20q21 -16 18 -48q-1 -9 -3 -35q74 67 121 105q8 7 12 10
t13 5.5t20 1.5q23 -2 29 -14t4 -34q-3 -37 -14 -126q76 52 86 59q55 37 79 4zM62 136q8 8 59 64.5t78 86.5q-11 17 -20.5 17t-20.5 -10q-3 -2 -6 -5q-49 -47 -90 -153zM23 -360q2 88 94 204q22 65 38 120q-212 -226 -217 -327q-1 -31 17 -42q31 -17 69 33q-1 6 -1 12z
M324 -108q9 28 17 60q-99 -86 -165.5 -170t-66.5 -143v-1q0 -18 8 -35t24 -22q32 -11 66 38q62 89 117 273zM370 86q9 45 18 102q-59 -52 -112 -103q-1 -6 -8 -40t-12 -54q55 49 114 95zM461 358q-18 1 -30.5 13t-11.5 34q2 26 7 45q4 15 17.5 23.5t29.5 6.5q15 -2 26 -12.5
t12 -26.5q1 -25 -5 -50q-3 -16 -16 -25t-29 -8z" />
    <glyph glyph-name="Ci.liga" unicode="Ci" horiz-adv-x="703" 
d="M751 235q17 -2 27 -18.5t0 -31.5q-46 -75 -93 -125q-30 -33 -67.5 -51.5t-72.5 -1.5q-39 18 -40 92q-94 -122 -198 -187q-47 -29 -99.5 -34t-103.5 20q-100 54 -104 209q-4 154 75 327q32 69 72 129.5t98 116.5t121 83q36 15 74.5 18.5t72.5 -6t59.5 -36.5t32.5 -68
q12 -71 -18 -149t-84 -131q-29 -29 -69.5 -41t-76.5 4t-47 62q-5 18 3 32.5t21.5 21t29.5 3t26 -17.5q1 -1 13 -21q25 7 46 31q31 37 52 86t14 91q-3 23 -18.5 35t-35 11.5t-40.5 -5.5q-72 -20 -136 -93q-176 -201 -194 -449q-2 -29 1.5 -59.5t14 -60.5t34 -46t56.5 -8
q41 8 81 32t73 54.5t69.5 76t63.5 85t62 93.5q14 23 42 27.5t46 -17.5q9 -11 3 -26q-32 -94 -46 -174q-2 -11 0 -19.5t10 -7.5q22 3 51 40q30 37 63 86q13 21 36 18zM587 410q7 25 16 43q8 14 23 19.5t30 -0.5q14 -5 22 -18t6 -28q-4 -25 -15 -48q-7 -15 -21.5 -21t-30.5 -1
q-17 5 -26.5 19t-3.5 35z" />
    <glyph glyph-name="Cil.liga" unicode="Cil" horiz-adv-x="967" 
d="M588 408q6 26 15 44q7 14 21.5 19.5t30.5 1.5q14 -5 22.5 -17.5t6.5 -28.5q-3 -24 -13 -48q-7 -15 -21 -21.5t-30 -2.5q-17 4 -27.5 18t-4.5 35zM1025 227q40 -24 16 -65q-33 -56 -84 -112.5t-99 -86.5q-41 -26 -84.5 -4t-44.5 70q-1 62 6 125q-22 -30 -39.5 -52.5
t-44 -51t-52.5 -41.5t-47 -8q-25 7 -37 32t-12 53v10q-93 -119 -196 -184q-47 -29 -99.5 -34t-103.5 20q-100 54 -104 209q-4 154 75 327q32 69 72 129.5t98 116.5t121 83q36 15 74.5 18.5t72.5 -6t59.5 -36.5t32.5 -68q12 -71 -18 -149t-84 -131q-29 -29 -69.5 -41t-76.5 4
t-47 62q-5 18 3 32.5t21.5 21t29.5 3t26 -17.5q1 -1 13 -21q25 7 46 31q31 37 52 86t14 91q-3 23 -18.5 35t-35 11.5t-40.5 -5.5q-72 -20 -136 -93q-176 -201 -194 -449q-2 -29 1.5 -59.5t14 -60.5t34 -46t56.5 -8q41 8 81 32t73 54.5t69.5 76t63.5 85t62 93.5q15 24 46 28
t49 -18q9 -11 3 -26q-32 -94 -46 -174q-2 -9 4.5 -10.5t12.5 6.5q91 112 148 194q43 170 142 344q19 35 48.5 69t57.5 51q34 20 64 9.5t42 -46.5q11 -40 8 -78t-21 -77t-42 -73t-56 -66.5t-62 -57.5t-61 -45q-15 -10 -20 -29q-32 -112 -38 -231q-1 -13 4 -17t13 3
q53 44 113 129q1 2 6 9t7 9.5t7 8.5t8 7.5t8.5 4.5t10 2.5t11 -2t12.5 -5.5zM1029 671q-25 -22 -62.5 -90.5t-50.5 -110.5q27 13 70 90t43 111z" />
    <glyph glyph-name="Cim.liga" unicode="Cim" horiz-adv-x="1308" 
d="M1268 504q25 13 45 -3.5t13 -43.5q-2 -6 -13 -33q-119 -279 -74 -444q6 -24 -21 -29q-31 -7 -54 19q-7 7 -11 17q-27 67 -8 176q0 3 1.5 11t2.5 14.5l1 6.5q-16 -23 -43.5 -66t-33.5 -52q-66 -99 -122 -76q-7 3 -12.5 6.5t-9.5 9t-6.5 10.5t-4.5 12.5t-3 12t-1.5 14
t-0.5 13v13.5v12q0 7 1 31q-2 -3 -8 -12.5t-9 -13.5q-5 -8 -20.5 -33t-25 -38t-26.5 -29t-35 -22q-40 -13 -62.5 18.5t-17.5 69.5q4 27 10 58q-107 -147 -168 -132q-25 7 -37 32t-12 53v10q-93 -119 -196 -184q-47 -29 -99.5 -34t-103.5 20q-100 54 -104 209q-4 154 75 327
q32 69 72 129.5t98 116.5t121 83q36 15 74.5 18.5t72.5 -6t59.5 -36.5t32.5 -68q12 -71 -18 -149t-84 -131q-29 -29 -69.5 -41t-76.5 4t-47 62q-5 18 3 32.5t21.5 21t29.5 3t26 -17.5q1 -1 13 -21q25 7 46 31q31 37 52 86t14 91q-3 23 -18.5 35t-35 11.5t-40.5 -5.5
q-72 -20 -136 -93q-176 -201 -194 -449q-2 -29 1.5 -59.5t14 -60.5t34 -46t56.5 -8q41 8 81 32t73 54.5t69.5 76t63.5 85t62 93.5q14 23 45.5 27.5t50.5 -17.5q8 -11 3 -26q-33 -94 -47 -174q-2 -9 4.5 -10.5t12.5 6.5q111 137 162 214q1 1 2 3q11 21 36.5 26t44 -9.5
t10.5 -40.5l-18.5 -55.5t-20.5 -62.5q-10 -33 -6 -32q1 0 3 2q3 5 15 24q93 142 96 147q1 2 7 11l8 12t8 11.5t9.5 12t9.5 10t10.5 10t11 7t12.5 5.5q24 9 41.5 -6t14.5 -41q-1 -13 -13 -51q-7 -26 -22 -74t-22 -70q-4 -12 -6 -24q-2 -6 0 -6.5t6 3.5q6 8 16 24
q193 294 194 295q23 35 44 45zM587 410q7 25 16 43q8 14 23 19t30 0q14 -5 22 -18t6 -28q-4 -25 -15 -48q-7 -15 -21.5 -21t-30.5 -1q-17 5 -26.5 19t-3.5 35z" />
    <glyph glyph-name="Cin.liga" unicode="Cin" horiz-adv-x="1125" 
d="M586 410q7 25 17 43q7 14 22.5 19t30.5 0q14 -5 22 -18t6 -28q-4 -25 -15 -48q-8 -15 -22 -21t-30 -1q-17 5 -27 19t-4 35zM1130 501q20 -16 11 -47q-1 -4 -12 -30q-53 -125 -76 -232t0 -206q1 -6 -3 -11q-17 -19 -40 -15t-37 24q-19 29 -20 87q-1 47 9 93q0 1 5 28
q-10 -12 -15 -19q-8 -12 -22.5 -35t-26.5 -41.5t-23 -34.5q-20 -29 -40 -45q-37 -31 -71.5 -19t-45.5 59q-7 34 -2 79q-108 -150 -170 -135q-24 7 -36 32t-12 53v10q-93 -120 -196 -184q-47 -29 -99.5 -34t-103.5 20q-100 54 -104 209q-4 154 75 327q32 69 72 129.5
t98 116.5t121 83q36 15 74.5 18.5t72.5 -6t59.5 -36.5t32.5 -68q12 -71 -18 -149t-84 -131q-29 -29 -69.5 -41t-76.5 4t-47 62q-5 18 3 32.5t21.5 21t29.5 3t26 -17.5q1 -1 13 -21q25 7 46 31q31 37 52 86t14 91q-3 23 -18.5 35t-35 11.5t-40.5 -5.5q-72 -20 -136 -93
q-176 -201 -194 -449q-2 -29 1.5 -59.5t14 -60.5t34 -46t56.5 -8q41 8 81 32t73 54.5t69.5 76t63.5 85t62 93.5q12 19 26 24q18 7 39 2.5t30 -16.5q9 -11 3 -26q-32 -94 -46 -174q-2 -9 4.5 -10.5t12.5 6.5q109 135 160 211q3 6 8 11q1 1 2 1l1 1l3 3q14 10 32 10.5t33 -8.5
q12 -7 16.5 -20t0.5 -26q-39 -125 -40 -129q-5 -17 -7 -28q0 -2 1.5 -3t2.5 1q4 3 20 27q179 274 191 292q50 76 91 44z" />
    <glyph glyph-name="Cir.liga" unicode="Cir" horiz-adv-x="1108" 
d="M1094 214q23 -14 9 -47q-9 -25 -37 -26.5t-47 13.5q-35 25 -50 75q-4 15 -7 33q-2 -3 -4 -8t-4 -9l-3 -6q-4 -12 -21.5 -55.5t-29.5 -71t-25.5 -53.5t-41 -43.5t-55.5 -12.5q-26 5 -40 29t-14 50.5t1 50.5q0 2 0.5 5.5t0.5 4.5q-112 -157 -175 -142q-25 7 -37 32t-12 53
v9q-92 -119 -195 -183q-47 -29 -99.5 -34t-103.5 20q-100 54 -104 209q-4 154 75 327q32 69 72 129.5t98 116.5t121 83q36 15 74.5 18.5t72.5 -6t59.5 -36.5t32.5 -68q12 -71 -18 -149t-84 -131q-29 -29 -69.5 -41t-76.5 4t-47 62q-5 18 3 32.5t21.5 21t29.5 3t26 -17.5
q1 -1 13 -21q25 7 46 31q31 37 52 86t14 91q-3 23 -18.5 35t-35 11.5t-40.5 -5.5q-72 -20 -136 -93q-176 -201 -194 -449q-2 -29 1.5 -59.5t14 -60.5t34 -46t56.5 -8q41 8 81 32t73 54.5t69.5 76t63.5 85t62 93.5q14 24 45 28.5t50 -18.5q8 -11 3 -26q-33 -94 -47 -174
q-1 -9 5.5 -10.5t11.5 6.5q7 8 29 35.5t31.5 39t28.5 36t30 40t25 36.5t24 40q12 20 28.5 27.5t34.5 -0.5q17 -9 22 -26.5t-3 -39.5q-6 -16 -36 -108q-2 -6 -4 -10q0 -4 2 -4.5t3 2.5q11 30 21 51q45 93 69 137q16 30 42 49.5t59 17.5q25 -2 39 -20.5t8 -43.5q0 -2 -2.5 -14
t-3 -15t-2.5 -13.5t-2.5 -15l-1.5 -13.5t-1 -15t0.5 -14t1.5 -15q1 -11 8 -20t12 -12.5t18 -11.5zM586 410q7 25 16 43q8 14 23 19t30 0q14 -5 22.5 -18t5.5 -28q-4 -25 -15 -48q-7 -15 -21.5 -21t-30.5 -1q-17 5 -26.5 19t-3.5 35z" />
    <glyph glyph-name="Cill.liga" unicode="Cill" horiz-adv-x="1238" 
d="M588 408q6 26 14 44q8 14 22.5 19.5t30.5 1.5q14 -5 22.5 -17.5t6.5 -28.5q-3 -24 -13 -48q-7 -15 -21 -21.5t-30 -2.5q-17 4 -27.5 18t-4.5 35zM1297 227q40 -24 15 -65q-32 -56 -83.5 -112.5t-99.5 -86.5q-40 -26 -83.5 -4t-44.5 70q-1 46 3 94q-84 -114 -140 -160
q-18 -15 -40.5 -16t-41.5 9t-32.5 30t-13.5 43q-2 67 6 136q-18 -27 -29 -41.5t-35.5 -44t-42.5 -45t-41.5 -26.5t-42.5 -7q-24 7 -36 32t-12 53v10q-93 -120 -196 -184q-47 -29 -99.5 -34t-103.5 20q-100 54 -104 209q-4 154 75 327q32 69 72 129.5t98 116.5t121 83
q36 15 74.5 18.5t72.5 -6t59.5 -36.5t32.5 -68q12 -71 -18 -149t-84 -131q-29 -29 -69.5 -41t-76.5 4t-47 62q-5 18 3 32.5t21.5 21t29.5 3t26 -17.5q1 -1 13 -21q25 7 46 31q31 37 52 86t14 91q-3 23 -18.5 35t-35 11.5t-40.5 -5.5q-72 -20 -136 -93q-176 -201 -194 -449
q-2 -29 1.5 -59.5t14 -60.5t34 -46t56.5 -8q41 8 81 32t73 54.5t69.5 76t63.5 85t62 93.5q12 19 26 24q18 7 39 2.5t30 -16.5q9 -11 3 -26q-32 -94 -46 -174q-2 -9 4.5 -10.5t12.5 6.5q98 121 158 209q44 163 138 329q20 35 49 69t58 51q33 20 63 9.5t42 -46.5
q11 -40 8.5 -78t-21 -77t-42.5 -73t-56 -66.5t-62 -57.5t-61 -45q-15 -10 -20 -29q-31 -112 -38 -231q-1 -13 4.5 -17t13.5 3q106 118 190 260q44 163 137 328q20 35 49.5 69t57.5 51q33 20 63.5 9.5t41.5 -46.5q11 -40 8.5 -78t-20.5 -77t-42 -73t-56 -66.5t-62.5 -57.5
t-60.5 -45q-15 -10 -21 -29q-31 -112 -38 -231q0 -13 5 -17t13 3q53 44 113 129q1 2 6 9t6.5 9.5t6.5 8.5t8 7.5t8.5 4.5t10.5 2.5t11 -2t13 -5.5zM1300 671q-24 -22 -62 -90.5t-50 -110.5q27 13 69.5 90t42.5 111zM1035 671q-25 -22 -62.5 -90.5t-49.5 -110.5
q27 13 69.5 90t42.5 111z" />
    <glyph glyph-name="Ch.liga" unicode="Ch" horiz-adv-x="914" 
d="M804 397q34 8 58.5 -12t22.5 -54q-1 -25 -9.5 -53t-23.5 -63t-20 -50q-22 -63 -16 -104q3 -18 -2 -35.5t-19 -26.5q-16 -11 -36.5 -4.5t-27.5 25.5q-14 37 -7 82q3 25 10.5 51.5t18.5 59t16 49.5q0 2 -1.5 3t-2.5 -1q-66 -63 -132 -200q-3 -7 -15 -37t-21 -44
q-10 -16 -30.5 -20t-36.5 7t-16 32q1 59 9 121q-109 -144 -216 -211q-47 -29 -99.5 -34t-103.5 20q-100 54 -104 209q-4 154 75 327q32 69 72 129.5t98 116.5t121 83q36 15 74.5 18.5t72.5 -6t59.5 -36.5t32.5 -69q12 -70 -18 -148t-84 -132q-29 -29 -69.5 -40.5t-76.5 4.5
t-47 62q-5 17 3 32t21.5 21t29.5 3t26 -17q6 -8 13 -21q2 -3 5 -3.5t7.5 2.5t8.5 6t9.5 9t8 9t7.5 8q31 37 52 86t14 91q-3 23 -18.5 35t-35 11.5t-40.5 -5.5q-72 -20 -136 -93q-176 -201 -194 -449q-2 -29 1.5 -59.5t14 -60.5t34 -46t56.5 -9q40 9 82.5 36.5t77 61t76 86
t68.5 91t65 96.5q48 169 131 315q50 89 103 120q33 20 63.5 9.5t42.5 -46.5q30 -94 -62 -227q-56 -79 -172 -170q-6 -4 -11 -10.5t-8 -15.5t-4.5 -14.5t-4 -17t-3.5 -14.5q-2 -8 1 -8q4 5 10.5 13t7.5 10q25 32 41 49.5t45 38.5t58 28zM818 671q-25 -22 -63 -90.5
t-50 -110.5q27 13 70 90t43 111z" />
    <glyph glyph-name="Cl.liga" unicode="Cl" horiz-adv-x="755" 
d="M813 227q40 -24 16 -65q-33 -56 -84 -112.5t-99 -86.5q-41 -26 -84.5 -4t-44.5 70q-1 44 3 90q-107 -141 -213 -207q-47 -29 -99.5 -34t-103.5 20q-100 54 -104 209q-4 154 75 327q32 69 72 129.5t98 116.5t121 83q36 15 74.5 18.5t72.5 -6t59.5 -36.5t32.5 -68
q12 -71 -18 -149t-84 -131q-29 -29 -69.5 -41t-76.5 4t-47 62q-5 17 3 32t21.5 21t29.5 3t26 -17q1 -1 13 -21q25 7 46 31q31 37 52 86t14 91q-3 23 -18.5 35t-35 11.5t-40.5 -5.5q-72 -20 -136 -93q-176 -201 -194 -449q-2 -29 1.5 -59.5t14 -60.5t34 -46t56.5 -8
q39 8 79.5 33.5t74 57t72.5 80t66.5 87t63.5 92.5q44 166 140 335q19 35 48.5 69t57.5 51q34 20 64 9.5t42 -46.5q11 -40 8 -78t-21 -77t-42 -73t-56 -66.5t-62 -57.5t-61 -45q-15 -10 -20 -29q-32 -112 -38 -231q-1 -13 4 -17t13 3q53 44 113 129q1 2 6 9t7 9.5t7 8.5
t8 7.5t8.5 4.5t10 2.5t11 -2t12.5 -5.5zM817 671q-25 -22 -62.5 -90.5t-50.5 -111.5q27 14 70 91t43 111z" />
    <glyph glyph-name="Er.liga" unicode="Er" horiz-adv-x="843" 
d="M829 214q23 -14 9 -47q-9 -25 -37 -26.5t-47 13.5q-35 25 -50 75q-4 15 -7 33q-2 -3 -4 -8t-4 -9l-3 -6q-4 -12 -21.5 -55.5t-29.5 -71t-25.5 -53.5t-41 -43.5t-55.5 -12.5q-26 5 -40 29t-14 50.5t1 50.5q0 1 2 15q-99 -111 -202 -198q-102 -85 -179 -69q-31 7 -52 28.5
t-26 52.5q-20 113 104 252l19 21q-78 38 -65 138q13 97 78.5 189.5t154 159t165.5 62.5q39 -2 66 -26.5t33 -63.5q13 -88 -50 -168q-12 -15 -28 -30t-37.5 -30t-41.5 -14t-33 23q-8 14 -5 30t16 27q4 3 11 7.5t10 6.5q57 43 67 105q5 25 -11.5 35t-38.5 6t-38 -14
q-152 -98 -216 -267q-6 -13 -9.5 -29t-4.5 -34.5t8.5 -28t29.5 -4.5q36 8 81 41q23 16 45 5q29 -14 31 -46t-27 -46q-90 -44 -155 -118q-36 -41 -59 -89t-10 -88q18 -52 169 85q141 129 264 295q9 13 24.5 16.5t29.5 -2.5q17 -9 22 -26.5t-3 -39.5q-6 -16 -36 -108
q-2 -6 -4 -10q0 -4 2 -4.5t3 2.5q11 31 21 51q45 93 69 137q16 30 42 49.5t59 17.5q25 -2 39 -20.5t8 -43.5q-1 -4 -4 -19t-4 -20.5t-3.5 -19t-2 -20t1 -18t3.5 -18.5t7 -16t11.5 -15.5t17.5 -12.5z" />
    <glyph glyph-name="Em.liga" unicode="Em" horiz-adv-x="1037" 
d="M997 504q25 13 45 -3.5t12 -43.5q-1 -6 -12 -33q-119 -279 -74 -444q6 -24 -21 -29q-31 -7 -54 19q-7 7 -11 17q-27 67 -8 176q0 3 1.5 11t2.5 14.5l1 6.5q-16 -23 -43.5 -66t-33.5 -52q-66 -99 -122 -76q-7 3 -12.5 6.5t-9.5 9t-6.5 10.5t-4.5 12.5t-3 12t-1.5 14
t-0.5 13v13.5v12q0 7 1 31q-2 -4 -8.5 -13t-8.5 -13q-5 -8 -20.5 -33t-25 -38t-26.5 -29t-35 -22q-40 -13 -62.5 18.5t-17.5 69.5q3 26 9 56q-86 -95 -188 -181q-102 -85 -179 -69q-31 7 -52 28.5t-26 52.5q-20 113 104 252l19 21q-78 38 -65 138q13 97 78.5 189.5t154 159
t165.5 62.5q39 -2 66 -26.5t33 -63.5q13 -88 -50 -168q-12 -15 -28 -30t-37.5 -30t-41.5 -14t-33 23q-8 14 -5 30t16 27q4 3 11 7.5t10 6.5q57 43 67 105q5 25 -11.5 35t-38.5 6t-38 -14q-152 -98 -216 -267q-6 -13 -9.5 -29t-4.5 -34.5t8.5 -28t29.5 -4.5q36 8 81 41
q23 16 45 5q29 -14 31 -46t-27 -46q-90 -44 -155 -118q-36 -41 -59 -89t-10 -88q18 -52 169 85q51 47 71 65.5t58 56.5t64.5 73t52.5 75q13 21 38.5 26.5t43 -8t9.5 -40.5l-18.5 -55.5t-20.5 -62.5q-10 -33 -6 -32q1 0 2 2q4 5 16 24q93 142 96 147q1 2 7 11l8 12t8 11.5
t9.5 12t9 10t10.5 10t11.5 7t12.5 5.5q24 9 41.5 -6t14.5 -41q-1 -13 -13 -51q-8 -26 -22.5 -74t-21.5 -70q-4 -12 -6 -24q-2 -6 0 -6.5t6 3.5q6 8 16 24q21 32 60.5 92.5t72 110t61.5 92.5q23 35 44 45z" />
    <glyph glyph-name="En.liga" unicode="En" horiz-adv-x="854" 
d="M860 501q20 -16 11 -47q-1 -4 -12 -30q-53 -125 -76.5 -232t-0.5 -206q2 -6 -2 -11q-18 -19 -40.5 -15t-36.5 24q-20 29 -21 87q0 47 9 93q1 1 5 28q-9 -12 -14 -19q-8 -12 -22.5 -35t-27 -41.5t-23.5 -34.5q-20 -29 -40 -45q-37 -31 -71.5 -19t-44.5 59q-7 33 -2 76
q-86 -94 -191 -183q-102 -85 -179 -69q-31 7 -52 28.5t-26 52.5q-20 113 104 252l19 21q-78 38 -65 138q13 97 78.5 189.5t154 159t165.5 62.5q39 -2 66 -26.5t33 -63.5q13 -88 -50 -168q-12 -15 -28 -30t-37.5 -30t-41.5 -14t-33 23q-8 14 -5 30t16 27q4 3 11 7.5t10 6.5
q57 43 67 105q5 25 -11.5 35t-38.5 6t-38 -14q-152 -98 -216 -267q-6 -13 -9.5 -29t-4.5 -34.5t8.5 -28t29.5 -4.5q36 8 81 41q23 16 45 5q29 -14 31 -46t-27 -46q-90 -44 -155 -118q-36 -41 -59 -89t-10 -88q18 -52 169 85q33 30 70 69t57.5 62.5t65 76.5t57.5 68
q12 14 34.5 16t37.5 -8q11 -7 16 -20t0 -26q-38 -125 -40 -129q-5 -17 -6 -28q-1 -2 1 -3t3 1q3 3 19 27q180 274 192 292q50 76 91 44z" />
    <glyph glyph-name="lf.liga" unicode="lf" horiz-adv-x="484" 
d="M583 242q3 -17 -7 -30.5t-27 -18.5q-44 -14 -91.5 -43t-76.5 -63q53 -88 66.5 -206.5t-23.5 -179.5q-29 -48 -80 -48q-5 0 -10 1q-44 4 -69 43q-64 95 16 449q-50 -64 -89.5 -108t-83.5 -75q-52 -37 -90 -12t-38 96q0 268 136 544q31 63 66 109.5t82 71.5q30 19 61.5 10
t41.5 -47q16 -56 -1 -117t-56.5 -113.5t-84 -94t-91.5 -72.5q-15 -10 -21 -29q-31 -112 -38 -231q-1 -38 43 11q2 2 5 5.5t4 4.5q189 202 246 400q20 68 44 144q5 17 20.5 25.5t32.5 3.5t25 -21t3 -33q-76 -250 -116 -413q76 58 152 72q17 3 31.5 -7t17.5 -28zM279 671
q-24 -22 -62 -90.5t-50 -111.5q27 14 70 91t42 111zM351 -255q18 25 14.5 98.5t-29.5 141.5q-31 -194 0 -241q3 -5 7 -5.5t8 6.5z" />
    <glyph glyph-name="alf.liga" unicode="alf" horiz-adv-x="899" 
d="M998 242q3 -17 -7 -30.5t-27 -18.5q-44 -14 -91.5 -43t-76.5 -63q53 -88 66.5 -206.5t-23.5 -179.5q-29 -48 -80 -48q-5 0 -10 1q-44 4 -69 43q-64 95 16 449q-50 -64 -89.5 -108t-83.5 -75q-53 -37 -90.5 -12t-37.5 96q0 23 1 53q-1 -2 -1 -3q-27 -42 -42 -63
q-20 -25 -47 -36t-52 -5.5t-40 25.5q-11 14 -16.5 36t-6.5 33t-2 40q-20 -24 -21 -25q-3 -3 -22 -25.5t-27.5 -31t-25.5 -21.5t-33 -19q-31 -12 -57 4t-31 49q-9 57 32 149q31 71 80 128q25 29 56.5 45.5t67 13t61.5 -33.5q3 -4 5.5 -8.5t4 -7t2.5 -8.5t1.5 -8t1 -9.5
t0.5 -8.5q1 -6 13.5 -19t10.5 -23q-5 -27 -15 -77l-14 -70q-6 -34 1 -40q1 -1 3 0q13 10 51 73q17 28 46.5 80.5t40.5 70.5q9 15 9 16q35 136 101 270q31 63 66 109.5t82 71.5q30 19 61.5 10t41.5 -47q15 -56 -2 -117t-56.5 -113.5t-83.5 -94t-91 -72.5q-15 -10 -21 -29
q-31 -112 -38 -231q-1 -38 43 11q2 2 5 5.5t4 4.5q189 202 246 400q20 68 44 144q5 17 20.5 25.5t32.5 3.5t25 -21t3 -33q-76 -250 -116 -413q76 58 151 72q18 3 32.5 -7t17.5 -28zM694 671q-24 -22 -62 -90.5t-50 -111.5q27 14 69.5 91t42.5 111zM76 136q20 22 42.5 47
t50 55.5t42.5 47.5q-9 18 -19 18.5t-21 -10.5q-57 -45 -96 -153q-1 -4 1 -5zM766 -255q18 25 14.5 98.5t-29.5 141.5q-31 -194 0 -241q3 -5 7 -5.5t8 6.5z" />
    <glyph glyph-name="ilf.liga" unicode="ilf" horiz-adv-x="724" 
d="M108 355q-18 4 -28 18t-5 35q6 26 15 44q7 14 22 19.5t30 1.5q15 -5 23.5 -17.5t6.5 -28.5q-3 -24 -14 -48q-6 -15 -20.5 -21.5t-29.5 -2.5zM823 242q3 -17 -7 -30.5t-28 -18.5q-43 -14 -90.5 -43t-76.5 -63q53 -88 66.5 -206.5t-23.5 -179.5q-29 -48 -80 -48q-5 0 -10 1
q-44 4 -69 43q-64 95 16 449q-50 -64 -90 -108t-83 -75q-53 -37 -90.5 -12t-37.5 96q0 55 6 113q-17 -25 -29.5 -41.5t-35.5 -43.5t-41 -42.5t-40.5 -25.5t-40.5 -6q-25 7 -37 32t-12 53q0 92 47 225q6 16 25 22t38.5 1t28.5 -16q8 -11 3 -26q-33 -94 -47 -174
q-1 -9 5.5 -10.5t11.5 6.5q93 115 151 198q35 141 103 279q31 63 66 109.5t82 71.5q30 19 61.5 10t41.5 -47q15 -56 -2 -117t-56.5 -113.5t-83.5 -94t-92 -72.5q-15 -10 -20 -29q-31 -112 -38 -231q-2 -38 43 11q1 2 4.5 5.5l4.5 4.5q189 202 246 400q20 68 43 144
q6 17 21.5 25.5t32.5 3.5t25 -21t3 -33q-76 -250 -116 -413q76 58 151 72q18 3 32.5 -7t17.5 -28zM519 671q-25 -22 -62.5 -90.5t-49.5 -110.5q27 13 69.5 90t42.5 111zM591 -255q18 25 14 98.5t-29 141.5q-32 -194 0 -241q3 -5 7 -5.5t8 6.5z" />
    <glyph glyph-name="elf.liga" unicode="elf" horiz-adv-x="835" 
d="M934 242q3 -17 -7 -30.5t-28 -18.5q-43 -14 -90.5 -43t-76.5 -63q53 -88 66 -206.5t-24 -179.5q-29 -48 -79 -48q-5 0 -10 1q-44 4 -70 43q-63 95 16 449q-49 -64 -89 -108t-83 -75q-53 -37 -91 -12t-38 96q0 39 4 81q-123 -161 -237 -149q-35 4 -59.5 24.5t-34 49
t-13 62t4.5 63.5q16 85 65 151q36 47 77 64q29 13 56 7.5t47.5 -21t30 -42t2.5 -56.5q-14 -52 -62.5 -92t-106.5 -57q-3 -1 -9.5 -3t-9.5 -3l-4 -3q-2 -70 63 -52q25 7 58 38.5t67.5 77t56 76t41.5 62.5q35 134 100 266q31 63 65.5 109.5t82.5 71.5q30 19 61.5 10t41.5 -47
q15 -56 -2 -117t-56.5 -113.5t-83.5 -94t-92 -72.5q-15 -10 -20 -29q-32 -112 -38 -231q-2 -38 42 11q2 2 5 5.5t4 4.5q189 202 247 400q20 68 43 144q5 17 21 25.5t32.5 3.5t25 -21t3.5 -33q-77 -250 -117 -413q77 58 152 72q18 3 32.5 -7t17.5 -28zM630 671
q-25 -22 -62.5 -90.5t-49.5 -110.5q27 13 69.5 90t42.5 111zM161 308q-34 -24 -52 -74q48 20 70 59q7 11 2 18q-6 7 -17 -2q-2 -1 -3 -1zM702 -255q18 25 14 98.5t-30 141.5q-31 -194 0 -241q4 -5 7.5 -5.5t8.5 6.5z" />
    <glyph glyph-name="olf.liga" unicode="olf" horiz-adv-x="817" 
d="M916 242q3 -17 -7 -30.5t-27 -18.5q-44 -14 -91.5 -43t-76.5 -63q53 -88 66.5 -206.5t-23.5 -179.5q-29 -48 -80 -48q-5 0 -10 1q-44 4 -69 43q-64 95 16 449q-50 -64 -89.5 -108t-83.5 -75q-53 -37 -90.5 -12t-37.5 96t10 145q-23 -20 -45 -36q-22 -74 -80 -139
q-26 -29 -62.5 -44.5t-74 -8t-59.5 41.5q-32 49 -16 128q1 5 2 8q12 29 4 74q-10 58 28 112t94 69q69 19 117.5 -18t58.5 -103q33 30 64 65q34 126 95 250q31 63 66 109.5t82 71.5q30 19 61.5 10t41.5 -47q15 -56 -2 -117t-56.5 -113.5t-83.5 -94t-91 -72.5q-15 -10 -21 -29
q-31 -112 -38 -231q-1 -38 43 11q2 2 5 5.5t4 4.5q189 202 246 400q20 68 44 144q5 17 20.5 25.5t32.5 3.5t25 -21t3 -33q-76 -250 -116 -413q76 58 152 72q17 3 31.5 -7t17.5 -28zM612 671q-24 -22 -62 -90.5t-50 -111.5q27 14 69.5 91t42.5 111zM100 55q19 13 36 31
q-10 -2 -18 -2q-4 0 -8 1q-20 1 -38 10q-1 -16 1 -28q1 -13 8.5 -16t18.5 4zM198 222q1 19 1.5 42t-12 39t-36.5 11q-1 -1 -24 -9l6 -6q46 -33 4 -72q-8 -7 -25 -25q-6 -6 -6 -19t10 -13q26 -2 78 31q3 11 4 21zM684 -255q18 25 14.5 98.5t-29.5 141.5q-31 -194 0 -241
q3 -5 7 -5.5t8 6.5z" />
    <glyph glyph-name="Eh.liga" unicode="Eh" horiz-adv-x="859" 
d="M749 397q34 8 58.5 -12t22.5 -54q-1 -25 -9.5 -53t-23.5 -63t-20 -50q-22 -63 -15 -104q2 -18 -3 -35.5t-18 -26.5q-17 -11 -37.5 -4.5t-27.5 25.5q-13 37 -7 82q3 25 10.5 51.5t18.5 59t16 49.5q1 2 -0.5 3t-3.5 -1q-65 -63 -131 -200q-4 -7 -16 -37t-21 -44
q-10 -16 -30 -20t-36.5 7t-16.5 31q2 77 14 160q-104 -119 -213 -211q-102 -85 -179 -69q-31 7 -52 28.5t-26 52.5q-20 113 104 252l19 21q-78 38 -65 138q13 97 78.5 189.5t154 159t165.5 62.5q39 -2 66 -26.5t33 -63.5q13 -88 -50 -168q-12 -15 -28 -30t-37.5 -30
t-41.5 -14t-33 23q-8 14 -5 30t16 27q4 3 11 7.5t10 6.5q57 43 67 105q5 25 -11.5 35t-38.5 6t-38 -14q-152 -98 -216 -267q-6 -13 -9.5 -29t-4.5 -34.5t8.5 -28t29.5 -4.5q36 8 81 41q23 16 45 5q29 -14 31 -46t-27 -46q-90 -44 -155 -118q-36 -41 -59 -89t-10 -88
q18 -52 169 85q132 120 249 275q48 170 131 318q51 89 103 120q33 20 63.5 9.5t42.5 -46.5q30 -94 -62 -227q-55 -79 -172 -170q-6 -4 -10.5 -10.5t-8 -15.5t-5 -14.5t-4 -17t-3.5 -14.5q-2 -8 1 -8q4 5 10.5 13t7.5 10q26 32 41.5 49.5t44.5 38.5t58 28zM763 671
q-25 -22 -62.5 -90.5t-50.5 -111.5q27 14 70 91t43 111z" />
    <glyph glyph-name="Eb.liga" unicode="Eb" horiz-adv-x="957" 
d="M964 245q25 0 34.5 -11t7.5 -37q0 -15 -9.5 -25t-24.5 -11q-41 -2 -89 -2q-25 0 -39 -28q-41 -78 -107 -123t-144 -26q-1 1 -27 11q-10 -13 -11 -14q-21 -24 -51 -13.5t-29 42.5q2 84 14 171q-113 -131 -229 -229q-102 -85 -179 -69q-31 7 -52 28.5t-26 52.5
q-20 113 104 252l19 21q-78 38 -65 138q13 97 78.5 189.5t154 159t165.5 62.5q39 -2 66 -26.5t33 -63.5q13 -88 -50 -168q-12 -15 -28 -30t-37.5 -30t-41.5 -14t-33 23q-8 14 -5 30t16 27q4 3 11 7.5t10 6.5q57 43 67 105q5 25 -11.5 35t-38.5 6t-38 -14q-152 -98 -216 -267
q-6 -13 -9.5 -29t-4.5 -34.5t8.5 -28t29.5 -4.5q36 8 81 41q23 16 45 5q29 -14 31 -46t-27 -46q-90 -44 -155 -118q-36 -41 -59 -89t-10 -88q18 -52 169 85q140 127 261 291q46 176 128 311q54 90 111 114.5t102 -28.5q18 -24 20.5 -55t-9.5 -63t-31 -65t-45 -64.5
t-51 -56.5t-49 -46q-29 -25 -59.5 -55.5t-37.5 -46.5q-10 -24 0 -34q37 45 48 56q21 21 42.5 37t49 29t55 11.5t51.5 -20.5q49 -38 41 -129q43 1 75 0zM784 678q-59 -71 -113 -193q40 34 80.5 100.5t32.5 92.5zM727 124q1 2 -0.5 3.5t-3.5 1.5q-63 -13 -91 -57q-3 -4 2 -5
q22 -4 47 11.5t46 45.5zM790 240q14 35 -5 62q-1 2 -2 1q-52 -26 -96 -87q76 17 100 22q2 1 3 2z" />
    <glyph glyph-name="Ev.liga" unicode="Ev" horiz-adv-x="857" 
d="M870 244q13 0 17.5 -0.5t15 -3t14 -6.5t7 -13t2.5 -22q-1 -27 -23.5 -36.5t-51.5 -7.5q-48 4 -95 39q-59 -109 -101 -165q-12 -16 -27 -29.5t-33 -24t-38 -10t-37 14.5q-32 26 -37 90q-3 49 4 106q-112 -129 -227 -226q-102 -85 -179 -69q-31 7 -52 28.5t-26 52.5
q-20 113 104 252l19 21q-78 38 -65 138q13 97 78.5 189.5t154 159t165.5 62.5q39 -2 66 -26.5t33 -63.5q13 -88 -50 -168q-12 -15 -28 -30t-37.5 -30t-41.5 -14t-33 23q-8 14 -5 30t16 27q4 3 11 7.5t10 6.5q57 43 67 105q5 25 -11.5 35t-38.5 6t-38 -14q-152 -98 -216 -267
q-6 -13 -9.5 -29t-4.5 -34.5t8.5 -28t29.5 -4.5q36 8 81 41q23 16 45 5q29 -14 31 -46t-27 -46q-90 -44 -155 -118q-36 -41 -59 -89t-10 -88q18 -52 169 85q89 81 151.5 150.5t107.5 148.5q25 44 55 36q17 -5 26.5 -19.5t6.5 -31.5q-32 -173 -36 -257q-1 -11 2 -11t11 12
q53 72 115 204q1 3 6 30q7 35 35.5 60.5t58.5 5.5q29 -20 15 -59q-8 -21 -12 -28q-10 -17 6 -32q25 -22 60 -24z" />
    <glyph glyph-name="Ew.liga" unicode="Ew" horiz-adv-x="1005" 
d="M1029 240q19 -8 24 -27t-6 -36.5t-31 -20.5q-35 -5 -75 8q-1 1 -26 10q-7 -16 -9 -20q-4 -10 -13.5 -33.5t-15.5 -36.5t-16 -32t-21.5 -33.5t-25.5 -26.5q-35 -31 -72 -22.5t-54 51.5q-13 32 -22 72q0 1 -0.5 0t-2.5 -3t-3 -3.5l-3 -4.5t-2 -4q-4 -5 -17 -25.5
t-19.5 -29.5t-19.5 -22.5t-26 -20.5q-28 -17 -56 -7.5t-39 39.5q-19 49 -5 148q-105 -119 -213 -210q-102 -85 -179 -69q-31 7 -52 28.5t-26 52.5q-20 113 104 252l19 21q-78 38 -65 138q13 97 78.5 189.5t154 159t165.5 62.5q39 -2 66 -26.5t33 -63.5q13 -88 -50 -168
q-12 -15 -28 -30t-37.5 -30t-41.5 -14t-33 23q-8 14 -5 30t16 27q4 3 11 7.5t10 6.5q57 43 67 105q5 25 -11.5 35t-38.5 6t-38 -14q-152 -98 -216 -266q-6 -14 -9.5 -30t-4.5 -34.5t8.5 -28t29.5 -4.5q36 8 81 41q23 16 45 5q29 -14 31 -46t-27 -46q-90 -44 -155 -118
q-36 -41 -59 -89t-10 -88q18 -52 169 85q91 82 152.5 148t107.5 142q1 1 3 4q5 9 7.5 13t8 11t10 10t11 6t13.5 2t16 -4q34 -15 15 -70q-39 -114 -49 -221q-1 -2 1 -2.5t3 1.5q19 31 55.5 90t53.5 86q32 52 69 37q13 -5 20.5 -18.5t6.5 -29.5q-7 -113 -5 -170q2 -32 6 -30
q8 13 21 37q31 58 50 138q2 11 -2 33q-7 34 6 70t44 49q25 12 45 -1.5t18 -41.5q0 -2 -8 -58q-2 -17 0.5 -23t18.5 -12q11 -4 34.5 -7t34.5 -8z" />
    <glyph glyph-name="Ez.liga" unicode="Ez" horiz-adv-x="802" 
d="M874 216q25 -38 -27 -74q-13 -9 -132 -91l-2 -8q37 -98 -2 -220q-44 -138 -150 -229q-29 -25 -70 -43t-84.5 -24.5t-82 11.5t-56.5 61q-41 95 56 219q15 19 33.5 39.5t33 35t38.5 36.5t35.5 32.5t40 35t37.5 32.5q1 1 19 18q2 2 1.5 4t-3.5 1q-2 0 -5 -1q-21 -4 -32.5 -5
t-27.5 4t-23 20q-16 30 11 59q10 10 44 45.5t55 59t40 49.5q2 3 0 3q-4 -1 -14 -9q-13 -9 -40 -27t-40 -28q-11 -8 -20.5 -18.5t-22.5 -27t-17 -20.5q-93 -109 -207 -206q-102 -85 -179 -69q-31 7 -52 28.5t-26 52.5q-20 113 104 252l19 21q-78 38 -65 138q13 97 78.5 189.5
t154 159t165.5 62.5q39 -2 66 -26.5t33 -63.5q13 -88 -50 -168q-12 -15 -28 -30t-37.5 -30t-41.5 -14t-33 23q-8 14 -5 30t16 27q4 3 11 7.5t10 6.5q57 43 67 105q5 25 -11.5 35t-38.5 6t-38 -14q-152 -98 -216 -266q-6 -14 -9.5 -30t-4.5 -34.5t8.5 -28t29.5 -4.5
q36 8 81 41q23 16 45 5q29 -14 31 -46t-27 -46q-90 -44 -155 -118q-36 -41 -59 -89t-10 -88q18 -52 169 85q25 23 53 51.5t46.5 49t51 56.5t46.5 52q51 55 102 89.5t110 38.5q39 2 60 -25q12 -16 12.5 -37.5t-6.5 -40.5t-19 -35q-38 -51 -81 -100q-1 -2 -3 -4t-5 -5.5
t-5 -5.5q-6 -6 2 -11q2 -1 23 -12q4 -2 8 1q79 56 139 96q53 36 78 -1zM639 -80q7 59 -5 65q-2 1 -13 -8q-48 -39 -84.5 -71t-80 -75.5t-70 -85t-32.5 -77.5q-5 -31 7.5 -45t35 -11t45.5 13t42 25q133 102 155 270z" />
    <glyph glyph-name="Ex.liga" unicode="Ex" horiz-adv-x="780" 
d="M766 311q-61 -77 -81 -101q-13 -16 -7 -35q5 -14 41 -127q7 -13 2 -31t-25 -24q-50 -16 -67 31q-11 29 -20 57q-4 13 -7 24q-2 -3 -8.5 -10.5t-8.5 -10.5q-52 -65 -53 -66q-40 -45 -72 -17q-13 11 -13.5 25t4.5 23t16 22q57 73 90 113q15 18 7 39q-5 14 -11 33
q-144 -180 -293 -306q-102 -85 -179 -69q-31 7 -52 28.5t-26 52.5q-20 113 104 252l19 21q-78 38 -65 138q13 97 78.5 189.5t154 159t165.5 62.5q39 -2 66 -26.5t33 -63.5q13 -88 -50 -168q-12 -15 -28 -30t-37.5 -30t-41.5 -14t-33 23q-8 14 -5 30t16 27q4 3 11 7.5t10 6.5
q57 43 67 105q5 25 -11.5 35t-38.5 6t-38 -14q-152 -98 -216 -267q-6 -13 -9.5 -29t-4.5 -34.5t8.5 -28t29.5 -4.5q36 8 81 41q23 16 45 5q29 -14 31 -46t-27 -46q-90 -44 -155 -118q-36 -41 -59 -89t-10 -88q18 -52 169 85l2 2q138 125 237 258q3 4 14 19.5t17 23t16.5 17
t20.5 13.5q15 6 28.5 -2t20.5 -24q4 -13 24 -74q5 6 12 15q7 8 23 28.5t25 30.5q41 49 74 20q13 -12 12.5 -26.5t-6 -24.5t-16.5 -24z" />
    <glyph glyph-name="oi.liga" unicode="oi" horiz-adv-x="512" 
d="M559 235q18 -2 27.5 -18.5t0.5 -31.5q-47 -75 -94 -125q-30 -33 -67.5 -51.5t-72.5 -2.5q-39 19 -40 96q0 26 4 55q-26 -19 -51 -35q-24 -55 -68 -105q-26 -29 -62.5 -44.5t-74 -8t-59.5 41.5q-32 49 -16 128q1 5 2 8q12 29 4 74q-2 14 -2 29q3 42 29 79.5t62 58.5t80 20
t78 -30q52 -44 53 -122v-1.5v-2.5q30 26 72 75q15 16 41 14t38 -18q8 -11 3 -26q-33 -94 -47 -174q-2 -11 0.5 -20t10.5 -7q21 3 50 40q30 37 63 86q14 21 36 18zM100 55q14 9 28 22h-6q-27 2 -50 16q-1 -15 1 -26q1 -13 8.5 -16t18.5 4zM198 222q1 19 1.5 42t-11.5 39
t-37 11q-1 -1 -24 -9l6 -6q46 -33 4 -72q-8 -7 -25 -26q-10 -11 -4 -24.5t21 -14.5q23 -1 60 16q6 22 9 44zM425 356q-17 5 -26.5 19t-3.5 35q7 25 16 43q8 14 23 19t30 0q14 -5 22.5 -18t5.5 -28q-4 -25 -15 -48q-7 -15 -21.5 -21t-30.5 -1z" />
    <glyph glyph-name="ou.liga" unicode="ou" horiz-adv-x="736" 
d="M783 233q18 -5 28 -20.5t0 -31.5q-98 -158 -174 -185q-43 -15 -73 4.5t-33 60.5q-1 7 -2 27q0 1 -1 1q-12 -24 -23 -42q-16 -27 -41 -40.5t-54 -8.5q-45 7 -65 46t-15 87q2 32 9 67q-32 -28 -63 -49q-23 -70 -78 -132q-26 -29 -62.5 -44.5t-74 -8t-59.5 41.5
q-32 49 -16 128q1 5 2 8q12 29 4 74q-10 58 28 112t94 69q71 19 120.5 -20.5t56.5 -108.5q62 54 105 108q18 22 45 19q22 -3 32.5 -19t3.5 -36q-39 -123 -39 -125q-29 -105 -17 -128q3 -5 8 -2q5 2 12 12t15.5 26t15.5 29.5t17 33.5t14 29q45 87 78 148q11 20 23.5 29
t33.5 0q13 -5 20 -12t10 -13t1.5 -17.5t-3 -16t-6.5 -17.5q-44 -131 -52 -220q-1 -9 6 -14t15 2q47 41 105 126q11 16 22 21.5t27 1.5zM100 55q19 13 36 31q-9 -2 -17 -2q-4 0 -9 1q-20 1 -38 10q-1 -16 1 -28q1 -13 8.5 -16t18.5 4zM198 222q1 19 1.5 42t-12 39t-36.5 11
q-1 -1 -24 -9l6 -6q46 -33 4 -72q-8 -7 -25 -26q-7 -6 -6.5 -18t11.5 -13q27 -2 77 27q2 13 4 25z" />
    <glyph glyph-name="diw.liga" unicode="diw" horiz-adv-x="1141" 
d="M1165 240q19 -8 24 -27t-6 -36.5t-31 -20.5q-35 -5 -75 8q-1 1 -26 10q-1 -2 -4 -9.5t-5 -10.5q-4 -10 -13.5 -33.5t-15.5 -36.5t-16 -32t-21.5 -33.5t-25.5 -26.5q-35 -31 -72 -22.5t-54 51.5q-13 32 -22 72q0 1 -0.5 0t-2.5 -3t-3 -3.5l-3 -4.5t-2 -4q-4 -5 -17 -25.5
t-19.5 -29.5t-19.5 -22.5t-26 -20.5q-28 -17 -56 -7.5t-39 39.5q-13 35 -11 91q-69 -117 -142 -102q-24 6 -36 31t-12 54v7q-11 -15 -23 -30q-13 -17 -27.5 -33t-37 -34.5t-42 -27.5t-41.5 -4.5t-37 27.5q-6 9 -10.5 20.5t-6.5 20t-3.5 24t-1.5 21v24.5v21q-4 -8 -17 -30
t-21.5 -35t-22 -30t-28.5 -27.5t-32 -14.5q-24 -5 -46 7.5t-31 35.5q-24 66 5.5 151.5t81.5 151.5q19 25 40 40.5t49 21.5t56 -11l27 -15q11 27 11 29q44 125 94 218q8 15 14.5 26.5t19.5 32.5t24.5 36t27 33t31 27.5t31.5 15t32 -0.5t30 -23q33 -37 14 -117
q-35 -146 -231 -296q-15 -11 -19 -28q-34 -123 -45 -198q-7 -49 4 -63q3 -5 8 0q32 31 77 99q52 77 87 144q11 23 24 29q16 8 39 5t34 -18q9 -11 3 -26q-32 -94 -46 -174q-2 -9 5.5 -10.5t11.5 6.5q75 137 137 246q24 43 57 34q22 -7 27 -30t-4 -43q-39 -114 -50 -221
q0 -2 2 -2.5t3 1.5q19 31 55.5 90t53.5 86q32 52 69 37q13 -5 20.5 -18.5t6.5 -29.5q-7 -113 -5 -170q2 -32 5 -30q9 14 22 37q31 58 50 138q2 11 -2 33q-7 34 6 70t44 49q25 12 45 -1.5t18 -41.5q0 -2 -8 -58q-2 -17 0.5 -23t18.5 -12q11 -4 34.5 -7t34.5 -8zM489 671
q-28 -26 -61 -86t-43 -96q34 26 69 86t35 96zM77 116q1 2 105 175q-14 10 -18 10t-13 -10q-58 -73 -79 -173q0 -2 2 -2.5t3 0.5zM513 452q7 14 21.5 19.5t30.5 1.5q14 -5 22.5 -17.5t6.5 -28.5q-3 -24 -13 -48q-7 -15 -21 -21.5t-30 -2.5q-17 4 -27.5 18t-4.5 35q6 26 15 44
z" />
    <glyph glyph-name="Cix.liga" unicode="Cix" horiz-adv-x="1014" 
d="M1000 311q-61 -77 -81 -101q-13 -16 -6 -35q4 -13 40 -127q7 -13 2 -31t-25 -24q-50 -16 -67 31q-10 29 -20 57q-4 13 -7 24q-2 -3 -8 -10.5t-9 -10.5q-52 -65 -53 -66q-40 -45 -72 -17q-13 11 -13.5 25t5 23t15.5 22q57 73 90 113q15 18 7 39q-5 14 -11 33
q-44 -74 -63 -106q-2 -4 -7 -12q-12 -22 -20.5 -36t-26.5 -38.5t-34.5 -38t-39 -21.5t-43.5 -3q-25 7 -37 32t-12 53v11q-93 -120 -197 -185q-47 -29 -99.5 -34t-103.5 20q-100 54 -104 209q-4 154 75 327q32 69 72 129.5t98 116.5t121 83q36 15 74.5 18.5t72.5 -6
t59.5 -36.5t32.5 -69q12 -70 -18 -148t-84 -132q-29 -29 -69.5 -40.5t-76.5 4.5t-47 62q-5 17 3 32t21.5 21t29.5 3t26 -17q1 -1 13 -21q25 7 46 31q31 37 52 86t14 91q-3 23 -18.5 35t-35 11.5t-40.5 -5.5q-72 -20 -136 -93q-176 -201 -194 -449q-2 -29 1.5 -59.5t14 -60.5
t34 -46t56.5 -9q41 9 81 33t73 54.5t69.5 76t63.5 85t62 93.5q14 23 46 27.5t50 -17.5q9 -11 3 -26q-32 -94 -46 -174q-2 -9 5 -10.5t12 6.5q27 41 77 126t73 120q4 13 16 23q19 16 40 11t30 -28q5 -13 24 -74q5 6 12 15q7 8 23 28.5t25 30.5q41 49 74 20q13 -12 13 -26.5
t-6 -24.5t-17 -24zM589 408q6 26 15 44q7 14 21.5 19.5t30.5 1.5q14 -5 22.5 -17.5t6.5 -28.5q-3 -24 -13 -48q-7 -15 -21 -21.5t-30 -2.5q-17 4 -27.5 18t-4.5 35z" />
    <glyph glyph-name="Ciz.liga" unicode="Ciz" horiz-adv-x="1067" 
d="M1139 216q25 -38 -27 -74q-13 -9 -133 -91l-1 -8q36 -98 -2 -220q-44 -138 -150 -229q-29 -25 -70.5 -43t-84.5 -24.5t-81.5 11.5t-57.5 61q-41 95 57 219q15 19 33.5 39.5t33 35t38 36.5t35.5 32.5l40 35t37 32.5q1 1 20 18q2 2 1 4t-3 1q-2 0 -6 -1q-20 -4 -31.5 -5
t-27.5 4t-24 20q-15 30 12 59q9 10 43 45.5t55 59t40 49.5q4 5 -5 0l-9 -6q-5 -3 -23.5 -15.5t-26 -18t-21.5 -16t-24 -20.5t-18 -21q-3 -4 -24 -34t-39.5 -53t-44.5 -50t-51.5 -40t-46.5 -8q-25 7 -37 32t-12 53v10q-93 -120 -196 -184q-47 -29 -99.5 -34t-103.5 20
q-100 54 -104 209q-4 154 75 327q32 69 72 129.5t98 116.5t121 83q36 15 74.5 18.5t72.5 -6t59.5 -36.5t32.5 -69q12 -70 -18 -148t-84 -132q-29 -29 -69.5 -40.5t-76.5 4.5t-47 62q-5 17 3 32t21.5 21t29.5 3t26 -17q1 -1 13 -21q25 7 46 31q31 37 52 86t14 91
q-3 23 -18.5 35t-35 11.5t-40.5 -5.5q-72 -21 -136 -93q-176 -201 -194 -449q-2 -29 1.5 -59.5t14 -60.5t34 -46t56.5 -9q41 9 81 33t73 54.5t69.5 76t63.5 85t62 93.5q15 24 46 28t50 -18q8 -11 3 -26q-33 -94 -47 -174q-2 -9 3 -9t11 7q15 20 49 64.5t54 69.5t53.5 57
t67.5 52q116 69 159 12q12 -16 13 -37.5t-6.5 -40.5t-18.5 -35q-38 -51 -81 -100l-4 -4t-5 -5.5t-4 -5.5q-6 -6 2 -11q2 -1 23 -12q4 -2 7 1q80 56 139 96q53 36 79 -1zM903 -80q8 59 -4 65q-2 1 -14 -8q-47 -39 -83.5 -71t-80 -75.5t-70.5 -85t-32 -77.5q-5 -31 7.5 -45
t34.5 -11t45.5 13t42.5 25q133 102 154 270zM587 410q7 25 16 43q8 14 23 19t30 0q14 -5 22.5 -18t5.5 -28q-4 -25 -15 -48q-7 -15 -21.5 -21t-30.5 -1q-17 5 -26.5 19t-3.5 35z" />
    <glyph glyph-name="Ciw.liga" unicode="Ciw" horiz-adv-x="1256" 
d="M1280 240q20 -8 24.5 -27t-6 -36.5t-30.5 -20.5q-35 -5 -75 8q-2 1 -27 10q-7 -16 -8 -20q-4 -10 -14 -33.5t-16 -36.5t-16 -32t-21.5 -33.5t-24.5 -26.5q-35 -31 -72.5 -22.5t-54.5 51.5q-12 32 -21 72q0 1 -1 0t-2.5 -3t-3 -3.5t-3 -4.5t-2.5 -4q-4 -5 -17 -25.5
t-19.5 -29.5t-19.5 -22.5t-26 -20.5q-28 -17 -56 -7.5t-39 39.5q-17 46 -7 134q-103 -161 -170 -145q-24 7 -36.5 32t-12.5 53q0 4 1 11q-93 -120 -197 -185q-47 -29 -99.5 -34t-103.5 20q-100 54 -104 209q-4 154 75 327q32 69 72 129.5t98 116.5t121 83q36 15 74.5 18.5
t72.5 -6t59.5 -36.5t32.5 -68q12 -71 -18 -149t-84 -131q-29 -29 -69.5 -41t-76.5 4t-47 62q-5 17 3 32t21.5 21t29.5 3t26 -17q1 -1 13 -21q25 7 46 31q31 37 52 86t14 91q-3 23 -18.5 35t-35 11.5t-40.5 -5.5q-72 -20 -136 -93q-176 -201 -194 -449q-2 -29 1.5 -59.5
t14 -60.5t34 -46t56.5 -8q41 8 81 32t73 54.5t69.5 76t63.5 85t62 93.5q15 24 46 28.5t50 -18.5q9 -11 3 -26q-32 -94 -46 -174q-2 -9 5 -10.5t12 6.5q55 86 165 251q23 42 61 26q34 -15 16 -70q-40 -114 -50 -221q0 -2 2 -2.5t3 1.5q19 31 55.5 90t52.5 86q32 52 70 37
q13 -5 20.5 -18.5t6.5 -29.5q-7 -113 -5 -170q2 -32 5 -30q9 13 21 37q31 58 50 138q3 11 -2 33q-7 34 6 70t44 49q25 12 45 -1.5t19 -41.5q0 -2 -9 -58q-2 -17 1 -23t18 -12q11 -4 34.5 -7t34.5 -8zM588 408q7 26 15 44q7 14 22 19.5t31 1.5q14 -5 22.5 -17.5t6.5 -28.5
q-3 -24 -13 -48q-7 -15 -21 -21.5t-30 -2.5q-17 4 -27.5 18t-5.5 35z" />
    <glyph glyph-name="Civ.liga" unicode="Civ" horiz-adv-x="1089" 
d="M1102 244q2 0 12 -1t12.5 -1.5l10 -2t10 -4.5t6.5 -7.5t5 -11.5t0 -17q-1 -27 -23.5 -36.5t-51.5 -7.5q-48 4 -95 39q-59 -109 -101 -165q-12 -16 -27 -29.5t-33 -24t-38 -10t-37 14.5q-32 26 -37 90q-2 35 1 74q-81 -161 -164 -143q-25 6 -37 31t-12 54v10
q-93 -120 -196 -184q-47 -29 -99.5 -34t-103.5 20q-100 54 -104 209q-4 154 75 327q32 69 72 129.5t98 116.5t121 83q36 15 74.5 18.5t72.5 -6t59.5 -36.5t32.5 -68q12 -71 -18 -149t-84 -131q-29 -29 -69.5 -41t-76.5 4t-47 62q-5 17 3 32t21.5 21t29.5 3t26 -17
q1 -1 13 -21q25 7 46 31q31 37 52 86t14 91q-3 23 -18.5 35t-35 11.5t-40.5 -5.5q-72 -20 -136 -93q-176 -201 -194 -449q-2 -29 1.5 -59.5t14 -60.5t34 -46t56.5 -8q41 8 81 32t73 54.5t69.5 76t63.5 85t62 93.5q4 7 10 13q15 16 43.5 15.5t42.5 -18.5q8 -11 3 -26
q-33 -94 -47 -174q-2 -9 5.5 -10.5t11.5 6.5q13 24 41 77.5t50.5 93.5t45.5 75q29 42 57 34q17 -5 26.5 -19.5t5.5 -31.5q-32 -173 -36 -257q-1 -11 2 -11q2 0 11 12q53 72 115 204q1 3 6 30q7 35 35.5 60.5t58.5 5.5q29 -20 15 -59q-8 -21 -12 -28q-10 -17 6 -32
q22 -20 60 -24zM588 408q6 26 15 44q7 14 22 19.5t30 1.5q15 -5 23.5 -17.5t6.5 -28.5q-3 -24 -14 -48q-6 -15 -20.5 -21.5t-30.5 -2.5q-17 4 -27 18t-5 35z" />
    <glyph glyph-name="sx.liga" unicode="sx" horiz-adv-x="560" 
d="M546 311q-61 -76 -81 -101q-13 -16 -7 -35q5 -14 41 -127q7 -13 2 -31t-25 -24q-50 -16 -67 31q-11 29 -20 57q-4 13 -7 24q-2 -3 -8.5 -10.5t-8.5 -10.5q-52 -65 -53 -66q-40 -45 -72 -17q-13 11 -13.5 25t4.5 23t16 22q57 73 90 113q15 18 7 39q-5 16 -13 38
q-26 -28 -74 -79.5t-59 -63.5q-3 -3 -2 -6q1 -4 2.5 -14.5t2.5 -14.5q9 -55 -28 -102t-93 -42q-38 3 -63.5 36.5t-12.5 67.5q3 7 6.5 13.5t7 11.5t9 12t9 10.5t10.5 11t9.5 10t11 10.5t10.5 9q2 2 0 4q-20 14 -28 20q-35 27 -37.5 65t20.5 74.5t52.5 67t59.5 50.5
q15 11 34.5 10t31.5 -17q8 -11 8 -25.5t-8 -25.5q-13 -16 -43.5 -44t-43.5 -44q-25 -30 8 -60q9 -8 15 -12q4 -3 10 3q12 14 59 63t72 76q3 4 11.5 13.5t14 15t13.5 13t15.5 11.5t13.5 5q15 1 27 -7.5t19.5 -27t11 -30t7.5 -31.5q1 -4 2 -6q5 6 12 15q7 8 23 28.5t25 30.5
q41 49 74 20q13 -12 12.5 -26.5t-6 -24.5t-16.5 -24z" />
    <glyph glyph-name="dix.liga" unicode="dix" horiz-adv-x="923" 
d="M909 311q-60 -76 -81 -101q-13 -16 -6 -35q5 -14 41 -127q6 -13 1 -31t-25 -24q-50 -16 -67 31q-10 29 -20 57q-4 13 -7 24q-2 -3 -8 -10.5t-9 -10.5q-52 -65 -53 -66q-40 -45 -72 -17q-12 11 -13 25t4.5 23t15.5 22q57 73 90 113q15 18 7 39q-5 14 -11 33
q-43 -73 -63 -106q-2 -4 -7 -12q-12 -22 -20.5 -36t-26.5 -38.5t-34.5 -38t-39 -21.5t-43.5 -3q-25 7 -37 32t-12 53v4v3q-11 -15 -23 -30q-13 -17 -27.5 -33t-37 -34.5t-42 -27.5t-41.5 -4.5t-37 27.5q-6 9 -10.5 20.5t-6.5 20t-3.5 24t-1.5 21v24.5v21q-4 -8 -17 -30
t-21.5 -35t-22 -30t-28.5 -27.5t-32 -14.5q-24 -5 -46 7.5t-31 35.5q-24 66 5.5 151.5t81.5 151.5q19 25 40 40.5t49 21.5t56 -11q4 -3 13.5 -8t13.5 -7q11 27 11 29q44 125 94 218q8 15 14.5 26.5t19.5 32.5t24.5 36t27 33t31 27.5t31.5 15t32 -0.5t30 -23q33 -37 14 -117
q-35 -146 -231 -296q-15 -11 -19 -28q-34 -123 -45 -198q-7 -49 4 -63q3 -5 8 0q34 33 82 106t88 147q12 22 44 24t47 -18q9 -11 4 -26q-33 -94 -47 -174q-2 -9 5 -10.5t12 6.5q27 41 77 126t73 120q4 13 16 23q19 16 40 11t30 -28q5 -13 24 -74q5 6 13 15q6 8 22 28.5
t25 30.5q41 49 74 20q13 -12 13 -26.5t-6 -24.5t-17 -24zM489 671q-28 -26 -61 -86t-43 -96q34 26 69 86t35 96zM77 116q1 2 105 175q-14 10 -18 10t-13 -10q-58 -73 -79 -173q0 -2 2 -2.5t3 0.5zM513 452q7 14 22 19.5t30 1.5q14 -5 22.5 -17.5t7.5 -28.5q-3 -24 -14 -48
q-6 -15 -20.5 -21.5t-30.5 -2.5q-17 4 -27 18t-5 35q6 26 15 44z" />
    <glyph glyph-name="lb.liga" unicode="lb" horiz-adv-x="762" 
d="M769 245q25 0 34 -11t8 -37q0 -15 -9.5 -25t-25.5 -11q-40 -2 -88 -2q-25 0 -40 -28q-40 -78 -106.5 -123t-143.5 -26q-2 1 -27 11q-11 -13 -11 -14q-21 -24 -51 -13.5t-29 42.5q1 65 9 134q-100 -127 -180 -179q-41 -27 -84.5 -5t-44.5 71q-6 302 176 623q19 35 48.5 69
t57.5 51q33 20 63.5 9.5t42.5 -46.5q11 -40 8 -78t-21 -77t-42 -73t-56 -66.5t-62 -57.5t-61 -45q-15 -10 -20 -29q-32 -112 -39 -231q0 -13 5 -17t13 3q57 55 116 122.5t97 123.5q8 11 18 25q46 185 131 326q55 90 112 114.5t101 -28.5q19 -24 21 -55t-9.5 -63t-31 -65
t-45.5 -64.5t-50.5 -56.5t-48.5 -46q-30 -25 -60 -55.5t-37 -46.5q-11 -24 0 -34q36 45 48 56q21 21 42.5 37t48.5 29t55 11.5t52 -20.5q49 -38 40 -129q44 1 76 0zM589 678q-59 -71 -113 -193q40 34 80.5 100.5t32.5 92.5zM280 671q-25 -22 -62.5 -90.5t-50.5 -110.5
q27 13 70 90t43 111zM531 124q2 2 0.5 3.5t-3.5 1.5q-63 -13 -92 -57q-3 -4 2 -5q22 -4 47 11.5t46 45.5zM595 240q14 35 -5 62q-1 2 -3 1q-52 -26 -95 -87q75 17 100 22q2 1 3 2z" />
    <glyph glyph-name="ilb.liga" unicode="ilb" horiz-adv-x="1009" 
d="M108 355q-18 4 -28 18t-5 35q6 26 15 44q7 14 22 19.5t30 1.5q15 -5 23.5 -17.5t6.5 -28.5q-3 -24 -14 -48q-6 -15 -20.5 -21.5t-29.5 -2.5zM1017 245q25 0 34 -11t8 -37q-1 -15 -10 -25t-25 -11q-41 -2 -88 -2q-25 0 -40 -28q-40 -78 -106.5 -123t-144.5 -26
q-1 1 -26 11q-11 -13 -12 -14q-20 -24 -50 -13.5t-30 42.5q2 65 10 134q-101 -127 -181 -179q-40 -27 -83.5 -5t-44.5 71q-2 71 8 144q-3 -3 -8 -10q-18 -26 -29.5 -42t-35.5 -44t-42 -43.5t-41 -26t-41 -6.5q-25 7 -37 32t-12 53q0 92 47 225q6 16 25 22t38.5 1t28.5 -16
q8 -11 3 -26q-33 -94 -47 -174q-1 -9 5.5 -10.5t11.5 6.5q104 129 166 221q45 157 135 317q20 35 49.5 69t57.5 51q33 20 63.5 9.5t41.5 -46.5q11 -40 8.5 -78t-20.5 -77t-42 -73t-56 -66.5t-62.5 -57.5t-60.5 -45q-15 -10 -21 -29q-31 -112 -38 -231q0 -13 5 -17t13 3
q57 55 115.5 122.5t97.5 123.5q8 11 18 25q46 185 131 326q55 90 112 114.5t101 -28.5q18 -24 20.5 -55t-9.5 -63t-31 -65t-45 -64.5t-50.5 -56.5t-49.5 -46q-29 -25 -59.5 -55.5t-36.5 -46.5q-11 -24 -1 -34q37 45 49 56q21 21 42.5 37t48.5 29t55 11.5t51 -20.5
q49 -38 41 -129q43 1 76 0zM836 678q-58 -71 -112 -193q40 34 80.5 100.5t31.5 92.5zM527 671q-24 -22 -62 -90.5t-50 -110.5q27 13 69.5 90t42.5 111zM779 124q1 2 0 3.5t-3 1.5q-63 -13 -92 -57q-3 -4 2 -5q22 -4 47 11.5t46 45.5zM842 240q14 35 -5 62q0 2 -2 1
q-52 -26 -95 -87q75 17 100 22q2 1 2 2z" />
    <glyph glyph-name="alb.liga" unicode="alb" horiz-adv-x="1171" 
d="M1178 245q25 0 34.5 -11t8.5 -37q-1 -15 -10.5 -25t-24.5 -11q-41 -2 -89 -2q-24 0 -39 -28q-40 -78 -106.5 -123t-144.5 -26q-1 1 -26 11q-11 -14 -12 -14q-20 -24 -50 -13.5t-30 42.5q2 65 10 135q-101 -128 -181 -180q-40 -27 -83.5 -5t-44.5 71q-1 31 0 61
q-23 -37 -37 -56q-20 -25 -47 -36t-52 -5.5t-40 25.5q-11 14 -16.5 36t-6.5 33t-2 40q-20 -24 -21 -25q-3 -3 -22 -25.5t-27.5 -31t-25.5 -21.5t-33 -19q-31 -12 -57 4t-31 49q-9 57 32 149q31 71 80 128q25 29 56.5 45.5t67 13t61.5 -33.5q4 -4 6 -8.5t3.5 -7t2.5 -8.5
t1.5 -8t1 -9.5t0.5 -8.5q1 -6 13.5 -19t10.5 -23q-5 -27 -15 -77l-14 -70q-6 -34 1 -40q1 -1 3 0q13 10 51 73q17 28 46.5 80.5t40.5 70.5q1 2 3 4q43 170 141 343q20 35 49.5 69t57.5 51q33 20 63.5 9.5t41.5 -46.5q11 -40 8.5 -78t-20.5 -77t-42 -73t-56 -66.5
t-62.5 -57.5t-60.5 -45q-15 -10 -21 -29q-31 -112 -38 -231q0 -13 5 -17t13 3q56 55 115 122.5t97 123.5q8 11 19 25q46 185 131 326q54 90 111.5 114.5t101.5 -28.5q18 -24 20.5 -55t-9.5 -63t-31 -65t-45 -64.5t-50.5 -56.5t-49.5 -46q-29 -25 -59.5 -55.5t-36.5 -46.5
q-11 -24 -1 -34q37 45 49 56q21 21 42.5 37t48.5 29t55 11.5t51 -20.5q49 -38 41 -129q43 1 75 0zM998 678q-58 -71 -112 -193q40 34 80.5 100.5t31.5 92.5zM689 671q-24 -22 -62 -90.5t-50 -110.5q27 13 69.5 90t42.5 111zM76 136q20 22 42.5 47t50 55.5t42.5 47.5
q-9 18 -19 18.5t-21 -10.5q-57 -45 -96 -153q-1 -4 1 -5zM941 124q1 2 0 3.5t-4 1.5q-62 -13 -91 -57q-3 -4 2 -5q22 -4 47 11.5t46 45.5zM1004 240q14 35 -5 62q-1 2 -2 1q-52 -26 -96 -87q76 17 101 22z" />
    <glyph glyph-name="elb.liga" unicode="elb" horiz-adv-x="1111" 
d="M1118 245q25 0 34.5 -11t8.5 -37q-1 -15 -10.5 -25t-24.5 -11q-41 -2 -89 -2q-24 0 -39 -28q-40 -78 -106.5 -123t-144.5 -26q-1 1 -27 11q-10 -13 -11 -14q-20 -24 -50 -13.5t-30 42.5q2 65 10 134q-101 -127 -181 -179q-40 -27 -83.5 -5t-44.5 71q-1 48 3 98
q-122 -160 -236 -148q-35 4 -59.5 24.5t-34 49t-13 62t4.5 63.5q16 85 65 151q36 47 77 64q29 13 56 7.5t47.5 -21t30 -42t2.5 -56.5q-14 -52 -62.5 -92t-106.5 -57q-3 -1 -9.5 -3t-9.5 -3l-4 -3q-2 -70 63 -52q25 7 58 38.5t67.5 77t56 76t41.5 62.5q0 1 0.5 1.5l0.5 0.5
q44 161 137 325q20 35 49.5 69t57.5 51q33 20 63 9.5t42 -46.5q11 -40 8.5 -78t-21 -77t-42.5 -73t-56 -66.5t-62 -57.5t-61 -45q-15 -10 -20 -29q-31 -112 -38 -231q-1 -13 4.5 -17t13.5 3q56 55 115 122.5t97 123.5q8 11 18 25q47 185 132 326q54 90 111 114.5t102 -28.5
q18 -24 20.5 -55t-9.5 -63t-31 -65t-45 -64.5t-51 -56.5t-49 -46q-29 -25 -59.5 -55.5t-37.5 -46.5q-10 -24 0 -34q37 45 48 56q22 21 43.5 37t48.5 29t55 11.5t51 -20.5q49 -38 41 -129q43 1 75 0zM938 678q-59 -71 -112 -193q40 34 80.5 100.5t31.5 92.5zM629 671
q-25 -22 -62.5 -90.5t-49.5 -110.5q27 13 69.5 90t42.5 111zM161 308q-34 -24 -52 -74q48 20 70 59q7 11 2 18q-6 7 -17 -2q-2 -1 -3 -1zM881 124q1 2 0 3.5t-4 1.5q-63 -13 -91 -57q-3 -4 2 -5q22 -4 47 11.5t46 45.5zM944 240q14 35 -5 62q-1 2 -2 1q-52 -26 -96 -87
q76 17 101 22z" />
    <glyph glyph-name="olb.liga" unicode="olb" horiz-adv-x="1096" 
d="M1103 245q25 0 34 -11t8 -37q0 -15 -9.5 -25t-24.5 -11q-41 -2 -89 -2q-25 0 -39 -28q-41 -78 -107.5 -123t-143.5 -26q-2 1 -27 11q-11 -13 -11 -14q-21 -24 -51 -13.5t-29 42.5q1 65 9 135q-100 -128 -180 -180q-40 -27 -84 -5t-45 71q-1 82 11 165q-24 -21 -47 -38
q-22 -74 -80 -139q-26 -29 -62.5 -44.5t-74 -8t-59.5 41.5q-32 49 -16 128q1 5 2 8q12 29 4 74q-10 58 28 112t94 69q69 19 117.5 -18t58.5 -103q36 34 68 70q44 152 132 306q19 35 48.5 69t58.5 51q33 20 63 9.5t42 -46.5q11 -40 8.5 -78t-21 -77t-42.5 -73t-56 -66.5
t-62 -57.5t-61 -45q-15 -10 -20 -29q-32 -112 -38 -231q-1 -13 4.5 -17t12.5 3q57 55 116 122.5t97 123.5q8 11 18 25q46 185 131 326q55 90 112 114.5t101 -28.5q19 -24 21 -55t-9.5 -63t-31 -65t-45.5 -64.5t-50.5 -56.5t-48.5 -46q-29 -25 -59.5 -55.5t-37.5 -46.5
q-10 -24 0 -34q37 45 48 56q21 21 42.5 37t49 29t55 11.5t51.5 -20.5q49 -38 40 -129q44 1 76 0zM923 678q-59 -71 -113 -193q40 34 80.5 100.5t32.5 92.5zM614 671q-25 -22 -62.5 -90.5t-50.5 -110.5q28 13 70.5 90t42.5 111zM100 55q19 13 36 31q-10 -2 -18 -2q-4 0 -8 1
q-20 1 -38 10q-1 -16 1 -28q1 -13 8.5 -16t18.5 4zM198 222q1 19 1.5 42t-12 39t-36.5 11q-1 -1 -24 -9l6 -6q46 -33 4 -72q-8 -7 -25 -26q-9 -10 -5 -23q3 -8 9 -8q26 -2 78 31q3 11 4 21zM865 124q2 2 0.5 3.5t-3.5 1.5q-63 -13 -92 -57q-2 -4 3 -5q21 -4 46.5 11.5
t45.5 45.5zM929 240q14 35 -5 62q-1 2 -2 1q-53 -26 -96 -87q76 17 100 22q2 1 3 2z" />
    <glyph glyph-name="ff.liga" unicode="ff" horiz-adv-x="426" 
d="M525 242q3 -17 -7 -30.5t-28 -18.5q-43 -14 -91 -43t-77 -63q54 -88 67 -206.5t-24 -179.5q-29 -48 -80 -48q-4 0 -9 1q-44 4 -70 43q-66 100 25 488q-43 -18 -85.5 -45t-65.5 -53q53 -88 66.5 -206.5t-23.5 -179.5q-29 -48 -80 -48q-5 0 -10 1q-43 4 -69 43
q-50 74 -14 298.5t166 647.5q5 17 20.5 25.5t32.5 3.5t25 -21t3 -33q-76 -250 -116 -413q35 26 83 47.5t91 29.5q40 156 103 361q5 17 20.5 25.5t32.5 3.5t25.5 -21t3.5 -33q-77 -249 -117 -413q77 58 152 72q17 3 31.5 -7t18.5 -28zM50 -255q18 25 14.5 98.5t-29.5 141.5
q-31 -194 0 -241q3 -5 7 -5.5t8 6.5zM293 -255q17 25 13.5 98.5t-29.5 141.5q-31 -194 0 -241q4 -5 7.5 -5.5t8.5 6.5z" />
    <glyph glyph-name=".notdef" horiz-adv-x="527" 
d="M50 700h427v-700h-427v700zM78 680l185 -309l186 309h-371zM251 350l-180 300v-601zM264 329l-185 -308h370zM276 350l181 -303v605z" />
    <glyph glyph-name=".null" 
 />
    <glyph glyph-name=".null" 
 />
    <glyph glyph-name="nonmarkingreturn" horiz-adv-x="333" 
 />
    <glyph glyph-name="controlLF" unicode="&#xa;" 
 />
    <glyph glyph-name="controlCR" unicode="&#xd;" 
 />
    <glyph glyph-name="space" unicode=" " horiz-adv-x="291" 
 />
    <glyph glyph-name="exclam" unicode="!" horiz-adv-x="293" 
d="M323 778q18 0 29.5 -7t15 -20.5t5 -25.5t-2 -30.5t-6 -27t-6.5 -23.5q-60 -207 -162 -551q-5 -18 -10 -29t-16.5 -20t-25.5 -6q-18 4 -28 11.5t-12 19.5t-0.5 23.5t6.5 28.5q30 99 80 268q12 41 58 198q1 2 3 9.5t3 10t2 8.5t1 9.5t-0.5 9t-1.5 9.5q-6 18 0 35
q7 21 10.5 30.5t13.5 30t21 30.5t23 9zM120 -12q17 -5 24.5 -19t2.5 -30q0 -2 -1 -6q-5 -19 -9 -29t-14.5 -21.5t-25.5 -11.5q-19 -1 -34 11t-13 31q3 30 16 58q7 14 23.5 18.5t30.5 -1.5z" />
    <glyph glyph-name="quotedbl" unicode="&#x22;" horiz-adv-x="356" 
d="M403 780q8 -37 -5.5 -74t-42.5 -63q-19 -16 -39.5 -20t-38.5 9q-12 10 -14.5 21t4 22t13.5 18.5t18 17.5q9 8 12.5 17.5t3 17t-2.5 21t-2 19.5q-1 18 12.5 33t32.5 14.5t32 -17t17 -36.5zM244.5 833q18.5 -4 28 -23t9.5 -40q0 -37 -20 -71t-54 -53q-19 -12 -42 -12
t-36 16q-10 12 -10.5 23t8 21t17 16t21.5 13q10 6 15 15t6.5 16.5t2 20.5t1.5 19q3 19 19 31t34.5 8z" />
    <glyph glyph-name="quotedbl" unicode="&#x201d;" horiz-adv-x="356" 
d="M403 780q8 -37 -5.5 -74t-42.5 -63q-19 -16 -39.5 -20t-38.5 9q-12 10 -14.5 21t4 22t13.5 18.5t18 17.5q9 8 12.5 17.5t3 17t-2.5 21t-2 19.5q-1 18 12.5 33t32.5 14.5t32 -17t17 -36.5zM244.5 833q18.5 -4 28 -23t9.5 -40q0 -37 -20 -71t-54 -53q-19 -12 -42 -12
t-36 16q-10 12 -10.5 23t8 21t17 16t21.5 13q10 6 15 15t6.5 16.5t2 20.5t1.5 19q3 19 19 31t34.5 8z" />
    <glyph glyph-name="quotedbl" unicode="&#x201c;" horiz-adv-x="356" 
d="M403 780q8 -37 -5.5 -74t-42.5 -63q-19 -16 -39.5 -20t-38.5 9q-12 10 -14.5 21t4 22t13.5 18.5t18 17.5q9 8 12.5 17.5t3 17t-2.5 21t-2 19.5q-1 18 12.5 33t32.5 14.5t32 -17t17 -36.5zM244.5 833q18.5 -4 28 -23t9.5 -40q0 -37 -20 -71t-54 -53q-19 -12 -42 -12
t-36 16q-10 12 -10.5 23t8 21t17 16t21.5 13q10 6 15 15t6.5 16.5t2 20.5t1.5 19q3 19 19 31t34.5 8z" />
    <glyph glyph-name="numbersign" unicode="#" horiz-adv-x="475" 
d="M381 440q53 -8 42 -56q-2 -14 -8.5 -22t-18 -11t-19.5 -4t-23 -1q-3 0 -4 -3q-7 -23 -11 -35q-2 -5 2 -6q26 0 35.5 -11t6.5 -33q-2 -30 -18 -38.5t-54 -9.5q-4 0 -9 -21q-2 -8 -3 -13q-11 -43 -50 -35q-26 5 -36.5 15.5t-5.5 33.5q1 3 2.5 9.5t1.5 10.5q1 4 -3 4h-80
q-4 0 -13 -28q-4 -11 -6.5 -16t-8.5 -12.5t-15 -11.5q-26 -9 -50 8.5t-13 44.5q1 3 4.5 13t2.5 10q-40 10 -25 57q7 22 19.5 27.5t39.5 4.5q3 7 9 24t9 25q-54 1 -38 57q5 17 14.5 23.5t28.5 6.5q21 0 25 8q5 11 3 17q-9 27 7.5 61t49.5 40q28 6 44.5 -12t8.5 -53
q-1 -3 -17 -63q54 -3 64 -3q5 68 44 105q25 23 52.5 10.5t27.5 -44.5q0 -28 -14 -73zM254 346q1 5 -4 5q-13 1 -71 4q-3 0 -4 -3q-2 -3 -14 -39q-2 -6 4 -6h75q3 0 4 3z" />
    <glyph glyph-name="dollar" unicode="$" horiz-adv-x="525" 
d="M519 655q16 -26 -4 -52q-19 -25 -40 -11q-6 4 -11 11q-16 24 -49 30q-7 -17 -8 -18q-81 -253 -86 -269q-8 -25 9 -43q48 -51 67 -90q18 -37 20 -77.5t-11.5 -77t-38 -66.5t-62.5 -47t-82 -17q-26 0 -32 -28q-4 -17 -12 -36q-12 -26 -36 -30t-40.5 14t-8.5 47l6 21
q-89 15 -139 54q-10 8 -11 20.5t7 24.5q10 14 23 16t22 -2t25 -14q38 -26 96 -26q24 83 93 321q-54 48 -67 63q-50 59 -40.5 120.5t55 112.5t106.5 75q17 7 28 24q15 22 48 66q27 36 57 34q19 -1 31 -15t11 -33q0 -3 -8 -51q23 -9 32.5 -13t25 -14.5t24.5 -23.5zM198 538
q-28 -39 -15.5 -81.5t58.5 -62.5q51 162 73 230q-66 -15 -116 -86zM331 104q7 30 -7 70t-37 56q-38 -132 -64 -223q42 9 71 35t37 62z" />
    <glyph glyph-name="percent" unicode="%" horiz-adv-x="541" 
d="M483 689q-2 -11 -8 -24q-52 -121 -161 -372t-165 -380q-17 -39 -43 -39q-22 0 -34 12.5t-12 30t7 35.5q148 341 323 743q8 18 14 27q13 17 33.5 17.5t34.5 -14.5t11 -36zM490 121q5 -66 -26.5 -133t-85.5 -99q-39 -23 -76 -10.5t-55 53.5q-14 31 -15 71t11 79.5t32 74
t52 57t68 24.5q44 3 68 -33.5t27 -83.5zM333 -31q36 20 55.5 77t5.5 100q-38 -16 -59 -79.5t-2 -97.5zM193 382q-38 -22 -75 -9t-53 53q-23 65 -9 131t56 120q16 21 37.5 36t47.5 20.5t50 -7.5q28 -16 43.5 -49.5t17.5 -70.5q3 -63 -29.5 -128t-85.5 -96zM209 641
q-37 -20 -57.5 -80t-2.5 -98q35 18 55.5 77t4.5 101z" />
    <glyph glyph-name="ampersand" unicode="&#x26;" horiz-adv-x="754" 
d="M740 355q16 -12 13.5 -28.5t-11.5 -30t-22 -23.5q-49 -38 -104 -78q-15 -11 -20 -30q-16 -58 -53 -115t-86.5 -101.5t-113.5 -66t-127 -7.5q-50 11 -82.5 43.5t-43.5 75.5t-7.5 90t21.5 89q48 108 149 178q3 2 6.5 4.5t8 5.5t7.5 4q-53 84 -2 201q46 107 141 173
q30 20 65.5 29.5t68.5 6.5t59.5 -25.5t34.5 -62.5q16 -70 -20.5 -146t-101.5 -108q-28 -14 -61 -12t-57 20q-13 11 -11.5 26.5t15.5 27t29 5.5q27 -9 52.5 3t42.5 37t27.5 53t12.5 52q2 33 -13.5 45.5t-39.5 6t-46 -18t-38 -24.5q-87 -71 -108 -188q-6 -34 13.5 -48
t54.5 -13q18 0 30.5 -10t13.5 -26q2 -20 -12 -30t-41 -16t-33 -9q-147 -64 -190 -215q-13 -46 3 -85.5t54.5 -57t84.5 -1.5q174 59 220 237q0 2 1 15.5t0 13.5q-29 -9 -77 -35q-16 -12 -38 -10.5t-30 22.5q-7 17 2 32.5t26 22.5q155 65 270 105q43 15 63 -3z" />
    <glyph glyph-name="quotesingle" unicode="'" horiz-adv-x="164" 
d="M177 838.5q18 -4.5 27.5 -23.5t9.5 -40q-1 -40 -20 -74t-56 -49q-57 -22 -79 5q-7 10 -8.5 20t2 17t11.5 14.5t15.5 12t17.5 9.5q10 6 15.5 15t6.5 16t2 20.5t2 19.5q3 19 19.5 30.5t34.5 7z" />
    <glyph glyph-name="quotesingle" unicode="&#x2019;" horiz-adv-x="164" 
d="M177 838.5q18 -4.5 27.5 -23.5t9.5 -40q-1 -40 -20 -74t-56 -49q-57 -22 -79 5q-7 10 -8.5 20t2 17t11.5 14.5t15.5 12t17.5 9.5q10 6 15.5 15t6.5 16t2 20.5t2 19.5q3 19 19.5 30.5t34.5 7z" />
    <glyph glyph-name="quotesingle" unicode="&#x2018;" horiz-adv-x="164" 
d="M177 838.5q18 -4.5 27.5 -23.5t9.5 -40q-1 -40 -20 -74t-56 -49q-57 -22 -79 5q-7 10 -8.5 20t2 17t11.5 14.5t15.5 12t17.5 9.5q10 6 15.5 15t6.5 16t2 20.5t2 19.5q3 19 19.5 30.5t34.5 7z" />
    <glyph glyph-name="parenleft" unicode="(" horiz-adv-x="316" 
d="M587 840q13 -9 17 -24t-2 -29q-5 -13 -17 -20.5t-27 -6.5q-5 0 -8 1q-79 31 -186 -117q-89 -124 -138 -277t-55 -312q-1 -24 2 -54t12 -64.5t28.5 -56.5t47.5 -20q8 1 13 1q18 -1 30 -11.5t14 -26.5q2 -17 -7.5 -31t-27.5 -18q-41 -11 -77 3t-59 44.5t-38 67t-21 74.5
q-24 155 19.5 326.5t130.5 325.5q20 36 42 68t55 70t66 62.5t74.5 36.5t81.5 1q18 -5 30 -13z" />
    <glyph glyph-name="parenright" unicode=")" horiz-adv-x="323" 
d="M273 773q53 -86 50 -222q-4 -179 -62 -355t-162 -309q-16 -19 -33 -37t-38.5 -36t-44.5 -31t-47 -21t-50 -6.5t-50 13.5q-16 7 -22.5 23t-0.5 32q6 17 21 25t32 2q71 -22 162 94q115 146 168 347q62 241 22 382q-25 89 -78 83q-21 -2 -38.5 7.5t-19.5 31.5q-2 15 6.5 28
t24.5 19q44 14 89.5 -7.5t70.5 -62.5z" />
    <glyph glyph-name="asterisk" unicode="*" horiz-adv-x="297" 
d="M251 781q22 5 36 -11t7 -37q-6 -16 -25 -34q-1 -1 -7 -6t-11 -9.5l-5 -4.5q18 -35 19 -37q13 -25 0 -49t-41 -26q-24 -3 -37 16q-1 1 -14 22q-20 -17 -21 -18q-35 -19 -54 -9q-11 5 -15.5 17t-0.5 25q3 12 18 31q1 1 9 8.5t15 14.5t7 8q-15 30 -16 31q-9 22 1.5 43
t34.5 27q27 7 43 -14q1 0 12 -15q28 23 45 27z" />
    <glyph glyph-name="plus" unicode="+" horiz-adv-x="325" 
d="M236 404q17 -2 28 -13.5t11 -28.5q1 -19 -10.5 -31.5t-31.5 -14.5q-23 -2 -48 -1q-20 1 -25 -18q-7 -29 -20 -63q-6 -18 -20.5 -27t-30.5 -6q-19 4 -29 19t-6 37q1 3 15 54q-24 2 -25 2q-20 3 -32.5 16t-11.5 31t14 30t34 13h50q15 49 17 54q9 27 37 32q22 4 38 -12.5
t12 -41.5q0 -1 -6 -28q37 -2 40 -3z" />
    <glyph glyph-name="comma" unicode="," horiz-adv-x="214" 
d="M127 61.5q18 -4.5 27.5 -23.5t9.5 -39q-1 -41 -20 -75t-56 -49q-57 -22 -79 5q-7 10 -8.5 20t2 17t11.5 14.5t15.5 12l17.5 10.5q10 5 15.5 14t6.5 16t2 20.5t2 19.5q3 19 19.5 30.5t34.5 7z" />
    <glyph glyph-name="hyphen" unicode="-" horiz-adv-x="448" 
d="M340 371q38 0 48.5 -11t9.5 -41q0 -23 -12.5 -30t-40.5 -7h-117q-3 0 -66.5 -0.5t-66.5 0.5q-27 1 -36.5 12.5t-7.5 38.5q2 25 14.5 32t42.5 7q44 0 232 -1z" />
    <glyph glyph-name="period" unicode="." horiz-adv-x="148" 
d="M53 47q20 -1 33.5 -15.5t10.5 -32.5q-3 -25 -14 -49q-7 -15 -21.5 -21.5t-29.5 -1.5t-24.5 17.5t-7.5 28.5q4 25 14 49q11 25 39 25z" />
    <glyph glyph-name="slash" unicode="/" horiz-adv-x="307" 
d="M381 670.5q15 -6.5 22 -21.5t2 -32q-1 -5 -7 -19q-29 -65 -81 -183t-95 -215t-81 -183q-16 -38 -49 -39q-20 0 -32.5 17t-8.5 37q2 9 10 27q121 273 253 572q7 16 11 22q10 15 25.5 19.5t30.5 -2z" />
    <glyph glyph-name="zero" unicode="0" horiz-adv-x="533" 
d="M477 727q13 -21 21 -49.5t10 -47.5t4 -55q-7 -187 -103 -374q-46 -89 -107 -154q-39 -43 -87.5 -70t-94.5 -19q-32 6 -56 26t-37 49t-19.5 59t-7.5 62q-2 94 30 205q59 202 174 331q27 30 61.5 53t72.5 36t75.5 0.5t63.5 -52.5zM147 422q-53 -132 -56 -249
q-1 -19 1.5 -40t8.5 -45.5t21.5 -35t38.5 0.5q52 24 92 74t77 118q53 99 80 207t3 195q-11 39 -30.5 46.5t-53.5 -13.5q-105 -65 -182 -258z" />
    <glyph glyph-name="one" unicode="1" horiz-adv-x="252" 
d="M128 480q1 1 6 22q-36 -35 -39 -37q-36 -31 -64 -8q-33 27 -8 53q15 16 31.5 35.5l27.5 32.5t30.5 38.5t25.5 33.5t29 39.5t26 35.5q13 18 21 27t23.5 17.5t31.5 7.5q26 -3 37 -19t2 -40q-155 -442 -227 -728q-6 -25 -31 -32t-44.5 6t-14.5 39q6 30 13 52q14 51 124 425z
" />
    <glyph glyph-name="two" unicode="2" horiz-adv-x="510" 
d="M121 109q-1 -1 -21 -23q79 -9 240 -53q1 -1 13.5 -4t16 -4.5t14 -5t15.5 -6t12 -7t12 -9.5q16 -18 13.5 -37.5t-21.5 -32t-40 -6.5q-174 50 -206 57q-19 5 -40.5 8t-48.5 6t-41 5q-31 4 -50 -19q-21 -26 -58.5 -21t-47.5 35q-11 34 11.5 58t58.5 34q20 6 28 14
q197 202 319 329q103 108 117 182q7 36 -16 47t-61 7q-76 -9 -138.5 -70.5t-70.5 -137.5q-3 -20 -17 -31.5t-32 -10.5q-18 2 -29.5 15t-10.5 33q1 32 10 57q20 53 57 100t84.5 82t105.5 51t115 5q41 -8 66.5 -39t29.5 -75q3 -52 -21.5 -106.5t-64.5 -100.5
q-123 -143 -303 -326z" />
    <glyph glyph-name="three" unicode="3" horiz-adv-x="509" 
d="M333 360q-18 -14 -18 -16q3 -2 8.5 -5.5t7.5 -5.5q65 -42 81 -108.5t-24 -133.5q-52 -88 -158 -123.5t-197 4.5q-68 30 -98.5 87.5t-15.5 121.5t71 112q11 9 24 10t24 -4.5t19 -15t7.5 -21t-8.5 -22.5q-4 -5 -11.5 -13t-9.5 -10q-47 -53 -29.5 -106.5t87.5 -67.5
q105 -21 187 52q25 24 37 55t3 62.5t-41 49.5q-10 6 -21.5 10t-20 6t-22.5 5t-21 5q-23 6 -30 27t9 38q10 12 25 22.5t36 23t29 17.5q53 35 96.5 83t56.5 98q8 33 -9.5 53.5t-50.5 25.5q-74 12 -132 -50q-12 -14 -7.5 -27.5t3.5 -29.5t-17 -25q-26 -13 -48.5 -3t-30.5 36
q-9 23 -0.5 50t26.5 48q47 53 119 78t137 3q54 -17 82 -64t18 -103q-11 -63 -60 -123t-113 -106z" />
    <glyph glyph-name="four" unicode="4" horiz-adv-x="523" 
d="M331 269l4 16q-27 1 -28 1q-98 -1 -203 -22q-7 -1 -30 -12q-5 -2 -17.5 -8t-19.5 -9t-18 -6t-21 -2q-33 1 -44.5 31.5t9.5 53.5q19 22 49 26q49 7 91 56q17 20 35 42t31.5 39.5t33 44.5t30 41.5t32.5 46t29 42t31.5 46t29.5 43.5q0 1 1.5 3t2.5 3q13 18 31 22.5t34 -6.5
q16 -10 17.5 -29t-4.5 -32.5t-18 -32.5q-26 -43 -57.5 -88t-75 -103t-62.5 -85q-1 0 -12 -16q78 4 155 4q3 10 18 59t21 75q7 28 19.5 44t36.5 15q57 -1 34 -78q-51 -171 -146 -475q-10 -31 -20 -46q-15 -23 -40 -21.5t-37 24.5q-8 17 -1 40q18 57 79 253z" />
    <glyph glyph-name="five" unicode="5" horiz-adv-x="426" 
d="M266 680h-21q-41 -117 -69 -194q13 -3 14 -3q41 -3 73.5 -22t51.5 -48t30.5 -65.5t11 -74t-7.5 -73.5q-16 -69 -57 -129t-99 -91q-38 -19 -81.5 -22t-84 13.5t-66.5 50.5q-20 27 -32 63t-8 66q3 21 21 31t37.5 4t26.5 -26q3 -7 11 -37.5t17 -45.5q13 -21 35.5 -28
t45.5 -2t43 18q57 35 88 109t17 140q-13 56 -52 73t-88 -13q-4 -2 -11.5 -7t-12.5 -8q-30 -17 -54 3q-13 11 -16.5 26.5t3.5 31.5q2 4 14 24q99 167 107 291q1 20 8 30.5t19.5 12.5t24.5 1t29 -4t27 -3q53 -1 133 3q20 1 34.5 -10t16.5 -29q3 -19 -9 -34t-33 -16
q-17 -2 -137 -6z" />
    <glyph glyph-name="six" unicode="6" horiz-adv-x="435" 
d="M146 462l-1 -2q-5 -10 -3 -9q61 23 111 10t81.5 -57.5t39.5 -98.5q11 -71 -11 -146t-76.5 -132.5t-126.5 -67.5q-44 -6 -78 7t-53.5 39.5t-32.5 61.5t-14.5 72t0.5 73q25 231 162 428q15 21 30.5 40t37 40.5t43 36t47.5 25.5t50.5 10t51.5 -10q18 -8 26 -23.5t2.5 -32
t-21.5 -24t-35 -2.5q-42 13 -101 -44q-72 -70 -129 -194zM149 343q-34 -38 -55 -89.5t-22 -101.5q0 -22 3.5 -42.5t13 -40.5t26.5 -26t43 1q34 12 60 42q29 34 48 81.5t21 98t-26 88.5q-15 20 -36.5 22.5t-40.5 -7t-35 -26.5z" />
    <glyph glyph-name="seven" unicode="7" horiz-adv-x="445" 
d="M362 635q0 1 9 16h-28h-61t-69 0.5t-67 9.5t-54 26q-16 13 -18 30t7.5 29t25 18.5t34.5 -1.5q51 -20 163 -23q105 -4 176 19q28 10 48.5 -6t15.5 -43q-3 -16 -21 -31q-51 -43 -111 -131q-142 -207 -277 -476q-26 -52 -45 -88q-8 -15 -16 -23q-21 -22 -49.5 -7.5
t-23.5 44.5q2 12 9 27q186 375 352 610z" />
    <glyph glyph-name="eight" unicode="8" horiz-adv-x="467" 
d="M288 387q-1 0 -23 -20q22 -40 34 -68t23 -66t7.5 -74t-20.5 -71q-20 -40 -58.5 -73.5t-83 -51.5t-93 -17.5t-86.5 24.5q-41 26 -52.5 75.5t1 98t39.5 86.5q65 91 156 159q1 1 18 14q-5 20 -5 21q-18 58 -13 125t33 119q30 55 87 87.5t121 31.5t110 -38q30 -25 32.5 -62.5
t-12 -69.5t-38.5 -61q-57 -70 -177 -169zM61 29q63 -6 122 41.5t58 109.5q0 47 -37 115q-9 17 -19 19t-24 -10q-67 -59 -105 -114q-11 -16 -21 -39.5t-17 -50.5t3.5 -47.5t39.5 -23.5zM245 611q-26 -66 -16 -161q110 92 153 143q6 7 11 14t13.5 19t13 22t7 20.5t-2.5 17
t-18 8.5q-28 4 -57.5 -1t-59.5 -26t-44 -56z" />
    <glyph glyph-name="nine" unicode="9" horiz-adv-x="455" 
d="M289 287l1 2q5 10 3 9q-61 -23 -112 -10q-49 14 -80.5 58t-40.5 99q-10 70 12 145t76.5 132.5t126.5 67.5q43 6 77 -7t53.5 -39.5t33 -61t15 -72t-1.5 -73.5q-25 -231 -162 -428q-14 -21 -30 -40t-37.5 -40.5t-43 -36t-47 -25.5t-50 -10t-51.5 10q-18 8 -26 23.5t-2.5 32
t21 24t34.5 2.5q43 -13 102 44q72 70 129 194zM286 407q34 37 55 88.5t22 101.5q0 22 -3.5 42.5t-13.5 40.5t-27 26t-43 -1q-33 -11 -59 -42q-29 -34 -48.5 -81t-21.5 -98t27 -89q15 -20 36.5 -22.5t40.5 7t35 27.5z" />
    <glyph glyph-name="colon" unicode=":" horiz-adv-x="264" 
d="M233 419q15 -5 23.5 -18.5t6.5 -29.5q-4 -23 -14 -46q-10 -25 -39 -25q-19 0 -32 13t-12 31q2 27 15 54q6 14 21 20t31 1zM172 263q19 0 33 -14t12 -33q-3 -25 -15 -51q-6 -14 -20 -20t-29 -2t-25 16t-8 27q3 26 16 56q9 20 36 21z" />
    <glyph glyph-name="semicolon" unicode=";" horiz-adv-x="291" 
d="M208 261.5q18 -4.5 27.5 -23.5t9.5 -39q-1 -41 -20 -75t-56 -48q-57 -23 -79 5q-7 10 -8.5 19.5t2 16.5t11.5 14.5t15.5 12l17.5 10.5q10 5 15.5 14t6.5 16t2 20.5t2 19.5q3 19 19.5 30.5t34.5 7zM257 422q17 -4 26 -17.5t7 -30.5q-3 -24 -13 -46q-7 -16 -23 -22.5
t-32 -0.5q-32 10 -27 53q2 20 12 40q7 15 21 21.5t29 2.5z" />
    <glyph glyph-name="less" unicode="&#x3c;" horiz-adv-x="307" 
d="M246 472q10 -11 11.5 -25.5t-6.5 -26.5q-8 -11 -25 -20q-7 -4 -68 -36q35 -34 38 -37q16 -16 21 -23q9 -14 8 -29.5t-12 -26.5q-11 -12 -27.5 -13.5t-30.5 8.5q-9 6 -32 29q-43 41 -52 52q-24 27 -20.5 54t34.5 47q36 22 105 57q15 8 30 5t26 -15z" />
    <glyph glyph-name="equal" unicode="=" horiz-adv-x="407" 
d="M243 348q46 0 46 -40q0 -26 -8 -37.5t-26 -11.5q-35 -1 -99.5 -1h-83.5q-22 -1 -31.5 10t-10.5 31t9 33t29 14q55 2 91 2h42h42zM301 468q46 0 46 -39q0 -26 -8 -37.5t-26 -12.5h-99.5t-83.5 -1q-23 0 -32 10.5t-10 31.5q-1 20 9.5 34t28.5 15h91q14 0 41.5 -0.5
t42.5 -0.5z" />
    <glyph glyph-name="greater" unicode="&#x3e;" horiz-adv-x="308" 
d="M247 394q13 -17 10 -37.5t-20 -36.5q-11 -10 -26 -19q-38 -21 -88 -47q-10 -5 -21 -7q-16 -2 -30 6t-19 23q-6 15 -1 29.5t19 23.5q3 1 41 21q22 12 34 19q-36 38 -40 43q-15 16 -19 23q-7 13 -5 27t13 25q22 22 51 7h1q1 0 2 -1q9 -9 31 -30t37.5 -37t29.5 -32z" />
    <glyph glyph-name="question" unicode="?" horiz-adv-x="444" 
d="M521 768q55 -20 82.5 -65.5t17.5 -100.5q-4 -24 -15 -48t-31.5 -51t-31.5 -40.5t-37 -41.5q-24 -27 -52.5 -56t-64 -64t-54.5 -54q-9 -8 -32.5 -31.5l-35.5 -35.5t-32 -35t-31 -40t-21.5 -40.5t-14.5 -45.5q-4 -21 -20.5 -31t-36.5 -6q-37 9 -31 45q5 32 17.5 61.5
t36.5 60.5t39.5 48.5t47.5 50.5q24 24 78 79.5t82 85.5l30 30t33 34t27.5 31t28.5 37t21 37q26 53 -6 88t-88 40q-94 -1 -155 -62q-21 -21 -37 -56t-13 -71.5t35 -50.5q20 -9 20 -28t-19 -31q-32 -18 -59.5 -3.5t-46 44.5t-20.5 58q-5 47 10.5 91t45 77t70 58t84.5 37
t91 11.5t88 -16.5zM110 -59q20 -4 28.5 -19t5.5 -34q-8 -40 -19.5 -56t-39.5 -11q-16 4 -26 17t-9 30q2 23 10 45q5 16 19.5 24t30.5 4z" />
    <glyph glyph-name="at" unicode="@" horiz-adv-x="720" 
d="M564 504q53 -35 80.5 -105t25.5 -143.5t-34 -142.5t-88 -102q-43 -24 -79.5 -7.5t-46.5 64.5q-1 3 -6 57q-51 -63 -73 -86q-19 -20 -45 -26t-47 7.5t-24 44.5q-11 112 94 248q19 25 45.5 41.5t57 18.5t55.5 -24q26 -26 20 -59q30 -20 19 -68q-10 -38 -24 -114
q-5 -25 2 -28t27.5 15.5t31.5 36.5q38 59 34 142.5t-48 138.5q-28 35 -67 42.5t-77 -8.5t-71 -41t-56 -56q-33 -42 -54 -93t-25.5 -107t16.5 -105q19 -44 56.5 -65.5t85.5 -14.5q2 1 11.5 2.5t13.5 1.5t12 0.5t12.5 -1t10.5 -4t9.5 -8t5.5 -13.5q8 -26 -10.5 -40t-47.5 -19
q-73 -13 -134.5 19t-93.5 100q-37 82 -26 169.5t54.5 166t109.5 133.5q41 34 88.5 52t101 14t98.5 -34zM321 138q55 65 115 135q-12 14 -18 15t-19 -10q-12 -11 -21.5 -23t-19.5 -29.5t-14 -25t-15 -32t-13 -28.5q1 0 2.5 -1t2.5 -1z" />
    <glyph glyph-name="A" unicode="A" horiz-adv-x="639" 
d="M471 200q1 4 12 60q-46 14 -97 -6q-4 -2 -17 -19q-169 -231 -170 -232q-28 -38 -66 -78q-26 -28 -70 -42q-62 -19 -63 35v5q1 23 9 49q34 106 127 201q87 89 177 136q12 5 25 24q48 65 137 189t130 181q2 3 7 10t8 11t9 11.5t9.5 11.5t10 11t10.5 9.5t11.5 8t12.5 6t13 3
t13 -0.5q15 -2 22 -12t7 -24t-3 -26t-7 -24q-34 -88 -78 -199q-133 -335 -97 -554q3 -19 -9.5 -40t-31.5 -27q-14 -4 -24.5 1.5t-16.5 19t-8.5 25.5t-4.5 25q-11 104 13 251zM546 483q-18 -25 -97 -135q12 -1 31 -2t24 -1q4 11 21 60.5t26 75.5q-1 1 -2.5 1.5t-2.5 0.5z" />
    <glyph glyph-name="A" unicode="&#xc5;" horiz-adv-x="639" 
d="M471 200q1 4 12 60q-46 14 -97 -6q-4 -2 -17 -19q-169 -231 -170 -232q-28 -38 -66 -78q-26 -28 -70 -42q-62 -19 -63 35v5q1 23 9 49q34 106 127 201q87 89 177 136q12 5 25 24q48 65 137 189t130 181q2 3 7 10t8 11t9 11.5t9.5 11.5t10 11t10.5 9.5t11.5 8t12.5 6t13 3
t13 -0.5q15 -2 22 -12t7 -24t-3 -26t-7 -24q-34 -88 -78 -199q-133 -335 -97 -554q3 -19 -9.5 -40t-31.5 -27q-14 -4 -24.5 1.5t-16.5 19t-8.5 25.5t-4.5 25q-11 104 13 251zM546 483q-18 -25 -97 -135q12 -1 31 -2t24 -1q4 11 21 60.5t26 75.5q-1 1 -2.5 1.5t-2.5 0.5z" />
    <glyph glyph-name="A" unicode="&#xc4;" horiz-adv-x="639" 
d="M471 200q1 4 12 60q-46 14 -97 -6q-4 -2 -17 -19q-169 -231 -170 -232q-28 -38 -66 -78q-26 -28 -70 -42q-62 -19 -63 35v5q1 23 9 49q34 106 127 201q87 89 177 136q12 5 25 24q48 65 137 189t130 181q2 3 7 10t8 11t9 11.5t9.5 11.5t10 11t10.5 9.5t11.5 8t12.5 6t13 3
t13 -0.5q15 -2 22 -12t7 -24t-3 -26t-7 -24q-34 -88 -78 -199q-133 -335 -97 -554q3 -19 -9.5 -40t-31.5 -27q-14 -4 -24.5 1.5t-16.5 19t-8.5 25.5t-4.5 25q-11 104 13 251zM546 483q-18 -25 -97 -135q12 -1 31 -2t24 -1q4 11 21 60.5t26 75.5q-1 1 -2.5 1.5t-2.5 0.5z" />
    <glyph glyph-name="A" unicode="&#xc3;" horiz-adv-x="639" 
d="M471 200q1 4 12 60q-46 14 -97 -6q-4 -2 -17 -19q-169 -231 -170 -232q-28 -38 -66 -78q-26 -28 -70 -42q-62 -19 -63 35v5q1 23 9 49q34 106 127 201q87 89 177 136q12 5 25 24q48 65 137 189t130 181q2 3 7 10t8 11t9 11.5t9.5 11.5t10 11t10.5 9.5t11.5 8t12.5 6t13 3
t13 -0.5q15 -2 22 -12t7 -24t-3 -26t-7 -24q-34 -88 -78 -199q-133 -335 -97 -554q3 -19 -9.5 -40t-31.5 -27q-14 -4 -24.5 1.5t-16.5 19t-8.5 25.5t-4.5 25q-11 104 13 251zM546 483q-18 -25 -97 -135q12 -1 31 -2t24 -1q4 11 21 60.5t26 75.5q-1 1 -2.5 1.5t-2.5 0.5z" />
    <glyph glyph-name="A" unicode="&#xc2;" horiz-adv-x="639" 
d="M471 200q1 4 12 60q-46 14 -97 -6q-4 -2 -17 -19q-169 -231 -170 -232q-28 -38 -66 -78q-26 -28 -70 -42q-62 -19 -63 35v5q1 23 9 49q34 106 127 201q87 89 177 136q12 5 25 24q48 65 137 189t130 181q2 3 7 10t8 11t9 11.5t9.5 11.5t10 11t10.5 9.5t11.5 8t12.5 6t13 3
t13 -0.5q15 -2 22 -12t7 -24t-3 -26t-7 -24q-34 -88 -78 -199q-133 -335 -97 -554q3 -19 -9.5 -40t-31.5 -27q-14 -4 -24.5 1.5t-16.5 19t-8.5 25.5t-4.5 25q-11 104 13 251zM546 483q-18 -25 -97 -135q12 -1 31 -2t24 -1q4 11 21 60.5t26 75.5q-1 1 -2.5 1.5t-2.5 0.5z" />
    <glyph glyph-name="A" unicode="&#xc1;" horiz-adv-x="639" 
d="M471 200q1 4 12 60q-46 14 -97 -6q-4 -2 -17 -19q-169 -231 -170 -232q-28 -38 -66 -78q-26 -28 -70 -42q-62 -19 -63 35v5q1 23 9 49q34 106 127 201q87 89 177 136q12 5 25 24q48 65 137 189t130 181q2 3 7 10t8 11t9 11.5t9.5 11.5t10 11t10.5 9.5t11.5 8t12.5 6t13 3
t13 -0.5q15 -2 22 -12t7 -24t-3 -26t-7 -24q-34 -88 -78 -199q-133 -335 -97 -554q3 -19 -9.5 -40t-31.5 -27q-14 -4 -24.5 1.5t-16.5 19t-8.5 25.5t-4.5 25q-11 104 13 251zM546 483q-18 -25 -97 -135q12 -1 31 -2t24 -1q4 11 21 60.5t26 75.5q-1 1 -2.5 1.5t-2.5 0.5z" />
    <glyph glyph-name="A" unicode="&#xc0;" horiz-adv-x="639" 
d="M471 200q1 4 12 60q-46 14 -97 -6q-4 -2 -17 -19q-169 -231 -170 -232q-28 -38 -66 -78q-26 -28 -70 -42q-62 -19 -63 35v5q1 23 9 49q34 106 127 201q87 89 177 136q12 5 25 24q48 65 137 189t130 181q2 3 7 10t8 11t9 11.5t9.5 11.5t10 11t10.5 9.5t11.5 8t12.5 6t13 3
t13 -0.5q15 -2 22 -12t7 -24t-3 -26t-7 -24q-34 -88 -78 -199q-133 -335 -97 -554q3 -19 -9.5 -40t-31.5 -27q-14 -4 -24.5 1.5t-16.5 19t-8.5 25.5t-4.5 25q-11 104 13 251zM546 483q-18 -25 -97 -135q12 -1 31 -2t24 -1q4 11 21 60.5t26 75.5q-1 1 -2.5 1.5t-2.5 0.5z" />
    <glyph glyph-name="B" unicode="B" horiz-adv-x="748" 
d="M488 349q-1 -1 -24 -19q66 -8 85 -13q85 -24 118 -85.5t4 -140.5q-22 -62 -70.5 -116t-110 -91.5t-127.5 -63t-132 -37.5q-44 -6 -88 -6t-89.5 17t-71.5 49q-16 20 -17 40.5t20 36.5q12 8 29.5 5.5t26.5 -13.5q39 -47 122 -44q168 7 318 128q78 63 102 143
q13 42 -19.5 68t-78.5 29q-107 6 -236 -56q4 -23 4 -24q24 -133 -84 -233q-19 -17 -44.5 -21t-47.5 9q-38 23 -30 71q19 101 70 217q12 27 1 50q-26 54 -25 113t28 113q30 61 78 118t106.5 103t129 70t138.5 17q59 -7 94 -47.5t30 -100.5q-4 -42 -23.5 -83t-51.5 -78
t-63 -66t-71 -59zM289 340q-1 -1 -12 -22q1 -1 2.5 -2t1.5 -2q53 33 73.5 46.5t59.5 42.5t67 55q27 25 44 43.5t37.5 45t31.5 54.5t14 57q3 43 -69 41q-90 -2 -195 -87q-86 -69 -136 -163q-32 -62 -22 -107q15 24 15 25q82 122 109 163q8 11 17 19q14 11 32.5 10t30.5 -13
q25 -25 0 -60q-28 -40 -101 -146z" />
    <glyph glyph-name="C" unicode="C" horiz-adv-x="458" 
d="M390 455q1 -1 13 -21q25 7 46 31q31 37 52 86t14 91q-3 23 -18.5 35t-35 11.5t-40.5 -5.5q-72 -20 -136 -93q-176 -201 -194 -449q-2 -29 1.5 -59t14 -59.5t34 -45.5t56.5 -11q20 4 41 14t37.5 20t38 31t33.5 33t33.5 39.5t28.5 36.5t28 38.5t24 33.5q12 17 29 21.5
t33 -5.5q17 -10 21 -28t-8 -36q-44 -73 -106.5 -144t-122.5 -108q-48 -29 -100 -34t-103 20q-100 54 -104 209q-4 154 75 327q32 69 72 129.5t98 116.5t121 83q36 15 74.5 18.5t72.5 -6t59.5 -36.5t32.5 -69q12 -70 -18 -148t-84 -132q-29 -29 -69.5 -40.5t-76.5 4.5t-47 62
q-5 17 3 32t21.5 21t29.5 3t26 -17z" />
    <glyph glyph-name="C" unicode="&#xc7;" horiz-adv-x="458" 
d="M390 455q1 -1 13 -21q25 7 46 31q31 37 52 86t14 91q-3 23 -18.5 35t-35 11.5t-40.5 -5.5q-72 -20 -136 -93q-176 -201 -194 -449q-2 -29 1.5 -59t14 -59.5t34 -45.5t56.5 -11q20 4 41 14t37.5 20t38 31t33.5 33t33.5 39.5t28.5 36.5t28 38.5t24 33.5q12 17 29 21.5
t33 -5.5q17 -10 21 -28t-8 -36q-44 -73 -106.5 -144t-122.5 -108q-48 -29 -100 -34t-103 20q-100 54 -104 209q-4 154 75 327q32 69 72 129.5t98 116.5t121 83q36 15 74.5 18.5t72.5 -6t59.5 -36.5t32.5 -69q12 -70 -18 -148t-84 -132q-29 -29 -69.5 -40.5t-76.5 4.5t-47 62
q-5 17 3 32t21.5 21t29.5 3t26 -17z" />
    <glyph glyph-name="D" unicode="D" horiz-adv-x="730" 
d="M175 341q5 -1 6 -1q10 22 11 22q62 114 88 161q7 11 16 20q13 12 29.5 12t27.5 -10.5t15.5 -25t-7.5 -31.5q-45 -64 -92 -164q-14 -29 -27 -71q-10 -33 6 -70q53 -126 -45 -244q-19 -22 -47.5 -29t-52 7t-26.5 47q-3 35 3 63q17 70 45 170q7 24 -2 40q-69 120 -6 251
q48 98 127 178t172 107q67 17 119 4t90 -53t60 -91.5t29 -111.5q18 -148 -29 -297t-147 -261q-38 -44 -89.5 -81.5t-112 -62t-119.5 -30.5t-117 16t-100 75q-16 19 -29 43q-12 22 -0.5 46t34.5 26q11 1 20 -4.5t13.5 -11.5t11.5 -18t10 -17q35 -49 87 -65.5t105 -2t102 43.5
t85 68q191 203 193 471q1 28 -4.5 61t-18 68.5t-31 63t-47.5 41.5t-64 6q-88 -20 -162 -93t-114 -164q-22 -52 -16 -101z" />
    <glyph glyph-name="E" unicode="E" horiz-adv-x="430" 
d="M107 214q3 4 9.5 11t9.5 10q-78 38 -65 138q13 97 78.5 189.5t154 159t165.5 62.5q39 -2 66 -26.5t33 -63.5q13 -88 -50 -168q-12 -15 -28 -30t-37.5 -30t-41.5 -14t-33 23q-8 14 -5 30t16 27q4 3 11 7.5t10 6.5q57 43 67 105q5 25 -11.5 35t-38.5 6t-38 -14
q-152 -98 -216 -267q-6 -13 -9.5 -29t-4.5 -34.5t8.5 -28t29.5 -4.5q36 8 81 41q23 16 45 5q29 -14 31 -46t-27 -46q-80 -39 -148 -109.5t-77 -146.5q-1 -12 -1 -23t7.5 -18t23.5 -5q9 1 19 5t18.5 8t20.5 12.5t19.5 14t21 17t19 16t19.5 17.5t17 15q58 52 166 152
q22 20 48 5q18 -11 22 -30.5t-11 -35.5q-6 -5 -18 -16q-60 -58 -95.5 -91t-93.5 -79.5t-107 -76.5q-34 -20 -73.5 -22t-71.5 19.5t-39 64.5q-20 113 104 252z" />
    <glyph glyph-name="E" unicode="&#xcb;" horiz-adv-x="430" 
d="M107 214q3 4 9.5 11t9.5 10q-78 38 -65 138q13 97 78.5 189.5t154 159t165.5 62.5q39 -2 66 -26.5t33 -63.5q13 -88 -50 -168q-12 -15 -28 -30t-37.5 -30t-41.5 -14t-33 23q-8 14 -5 30t16 27q4 3 11 7.5t10 6.5q57 43 67 105q5 25 -11.5 35t-38.5 6t-38 -14
q-152 -98 -216 -267q-6 -13 -9.5 -29t-4.5 -34.5t8.5 -28t29.5 -4.5q36 8 81 41q23 16 45 5q29 -14 31 -46t-27 -46q-80 -39 -148 -109.5t-77 -146.5q-1 -12 -1 -23t7.5 -18t23.5 -5q9 1 19 5t18.5 8t20.5 12.5t19.5 14t21 17t19 16t19.5 17.5t17 15q58 52 166 152
q22 20 48 5q18 -11 22 -30.5t-11 -35.5q-6 -5 -18 -16q-60 -58 -95.5 -91t-93.5 -79.5t-107 -76.5q-34 -20 -73.5 -22t-71.5 19.5t-39 64.5q-20 113 104 252z" />
    <glyph glyph-name="E" unicode="&#xca;" horiz-adv-x="430" 
d="M107 214q3 4 9.5 11t9.5 10q-78 38 -65 138q13 97 78.5 189.5t154 159t165.5 62.5q39 -2 66 -26.5t33 -63.5q13 -88 -50 -168q-12 -15 -28 -30t-37.5 -30t-41.5 -14t-33 23q-8 14 -5 30t16 27q4 3 11 7.5t10 6.5q57 43 67 105q5 25 -11.5 35t-38.5 6t-38 -14
q-152 -98 -216 -267q-6 -13 -9.5 -29t-4.5 -34.5t8.5 -28t29.5 -4.5q36 8 81 41q23 16 45 5q29 -14 31 -46t-27 -46q-80 -39 -148 -109.5t-77 -146.5q-1 -12 -1 -23t7.5 -18t23.5 -5q9 1 19 5t18.5 8t20.5 12.5t19.5 14t21 17t19 16t19.5 17.5t17 15q58 52 166 152
q22 20 48 5q18 -11 22 -30.5t-11 -35.5q-6 -5 -18 -16q-60 -58 -95.5 -91t-93.5 -79.5t-107 -76.5q-34 -20 -73.5 -22t-71.5 19.5t-39 64.5q-20 113 104 252z" />
    <glyph glyph-name="E" unicode="&#xc9;" horiz-adv-x="430" 
d="M107 214q3 4 9.5 11t9.5 10q-78 38 -65 138q13 97 78.5 189.5t154 159t165.5 62.5q39 -2 66 -26.5t33 -63.5q13 -88 -50 -168q-12 -15 -28 -30t-37.5 -30t-41.5 -14t-33 23q-8 14 -5 30t16 27q4 3 11 7.5t10 6.5q57 43 67 105q5 25 -11.5 35t-38.5 6t-38 -14
q-152 -98 -216 -267q-6 -13 -9.5 -29t-4.5 -34.5t8.5 -28t29.5 -4.5q36 8 81 41q23 16 45 5q29 -14 31 -46t-27 -46q-80 -39 -148 -109.5t-77 -146.5q-1 -12 -1 -23t7.5 -18t23.5 -5q9 1 19 5t18.5 8t20.5 12.5t19.5 14t21 17t19 16t19.5 17.5t17 15q58 52 166 152
q22 20 48 5q18 -11 22 -30.5t-11 -35.5q-6 -5 -18 -16q-60 -58 -95.5 -91t-93.5 -79.5t-107 -76.5q-34 -20 -73.5 -22t-71.5 19.5t-39 64.5q-20 113 104 252z" />
    <glyph glyph-name="E" unicode="&#xc8;" horiz-adv-x="430" 
d="M107 214q3 4 9.5 11t9.5 10q-78 38 -65 138q13 97 78.5 189.5t154 159t165.5 62.5q39 -2 66 -26.5t33 -63.5q13 -88 -50 -168q-12 -15 -28 -30t-37.5 -30t-41.5 -14t-33 23q-8 14 -5 30t16 27q4 3 11 7.5t10 6.5q57 43 67 105q5 25 -11.5 35t-38.5 6t-38 -14
q-152 -98 -216 -267q-6 -13 -9.5 -29t-4.5 -34.5t8.5 -28t29.5 -4.5q36 8 81 41q23 16 45 5q29 -14 31 -46t-27 -46q-80 -39 -148 -109.5t-77 -146.5q-1 -12 -1 -23t7.5 -18t23.5 -5q9 1 19 5t18.5 8t20.5 12.5t19.5 14t21 17t19 16t19.5 17.5t17 15q58 52 166 152
q22 20 48 5q18 -11 22 -30.5t-11 -35.5q-6 -5 -18 -16q-60 -58 -95.5 -91t-93.5 -79.5t-107 -76.5q-34 -20 -73.5 -22t-71.5 19.5t-39 64.5q-20 113 104 252z" />
    <glyph glyph-name="F" unicode="F" horiz-adv-x="507" 
d="M125 272q4 9 10 17.5t15.5 16.5t15.5 12.5t19 13.5t17 11l-7 7t-7 7.5t-6 6.5q-10 11 -39 40.5t-44 46t-36.5 43t-35 52t-22.5 52.5q-16 54 16 92.5t89 59.5q47 18 96 30.5t113 21t94.5 12t115.5 9.5t100 7q13 1 40.5 1.5t41.5 1.5q18 2 32 -12t14 -32t-14 -32.5
t-32 -15.5q-41 -1 -219 -11q-2 0 -45 -4q-19 -55 -56.5 -163.5t-56.5 -163.5q82 20 135 26q24 3 39 -8t16 -31q1 -19 -12 -32t-36 -17q-22 -4 -77 -15.5t-54 -14.5q9 -45 7 -78q-11 -132 -114 -280q-10 -16 -23.5 -26.5t-31 -13.5t-32.5 12q-26 24 -17 73q5 27 36 169l6 26
q-22 9 -24 10q-21 11 -28.5 30.5t1.5 42.5zM249 428q11 33 31 91.5t36.5 106t32.5 89.5q0 2 -17 -1q-106 -17 -184 -45q-31 -10 -41 -24q-4 -5 -6 -11t-1 -12.5t2 -12.5t4.5 -13.5t6.5 -12.5t8.5 -12.5t8 -11t8 -10.5t7.5 -9q26 -34 104 -112z" />
    <glyph glyph-name="G" unicode="G" horiz-adv-x="576" 
d="M430 252q1 3 -1 3.5t-3 -1.5q-11 -16 -16 -25q-87 -140 -93 -149q-22 -32 -31 -45t-31 -41.5t-38 -43.5t-40 -32.5t-48 -26.5q-36 -11 -60.5 -1.5t-39 36.5t-20.5 56.5t-5 59.5q8 232 165 517q82 148 191 206q54 29 107 15t88 -64q31 -46 41 -120q2 -19 -9.5 -32
t-27.5 -15.5t-31.5 5.5t-20.5 27q-2 6 -6.5 26t-7.5 29t-10.5 23t-17.5 23q-16 14 -35.5 15t-38.5 -10t-37 -26t-35 -36t-28 -36.5t-20 -30.5q-64 -101 -109 -219.5t-61 -232.5q-2 -14 -7 -81q-1 -23 9 -35.5t31 2.5q31 28 64 70.5t47.5 65.5t50.5 82q72 117 166 268
q14 23 31 29.5t43 -0.5q41 -10 35 -52q-1 -9 -9 -45q-25 -111 -48.5 -196.5t-56.5 -186.5t-76 -193t-95 -171q-80 -122 -161 -150q-45 -14 -82.5 -1.5t-64.5 44.5t-43 72t-19 79q-1 12 5 23t15 16.5t19 7t19 -5t13 -20.5q16 -59 24 -80q18 -48 53.5 -54.5t72.5 27.5
q69 63 117 156t91 214q9 25 79 242q4 10 6 19z" />
    <glyph glyph-name="H" unicode="H" horiz-adv-x="562" 
d="M406 267l8 32q-94 -1 -215 -21q-2 -6 -6.5 -22t-6.5 -24q2 -2 5 -4.5t5.5 -4.5t4.5 -3q55 -43 48 -115q-7 -60 -30 -119.5t-61 -91.5q-29 -25 -61 -15.5t-41 45.5q-6 23 -8 47t2 54t7 47t11 53.5t10 45.5l4 16q-4 2 -24 12.5t-30 17.5q-24 16 -27.5 38t16.5 44
q34 36 93 55q16 5 22 21q33 94 135 377q2 7 5 11q9 16 25.5 22t33.5 -1.5t23.5 -23.5t-0.5 -34q-101 -273 -117 -317q-1 -2 -10 -32q39 3 110 8.5t103 8.5q2 5 4.5 14.5t5 18t5.5 16.5q60 205 104 308q16 37 54 33q22 -2 32.5 -19t2.5 -37q-105 -253 -196 -653
q-18 -82 -19 -130v-12v-11.5t-1 -11t-2 -10.5t-3.5 -9.5t-6 -8.5t-9 -7t-12.5 -4q-26 -7 -41 8.5t-18 37t0 44.5q14 98 66 306z" />
    <glyph glyph-name="I" unicode="I" horiz-adv-x="242" 
d="M6 -49q101 426 116 486q-54 43 -37 127q5 24 23.5 64.5t47 83.5t60 62.5t63.5 -0.5q17 -12 10 -44q-11 -49 -27 -112q-6 -23 -41.5 -166t-54.5 -219q-14 -58 -39.5 -167t-29.5 -128q-6 -23 -11 -36q-10 -24 -32.5 -28t-39.5 11.5t-13 40.5q0 4 1 8t2.5 9t1.5 8z" />
    <glyph glyph-name="I" unicode="&#xcf;" horiz-adv-x="242" 
d="M6 -49q101 426 116 486q-54 43 -37 127q5 24 23.5 64.5t47 83.5t60 62.5t63.5 -0.5q17 -12 10 -44q-11 -49 -27 -112q-6 -23 -41.5 -166t-54.5 -219q-14 -58 -39.5 -167t-29.5 -128q-6 -23 -11 -36q-10 -24 -32.5 -28t-39.5 11.5t-13 40.5q0 4 1 8t2.5 9t1.5 8z" />
    <glyph glyph-name="I" unicode="&#xce;" horiz-adv-x="242" 
d="M6 -49q101 426 116 486q-54 43 -37 127q5 24 23.5 64.5t47 83.5t60 62.5t63.5 -0.5q17 -12 10 -44q-11 -49 -27 -112q-6 -23 -41.5 -166t-54.5 -219q-14 -58 -39.5 -167t-29.5 -128q-6 -23 -11 -36q-10 -24 -32.5 -28t-39.5 11.5t-13 40.5q0 4 1 8t2.5 9t1.5 8z" />
    <glyph glyph-name="I" unicode="&#xcd;" horiz-adv-x="242" 
d="M6 -49q101 426 116 486q-54 43 -37 127q5 24 23.5 64.5t47 83.5t60 62.5t63.5 -0.5q17 -12 10 -44q-11 -49 -27 -112q-6 -23 -41.5 -166t-54.5 -219q-14 -58 -39.5 -167t-29.5 -128q-6 -23 -11 -36q-10 -24 -32.5 -28t-39.5 11.5t-13 40.5q0 4 1 8t2.5 9t1.5 8z" />
    <glyph glyph-name="I" unicode="&#xcc;" horiz-adv-x="242" 
d="M6 -49q101 426 116 486q-54 43 -37 127q5 24 23.5 64.5t47 83.5t60 62.5t63.5 -0.5q17 -12 10 -44q-11 -49 -27 -112q-6 -23 -41.5 -166t-54.5 -219q-14 -58 -39.5 -167t-29.5 -128q-6 -23 -11 -36q-10 -24 -32.5 -28t-39.5 11.5t-13 40.5q0 4 1 8t2.5 9t1.5 8z" />
    <glyph glyph-name="J" unicode="J" horiz-adv-x="560" 
d="M484 685q-1 3 -5 4t-6 -3q-68 -109 -62 -294q1 -26 1 -28q-2 -27 -22.5 -39.5t-42 -3t-24.5 37.5q-17 149 38 298q42 113 109 126q29 6 52 -7t36 -38.5t20 -51.5t10 -52q12 -145 -44.5 -306t-151.5 -309q-24 -37 -50.5 -69.5t-61.5 -66.5t-76 -54t-81 -19
q-47 0 -78.5 38.5t-40.5 88.5q-16 87 25.5 174.5t116.5 137.5q32 18 58 13t40.5 -30.5t6.5 -58.5q-6 -25 -29 -39t-52 -25t-42 -24q-28 -30 -38 -75t8 -81q12 -22 31.5 -25t41.5 11t43 33t42 45t33.5 43.5t20.5 31.5q36 55 65 110.5t56 121t41 127.5t19.5 130t-7.5 128z" />
    <glyph glyph-name="K" unicode="K" horiz-adv-x="452" 
d="M233 320q-23 -13 -25 -14q11 -36 12 -38q51 -158 112 -255q1 -2 3 -7q14 -22 24.5 -36.5t29 -37.5t37.5 -31.5t36 -0.5t36 0.5t26 -24.5q6 -16 0.5 -31t-21.5 -24q-24 -15 -51 -15.5t-50 10t-46.5 28.5t-40.5 37t-32 41q-53 72 -103 192q-1 1 -16 42q-33 -158 -40 -234
q-4 -33 -34 -39q-19 -4 -33.5 6t-13.5 29q3 95 38 277q-7 3 -39 18q-40 19 -42 49.5t31 56.5q7 5 50.5 24.5t50.5 38.5q17 48 112 312q0 1 9.5 27.5t14.5 39.5q13 34 47 31q24 -2 35.5 -20.5t2.5 -42.5q-98 -261 -103 -274q0 -1 -6 -22q15 7 16 8q238 149 308 311
q8 19 26 28.5t37 -0.5q14 -6 21 -19t3 -27q-25 -92 -134 -202q-119 -120 -288 -212z" />
    <glyph glyph-name="L" unicode="L" horiz-adv-x="334" 
d="M140 -32v-9q191 15 338 -8q20 -3 33.5 -17t11.5 -34q-6 -42 -70 -36q-12 1 -53 5.5t-58 5.5t-52 3t-57.5 0.5t-52 -6t-55.5 -11.5q-39 -12 -56 -33q-18 -21 -44.5 -10t-24.5 38q1 15 13.5 41t14.5 31q40 117 82 256.5t68 236t70 264.5q5 20 13 38t21 37t32.5 28.5
t43.5 4.5q65 -13 48 -150q-12 -101 -53 -195.5t-106 -194.5q-3 -4 -24.5 -28t-23.5 -39q-21 -124 -59 -218z" />
    <glyph glyph-name="M" unicode="M" horiz-adv-x="762" 
d="M372 135q0 -6 2.5 -7t4.5 2q9 13 17 26q38 61 161 286q55 101 174 314q43 78 92 52q37 -19 26 -63q-4 -14 -14 -40.5t-13 -33.5q-5 -15 -24 -71t-26 -77.5t-24 -73.5t-24.5 -79t-21 -73.5t-19.5 -77t-13.5 -68.5t-10.5 -70t-3 -62q0 -10 2 -27t3 -29t-0.5 -24.5t-9.5 -20
t-22 -8.5q-25 -3 -40.5 10.5t-19.5 35.5t-5.5 46t0.5 42q7 132 40 258q6 22 8 30q1 3 -0.5 4t-2.5 -2q-5 -8 -15 -25q-93 -161 -105 -180q-43 -71 -86 -95q-29 -17 -58 -8.5t-44 38.5q-8 16 -12.5 37.5t-6 37t0.5 43.5t3.5 38.5t6.5 42.5t6 37q4 26 10 82q-14 -28 -28 -60.5
t-31.5 -75t-25.5 -61.5q-61 -143 -101 -230q-10 -21 -27.5 -35.5t-39 -13.5t-37.5 25q-34 51 -6 168q5 23 47 172q12 41 39 45q26 4 40 -11.5t15 -43.5q30 59 92.5 191.5t99.5 201.5q18 35 37 69q5 10 7.5 14t8 13t9.5 13t11 10t13 8t14.5 2.5t16.5 -3.5q16 -5 25 -19.5
t6 -32.5q-1 -12 -12 -52q-83 -319 -109 -512q-1 -5 -1 -29z" />
    <glyph glyph-name="N" unicode="N" horiz-adv-x="644" 
d="M438 56q2 -4 4 -3.5t3 4.5q60 303 182 671q17 50 46 56q15 3 30.5 -3.5t24.5 -20.5q2 -3 3 -7t1.5 -8t1 -7t-0.5 -8l-1.5 -7.5t-2.5 -8t-2.5 -7.5t-2.5 -8t-3 -7q-137 -370 -184 -689q-4 -22 -6.5 -36t-10 -37.5t-20 -36t-29.5 -13.5q-27 -1 -51.5 23t-42 63.5t-29 76
t-18.5 71.5q-28 140 -26 342q1 37 -1 38q-1 0 -4 -8q-1 -5 -4 -14.5t-5 -14.5q-148 -482 -149 -484q0 -1 -4.5 -17t-6.5 -20t-7 -17t-9.5 -18t-11.5 -12.5t-16 -10t-19 -2.5q-66 4 -67 124q-1 112 31 244q8 30 29 41t40 1q23 -11 26 -47q10 30 15 47q67 209 160 438
q6 14 10 22t11 18.5t17.5 15t23.5 5.5q23 0 37.5 -14t11.5 -36q-47 -398 26 -679z" />
    <glyph glyph-name="N" unicode="&#xd1;" horiz-adv-x="644" 
d="M438 56q2 -4 4 -3.5t3 4.5q60 303 182 671q17 50 46 56q15 3 30.5 -3.5t24.5 -20.5q2 -3 3 -7t1.5 -8t1 -7t-0.5 -8l-1.5 -7.5t-2.5 -8t-2.5 -7.5t-2.5 -8t-3 -7q-137 -370 -184 -689q-4 -22 -6.5 -36t-10 -37.5t-20 -36t-29.5 -13.5q-27 -1 -51.5 23t-42 63.5t-29 76
t-18.5 71.5q-28 140 -26 342q1 37 -1 38q-1 0 -4 -8q-1 -5 -4 -14.5t-5 -14.5q-148 -482 -149 -484q0 -1 -4.5 -17t-6.5 -20t-7 -17t-9.5 -18t-11.5 -12.5t-16 -10t-19 -2.5q-66 4 -67 124q-1 112 31 244q8 30 29 41t40 1q23 -11 26 -47q10 30 15 47q67 209 160 438
q6 14 10 22t11 18.5t17.5 15t23.5 5.5q23 0 37.5 -14t11.5 -36q-47 -398 26 -679z" />
    <glyph glyph-name="O" unicode="O" horiz-adv-x="596" 
d="M42 193q0 1 4 34q-31 11 -40 25t-4 44q37 201 156 353q36 45 82.5 78t97 49t101.5 0t88 -67q36 -51 49.5 -122t8.5 -134.5t-21 -130.5q-31 -125 -95.5 -235.5t-158.5 -170.5q-41 -25 -84.5 -34t-86 6t-67.5 57q-54 91 -30 248zM351 688q-44 -14 -90 -58q33 16 58.5 23
t56.5 2.5t56 -27.5q14 -13 16.5 -30.5t-7.5 -31.5q-11 -14 -27.5 -17t-33.5 9q-42 29 -113 -47q-74 -81 -112 -203t-30 -235q7 -90 53 -102q26 -7 54.5 3t54 32t44 42.5t35.5 44.5q72 99 108 224t19 239q-5 29 -15 55t-27.5 49t-41.5 30t-58 -2z" />
    <glyph glyph-name="O" unicode="&#xd8;" horiz-adv-x="596" 
d="M42 193q0 1 4 34q-31 11 -40 25t-4 44q37 201 156 353q36 45 82.5 78t97 49t101.5 0t88 -67q36 -51 49.5 -122t8.5 -134.5t-21 -130.5q-31 -125 -95.5 -235.5t-158.5 -170.5q-41 -25 -84.5 -34t-86 6t-67.5 57q-54 91 -30 248zM351 688q-44 -14 -90 -58q33 16 58.5 23
t56.5 2.5t56 -27.5q14 -13 16.5 -30.5t-7.5 -31.5q-11 -14 -27.5 -17t-33.5 9q-42 29 -113 -47q-74 -81 -112 -203t-30 -235q7 -90 53 -102q26 -7 54.5 3t54 32t44 42.5t35.5 44.5q72 99 108 224t19 239q-5 29 -15 55t-27.5 49t-41.5 30t-58 -2z" />
    <glyph glyph-name="O" unicode="&#xd6;" horiz-adv-x="596" 
d="M42 193q0 1 4 34q-31 11 -40 25t-4 44q37 201 156 353q36 45 82.5 78t97 49t101.5 0t88 -67q36 -51 49.5 -122t8.5 -134.5t-21 -130.5q-31 -125 -95.5 -235.5t-158.5 -170.5q-41 -25 -84.5 -34t-86 6t-67.5 57q-54 91 -30 248zM351 688q-44 -14 -90 -58q33 16 58.5 23
t56.5 2.5t56 -27.5q14 -13 16.5 -30.5t-7.5 -31.5q-11 -14 -27.5 -17t-33.5 9q-42 29 -113 -47q-74 -81 -112 -203t-30 -235q7 -90 53 -102q26 -7 54.5 3t54 32t44 42.5t35.5 44.5q72 99 108 224t19 239q-5 29 -15 55t-27.5 49t-41.5 30t-58 -2z" />
    <glyph glyph-name="O" unicode="&#xd5;" horiz-adv-x="596" 
d="M42 193q0 1 4 34q-31 11 -40 25t-4 44q37 201 156 353q36 45 82.5 78t97 49t101.5 0t88 -67q36 -51 49.5 -122t8.5 -134.5t-21 -130.5q-31 -125 -95.5 -235.5t-158.5 -170.5q-41 -25 -84.5 -34t-86 6t-67.5 57q-54 91 -30 248zM351 688q-44 -14 -90 -58q33 16 58.5 23
t56.5 2.5t56 -27.5q14 -13 16.5 -30.5t-7.5 -31.5q-11 -14 -27.5 -17t-33.5 9q-42 29 -113 -47q-74 -81 -112 -203t-30 -235q7 -90 53 -102q26 -7 54.5 3t54 32t44 42.5t35.5 44.5q72 99 108 224t19 239q-5 29 -15 55t-27.5 49t-41.5 30t-58 -2z" />
    <glyph glyph-name="O" unicode="&#xd4;" horiz-adv-x="596" 
d="M42 193q0 1 4 34q-31 11 -40 25t-4 44q37 201 156 353q36 45 82.5 78t97 49t101.5 0t88 -67q36 -51 49.5 -122t8.5 -134.5t-21 -130.5q-31 -125 -95.5 -235.5t-158.5 -170.5q-41 -25 -84.5 -34t-86 6t-67.5 57q-54 91 -30 248zM351 688q-44 -14 -90 -58q33 16 58.5 23
t56.5 2.5t56 -27.5q14 -13 16.5 -30.5t-7.5 -31.5q-11 -14 -27.5 -17t-33.5 9q-42 29 -113 -47q-74 -81 -112 -203t-30 -235q7 -90 53 -102q26 -7 54.5 3t54 32t44 42.5t35.5 44.5q72 99 108 224t19 239q-5 29 -15 55t-27.5 49t-41.5 30t-58 -2z" />
    <glyph glyph-name="O" unicode="&#xd3;" horiz-adv-x="596" 
d="M42 193q0 1 4 34q-31 11 -40 25t-4 44q37 201 156 353q36 45 82.5 78t97 49t101.5 0t88 -67q36 -51 49.5 -122t8.5 -134.5t-21 -130.5q-31 -125 -95.5 -235.5t-158.5 -170.5q-41 -25 -84.5 -34t-86 6t-67.5 57q-54 91 -30 248zM351 688q-44 -14 -90 -58q33 16 58.5 23
t56.5 2.5t56 -27.5q14 -13 16.5 -30.5t-7.5 -31.5q-11 -14 -27.5 -17t-33.5 9q-42 29 -113 -47q-74 -81 -112 -203t-30 -235q7 -90 53 -102q26 -7 54.5 3t54 32t44 42.5t35.5 44.5q72 99 108 224t19 239q-5 29 -15 55t-27.5 49t-41.5 30t-58 -2z" />
    <glyph glyph-name="O" unicode="&#xd2;" horiz-adv-x="596" 
d="M42 193q0 1 4 34q-31 11 -40 25t-4 44q37 201 156 353q36 45 82.5 78t97 49t101.5 0t88 -67q36 -51 49.5 -122t8.5 -134.5t-21 -130.5q-31 -125 -95.5 -235.5t-158.5 -170.5q-41 -25 -84.5 -34t-86 6t-67.5 57q-54 91 -30 248zM351 688q-44 -14 -90 -58q33 16 58.5 23
t56.5 2.5t56 -27.5q14 -13 16.5 -30.5t-7.5 -31.5q-11 -14 -27.5 -17t-33.5 9q-42 29 -113 -47q-74 -81 -112 -203t-30 -235q7 -90 53 -102q26 -7 54.5 3t54 32t44 42.5t35.5 44.5q72 99 108 224t19 239q-5 29 -15 55t-27.5 49t-41.5 30t-58 -2z" />
    <glyph glyph-name="P" unicode="P" horiz-adv-x="512" 
d="M194 162q-1 0 -9 -4q11 -41 12 -43q19 -122 -70 -217q-16 -16 -40 -23t-46 0q-50 16 -39 99q10 82 52 194q9 26 -4 50q-65 117 -5 244q72 155 216 256q46 31 96 49.5t106.5 16.5t99.5 -32q37 -25 54 -70t15 -92t-19 -89q-51 -123 -168 -215t-251 -124zM251 391
q-43 -69 -64 -137q19 4 19 5q103 32 194 109q87 75 126 161q20 45 19 84q-2 37 -26.5 61.5t-62.5 24.5q-59 1 -118 -35q-155 -95 -218 -257q-4 -10 -6.5 -21.5t-4 -28.5t-2.5 -22q0 -1 4 -20q15 28 15 29l96 168q6 11 15 20q14 12 31.5 13t31.5 -11q28 -24 4 -59
q-41 -63 -53 -84z" />
    <glyph glyph-name="Q" unicode="Q" horiz-adv-x="584" 
d="M581 550q13 -175 -53 -344.5t-182 -271.5q45 -4 48 -5q1 0 11 -1.5t13 -2t12 -3t13 -3.5t12 -4t12.5 -6t9.5 -7t9 -8q9 -10 10 -24.5t-7 -25.5q-8 -13 -21.5 -18.5t-26.5 -1.5q-78 29 -167.5 25t-142.5 -42q-3 -3 -14 -11.5t-16.5 -12t-16 -9t-17.5 -6t-15.5 2.5
t-16.5 11q-19 20 -14 41t19.5 36.5t33.5 24.5q2 1 32 14q4 1 -1 5q-97 91 -60 308l1 16l-10 3q-39 11 -36 50q3 23 11 58q44 181 148 310q49 60 111 100t128 35q53 -4 95 -41.5t63 -87.5t25 -104zM369 692q-53 -10 -104 -60q3 1 17 5.5t18.5 6t17 5t17.5 4t16.5 2t17.5 0.5
t16 -2.5t17 -5t15.5 -9t15.5 -12.5q14 -13 16 -30.5t-9 -31.5t-26.5 -16.5t-32.5 8.5q-50 35 -126 -61q-64 -81 -99 -189t-33 -213q1 -23 4 -41.5t10.5 -40t24 -33t40.5 -10.5q44 2 86.5 33t74.5 78t59 104t43 110.5t24 97.5q32 191 -40 272q-33 38 -80 29z" />
    <glyph glyph-name="R" unicode="R" horiz-adv-x="533" 
d="M203 33q-3 5 -5 4q-9 -29 -9 -31q-15 -47 -45 -88t-70 -47q-27 -4 -44 7t-22.5 30t-7.5 41.5t3 42.5q12 73 50 179q9 24 -2 43q-31 54 -33.5 114t17.5 113.5t56 106.5t78.5 94.5t88.5 73.5q44 31 93 49t104 18t100 -25q43 -25 62.5 -72t15.5 -95.5t-24 -94.5
q-44 -103 -132 -181.5t-200 -125.5l-6.5 -2.5t-12 -5l-5.5 -2.5q19 -121 98 -209q14 -16 29.5 -27.5t33.5 -20t36.5 -5.5t34.5 18q21 20 46 14t32 -32q6 -23 -11 -43q-30 -34 -71.5 -44t-81 2t-75.5 40q-62 49 -121 161zM303 474q-75 -134 -118 -220q26 6 27 6
q178 64 281 213q18 25 30.5 54.5t18 62t-7 60t-44.5 42.5q-38 18 -88 1.5t-93 -46.5q-121 -88 -180 -214q-35 -75 -18 -115q1 -2 3 0.5t5 8t6 10.5t7 12.5t5 9.5q8 16 36.5 68.5t44.5 80.5q9 16 13 22t14 14.5t22.5 6.5t28.5 -14q14 -9 17 -21t0 -20t-10 -22z" />
    <glyph glyph-name="S" unicode="S" horiz-adv-x="654" 
d="M556 11q-42 -65 -120 -98.5t-164 -33.5q-69 0 -147.5 30.5t-118.5 85.5q-12 17 -2 39t32 27q14 3 27.5 -4t29 -21.5t22.5 -19.5q50 -32 115.5 -44t131.5 5t104 64q17 22 19 43t-9.5 39t-31.5 34.5t-47.5 31t-56 27.5t-60 24t-57 19.5t-47.5 16.5t-31 12q-46 22 -66.5 52
t-15 60.5t22.5 61.5t46.5 60.5t56 51t52.5 38.5q74 48 172 95.5t176 72.5q27 8 48 -1.5t26 -39.5q4 -27 -31 -38q-242 -78 -397 -206q-15 -12 -28.5 -27t-26.5 -35t-10 -38.5t25 -29.5q21 -11 58 -25t73 -26.5t77 -30.5t74.5 -36t61 -43t40 -52.5t8 -63.5t-30.5 -77z" />
    <glyph glyph-name="T" unicode="T" horiz-adv-x="416" 
d="M244 787q220 38 408 44q3 0 20 1.5t25.5 1t21.5 -2.5t21 -8.5t12 -17.5q8 -22 -4.5 -42t-35.5 -22q-34 -1 -116.5 -6t-127.5 -8q-22 -1 -29 -21q-23 -67 -102 -293q-21 -61 3 -114q22 -50 5 -120q-28 -119 -116 -242q-13 -19 -35 -26t-40.5 4t-21.5 37q-2 25 3 59
q16 96 71 278q4 14 4 15q10 23 -13 45q-4 4 -22 21.5t-24 23.5t-21.5 22t-23 24.5t-21 23.5t-21.5 26t-18 25.5t-17.5 28t-14.5 28.5q-14 30 -13.5 56.5t11.5 46.5t32 37t44.5 28.5t53 21.5t53.5 15.5t49 9.5zM241 436q2 -3 8 -7q15 45 48 139.5t50 144.5q-23 -2 -24 -2
q-3 0 -20 -3t-21.5 -3.5t-20.5 -3.5t-22.5 -4.5t-20.5 -4.5t-22 -5.5t-20 -6t-20.5 -7t-18.5 -8.5t-19 -10q-37 -21 -1 -79q8 -13 19 -27t17.5 -22.5t22.5 -25t19.5 -20.5t24 -24t21.5 -21z" />
    <glyph glyph-name="U" unicode="U" horiz-adv-x="616" 
d="M417 78q0 9 -5 2q-67 -95 -124 -144q-40 -34 -84 -50t-89 -3t-71 62q-21 40 -29.5 89.5t-3.5 105.5t12 97.5t20 97.5q1 4 23 94q-32 0 -52.5 13.5t-10.5 44.5q2 9 7 19q67 127 164 251q17 22 44.5 26t49.5 -14q25 -22 10 -55q-138 -299 -170 -509q-5 -35 -7 -74.5
t0.5 -85.5t20 -69.5t48.5 -9.5q71 31 148 136q40 55 75 116.5t66 134t52 124.5t53 140t48 129q5 13 10 21t13.5 15.5t19.5 6.5t27 -7q13 -6 18.5 -14t4.5 -19.5t-3 -19t-7 -20.5q-3 -9 -29.5 -79.5t-33 -88t-29 -81t-30.5 -90t-24 -80.5t-22 -87t-13 -75t-8 -77
q-3 -71 20 -105q23 -33 1 -56q-20 -21 -40 -17.5t-36 22.5t-25 48q-16 52 -9 135z" />
    <glyph glyph-name="U" unicode="&#xdc;" horiz-adv-x="616" 
d="M417 78q0 9 -5 2q-67 -95 -124 -144q-40 -34 -84 -50t-89 -3t-71 62q-21 40 -29.5 89.5t-3.5 105.5t12 97.5t20 97.5q1 4 23 94q-32 0 -52.5 13.5t-10.5 44.5q2 9 7 19q67 127 164 251q17 22 44.5 26t49.5 -14q25 -22 10 -55q-138 -299 -170 -509q-5 -35 -7 -74.5
t0.5 -85.5t20 -69.5t48.5 -9.5q71 31 148 136q40 55 75 116.5t66 134t52 124.5t53 140t48 129q5 13 10 21t13.5 15.5t19.5 6.5t27 -7q13 -6 18.5 -14t4.5 -19.5t-3 -19t-7 -20.5q-3 -9 -29.5 -79.5t-33 -88t-29 -81t-30.5 -90t-24 -80.5t-22 -87t-13 -75t-8 -77
q-3 -71 20 -105q23 -33 1 -56q-20 -21 -40 -17.5t-36 22.5t-25 48q-16 52 -9 135z" />
    <glyph glyph-name="U" unicode="&#xdb;" horiz-adv-x="616" 
d="M417 78q0 9 -5 2q-67 -95 -124 -144q-40 -34 -84 -50t-89 -3t-71 62q-21 40 -29.5 89.5t-3.5 105.5t12 97.5t20 97.5q1 4 23 94q-32 0 -52.5 13.5t-10.5 44.5q2 9 7 19q67 127 164 251q17 22 44.5 26t49.5 -14q25 -22 10 -55q-138 -299 -170 -509q-5 -35 -7 -74.5
t0.5 -85.5t20 -69.5t48.5 -9.5q71 31 148 136q40 55 75 116.5t66 134t52 124.5t53 140t48 129q5 13 10 21t13.5 15.5t19.5 6.5t27 -7q13 -6 18.5 -14t4.5 -19.5t-3 -19t-7 -20.5q-3 -9 -29.5 -79.5t-33 -88t-29 -81t-30.5 -90t-24 -80.5t-22 -87t-13 -75t-8 -77
q-3 -71 20 -105q23 -33 1 -56q-20 -21 -40 -17.5t-36 22.5t-25 48q-16 52 -9 135z" />
    <glyph glyph-name="U" unicode="&#xda;" horiz-adv-x="616" 
d="M417 78q0 9 -5 2q-67 -95 -124 -144q-40 -34 -84 -50t-89 -3t-71 62q-21 40 -29.5 89.5t-3.5 105.5t12 97.5t20 97.5q1 4 23 94q-32 0 -52.5 13.5t-10.5 44.5q2 9 7 19q67 127 164 251q17 22 44.5 26t49.5 -14q25 -22 10 -55q-138 -299 -170 -509q-5 -35 -7 -74.5
t0.5 -85.5t20 -69.5t48.5 -9.5q71 31 148 136q40 55 75 116.5t66 134t52 124.5t53 140t48 129q5 13 10 21t13.5 15.5t19.5 6.5t27 -7q13 -6 18.5 -14t4.5 -19.5t-3 -19t-7 -20.5q-3 -9 -29.5 -79.5t-33 -88t-29 -81t-30.5 -90t-24 -80.5t-22 -87t-13 -75t-8 -77
q-3 -71 20 -105q23 -33 1 -56q-20 -21 -40 -17.5t-36 22.5t-25 48q-16 52 -9 135z" />
    <glyph glyph-name="U" unicode="&#xd9;" horiz-adv-x="616" 
d="M417 78q0 9 -5 2q-67 -95 -124 -144q-40 -34 -84 -50t-89 -3t-71 62q-21 40 -29.5 89.5t-3.5 105.5t12 97.5t20 97.5q1 4 23 94q-32 0 -52.5 13.5t-10.5 44.5q2 9 7 19q67 127 164 251q17 22 44.5 26t49.5 -14q25 -22 10 -55q-138 -299 -170 -509q-5 -35 -7 -74.5
t0.5 -85.5t20 -69.5t48.5 -9.5q71 31 148 136q40 55 75 116.5t66 134t52 124.5t53 140t48 129q5 13 10 21t13.5 15.5t19.5 6.5t27 -7q13 -6 18.5 -14t4.5 -19.5t-3 -19t-7 -20.5q-3 -9 -29.5 -79.5t-33 -88t-29 -81t-30.5 -90t-24 -80.5t-22 -87t-13 -75t-8 -77
q-3 -71 20 -105q23 -33 1 -56q-20 -21 -40 -17.5t-36 22.5t-25 48q-16 52 -9 135z" />
    <glyph glyph-name="V" unicode="V" horiz-adv-x="515" 
d="M629 787q15 -7 22 -21.5t2 -31.5q-1 -7 -5 -17q-85 -213 -163.5 -382.5t-172.5 -321.5q-15 -23 -25.5 -38.5t-29.5 -38.5t-36 -35.5t-40 -20t-46 -2.5q-23 6 -38.5 19.5t-23.5 34t-11.5 37t-6.5 39.5q-4 39 -4 80.5t4 87t7.5 78.5t11 87t10.5 80v11l-17 -12
q-26 -15 -48 2q-23 16 -18 45q1 7 5 17q63 142 108 241q6 13 16 29q12 20 32.5 27t42.5 -3q35 -16 27 -52q-95 -452 -82 -718q1 -19 13 -23.5t22 8.5q39 53 77.5 117t66.5 115.5t65 131.5t55.5 123t57.5 135.5t53 126.5q10 22 13 27q10 15 25.5 20t30.5 -2z" />
    <glyph glyph-name="W" unicode="W" horiz-adv-x="805" 
d="M87 -3q0 -9 3.5 -10t7.5 6q5 8 22 40q165 319 212 407q56 103 92 155q13 19 35 22t37 -11.5t11 -40.5q-16 -102 -25 -167t-17.5 -156.5t-8.5 -169.5q0 -52 14.5 -85t44.5 -5q28 26 50 70q39 79 71.5 161t63.5 187.5t45 158.5t47 183q5 20 15 30q14 12 33 12.5t33.5 -12.5
t9.5 -32q-61 -248 -122.5 -442t-134.5 -320q-14 -24 -34 -46t-45 -38.5t-53 -16.5t-52 22q-61 55 -66 203q-3 107 21 272q3 20 0 20l-2 -2q-6 -9 -12 -22q-8 -15 -52.5 -103t-62 -121.5t-51.5 -96.5t-64 -113q-18 -30 -42 -47.5t-49 -14t-40 31.5q-36 69 -6 241q3 16 46 235
q3 15 4 25q-6 -3 -9 -4q-25 -10 -42 3t-15 40q1 10 6 22q67 161 149 278q33 46 70 37q20 -5 31 -21t6 -35q-1 -3 -7 -20q-108 -316 -163 -663q-4 -24 -5 -47z" />
    <glyph glyph-name="X" unicode="X" horiz-adv-x="414" 
d="M181 426q0 4 -0.5 13t-1.5 14q-13 -6 -21 -9q-22 -7 -39.5 6t-17.5 37q0 10 4 25q34 116 69 231q6 19 20.5 31t33.5 8q38 -10 39 -61q4 -151 8 -300q0 -5 1 -15q0 -7 21 19q37 47 79 100t93 117.5t79 99.5q31 39 56 43q18 2 30.5 -12t8.5 -31q-4 -18 -21 -40
q-188 -240 -323 -408q-12 -15 -10 -34q19 -150 47 -237q22 -67 56 -98t16 -63q-10 -17 -27 -23t-37 2q-50 21 -89 119q-25 62 -46 188q0 1 -5 24q-19 -23 -20 -24q-168 -212 -188 -237q-14 -18 -27 -27q-28 -20 -51 1t-5 51q5 9 20 29q176 222 242 306q17 20 14 44
q0 4 -8 111z" />
    <glyph glyph-name="Y" unicode="Y" horiz-adv-x="659" 
d="M514 277q1 4 -3 4q-2 1 -3 -1q-3 -5 -7.5 -14l-5.5 -11q-71 -131 -125 -201q-12 -15 -15 -19t-15.5 -19t-18.5 -21t-18 -19t-20.5 -18.5t-21 -15t-23 -12.5t-23 -7t-25.5 -3.5t-26 3.5q-27 7 -46 31.5t-28 56.5t-13 71.5t-3.5 70.5t2.5 59q1 9 13 120q-14 -10 -15 -10
q-24 -18 -50 -4q-27 16 -20 49q4 22 11 39q59 139 114 267q0 1 2 5q9 21 15.5 34t18 32t26 29.5t31.5 12.5q25 2 41.5 -14.5t14.5 -39.5q0 -9 -5 -25q-98 -323 -109 -544q-3 -28 -1.5 -65t12.5 -63q7 -17 20.5 -18t26 7.5t22.5 20.5q152 186 257 434q7 17 101 258q8 20 9 21
q10 19 30 24t37 -6.5t20 -33.5q2 -10 0 -22q-43 -279 -112.5 -517t-185.5 -437q-139 -240 -252 -264q-40 -9 -72.5 4t-52 42.5t-33.5 66t-20 79t-8 76t-1 62.5q1 19 13.5 30.5t32.5 11.5q35 0 37 -36q6 -120 15 -163q20 -98 64 -87q4 1 8 3q19 9 39.5 26t33 30t33.5 41.5
t26.5 36.5t26.5 40q23 36 46 79t38.5 75t37.5 86t31 78.5t32.5 88t30.5 81.5z" />
    <glyph glyph-name="Y" unicode="&#x178;" horiz-adv-x="659" 
d="M514 277q1 4 -3 4q-2 1 -3 -1q-3 -5 -7.5 -14l-5.5 -11q-71 -131 -125 -201q-12 -15 -15 -19t-15.5 -19t-18.5 -21t-18 -19t-20.5 -18.5t-21 -15t-23 -12.5t-23 -7t-25.5 -3.5t-26 3.5q-27 7 -46 31.5t-28 56.5t-13 71.5t-3.5 70.5t2.5 59q1 9 13 120q-14 -10 -15 -10
q-24 -18 -50 -4q-27 16 -20 49q4 22 11 39q59 139 114 267q0 1 2 5q9 21 15.5 34t18 32t26 29.5t31.5 12.5q25 2 41.5 -14.5t14.5 -39.5q0 -9 -5 -25q-98 -323 -109 -544q-3 -28 -1.5 -65t12.5 -63q7 -17 20.5 -18t26 7.5t22.5 20.5q152 186 257 434q7 17 101 258q8 20 9 21
q10 19 30 24t37 -6.5t20 -33.5q2 -10 0 -22q-43 -279 -112.5 -517t-185.5 -437q-139 -240 -252 -264q-40 -9 -72.5 4t-52 42.5t-33.5 66t-20 79t-8 76t-1 62.5q1 19 13.5 30.5t32.5 11.5q35 0 37 -36q6 -120 15 -163q20 -98 64 -87q4 1 8 3q19 9 39.5 26t33 30t33.5 41.5
t26.5 36.5t26.5 40q23 36 46 79t38.5 75t37.5 86t31 78.5t32.5 88t30.5 81.5z" />
    <glyph glyph-name="Y" unicode="&#xdd;" horiz-adv-x="659" 
d="M514 277q1 4 -3 4q-2 1 -3 -1q-3 -5 -7.5 -14l-5.5 -11q-71 -131 -125 -201q-12 -15 -15 -19t-15.5 -19t-18.5 -21t-18 -19t-20.5 -18.5t-21 -15t-23 -12.5t-23 -7t-25.5 -3.5t-26 3.5q-27 7 -46 31.5t-28 56.5t-13 71.5t-3.5 70.5t2.5 59q1 9 13 120q-14 -10 -15 -10
q-24 -18 -50 -4q-27 16 -20 49q4 22 11 39q59 139 114 267q0 1 2 5q9 21 15.5 34t18 32t26 29.5t31.5 12.5q25 2 41.5 -14.5t14.5 -39.5q0 -9 -5 -25q-98 -323 -109 -544q-3 -28 -1.5 -65t12.5 -63q7 -17 20.5 -18t26 7.5t22.5 20.5q152 186 257 434q7 17 101 258q8 20 9 21
q10 19 30 24t37 -6.5t20 -33.5q2 -10 0 -22q-43 -279 -112.5 -517t-185.5 -437q-139 -240 -252 -264q-40 -9 -72.5 4t-52 42.5t-33.5 66t-20 79t-8 76t-1 62.5q1 19 13.5 30.5t32.5 11.5q35 0 37 -36q6 -120 15 -163q20 -98 64 -87q4 1 8 3q19 9 39.5 26t33 30t33.5 41.5
t26.5 36.5t26.5 40q23 36 46 79t38.5 75t37.5 86t31 78.5t32.5 88t30.5 81.5z" />
    <glyph glyph-name="Z" unicode="Z" horiz-adv-x="557" 
d="M119 227q2 2 17 24q-30 -5 -32 -5q-16 -1 -28 8t-16 23q-6 23 8 38.5t38 22.5q54 16 110 32q18 5 29 18q158 190 304 315q6 6 6 8t-18 1q-20 -1 -82.5 -5t-93.5 -5.5t-80.5 -1.5t-89.5 4q-32 3 -44.5 26t0.5 44.5t44 20.5q197 -9 435 13q56 5 92 21q4 2 19.5 10.5
t24.5 11.5t22.5 6t24 -2t18.5 -17q6 -10 8.5 -18.5t0.5 -16.5t-4.5 -14t-10.5 -12.5t-14 -10.5t-18 -9.5t-18.5 -8.5t-20.5 -8t-19 -7q-13 -6 -54 -37q-137 -103 -294 -278q-2 -3 -8 -10q20 2 25 3q16 2 26.5 -12.5t10.5 -36.5q-1 -8 -4 -15.5t-9.5 -12.5t-12 -9t-16.5 -6.5
t-16.5 -4t-17 -3.5t-14.5 -3q-52 -10 -66 -18.5t-45 -49.5q-34 -46 -166 -225q-8 -11 -16 -25q240 17 385 -8q10 -2 18 -3.5t21 -4.5t23 -7t21.5 -9t18.5 -12t12.5 -15t5 -18t-5.5 -22q-20 -38 -65 -23q-176 60 -427 32q-6 -1 -37 -7t-50.5 -5.5t-34.5 10.5q-16 11 -18 29.5
t9 34.5q20 32 46 69.5t45 63t51 68.5t47 64z" />
    <glyph glyph-name="bracketleft" unicode="[" horiz-adv-x="355" 
d="M538 852q30 -1 41.5 -13.5t10 -37.5t-17.5 -33t-49 -9h-121q-6 0 -7 -5q-49 -164 -138 -465t-121 -409q-1 -3 1 -6t6 -3q11 0 48.5 -0.5t57.5 -0.5q36 -1 51.5 -10t15.5 -35q1 -19 -12.5 -32.5t-35.5 -13.5q-112 -1 -188 1q-30 1 -42.5 21t-4.5 51q4 14 46 156
q192 646 233 788q9 31 25.5 44.5t53.5 13.5q65 0 147 -2z" />
    <glyph glyph-name="backslash" unicode="\" horiz-adv-x="457" 
d="M398 72q0 -1 9 -26q0 -36 -28 -47q-29 -12 -49 12q-8 9 -15 26q-131 295 -256 579q-7 17 -9 29q-1 15 6.5 27t21.5 17q29 12 48 -12q8 -9 16 -26q120 -272 256 -579z" />
    <glyph glyph-name="bracketright" unicode="]" horiz-adv-x="330" 
d="M370 852q29 0 42 -20.5t4 -51.5q-3 -13 -46 -156q-192 -650 -233 -788q-9 -31 -25 -44.5t-54 -13.5q-64 0 -146 2q-30 1 -41.5 13.5t-10 37.5t17.5 33.5t49 8.5h121q5 0 7 5q100 338 259 874q1 3 -1.5 6t-5.5 3q-11 1 -48.5 1t-57.5 1q-36 0 -51.5 9t-16.5 36
q0 19 13.5 32t34.5 13q113 2 189 -1z" />
    <glyph glyph-name="asciicircum" unicode="^" horiz-adv-x="329" 
d="M276 639q9 -31 -8 -47.5t-45 -14.5q-25 2 -34 26q-2 3 -17 48q-32 -41 -36 -46q-41 -54 -78 -15q-15 15 -3 40q2 5 4 7q74 99 95 126q17 22 46 20.5t39 -28.5q22 -59 37 -116z" />
    <glyph glyph-name="underscore" unicode="_" horiz-adv-x="524" 
d="M402 -38q47 0 59.5 -10.5t12.5 -41.5q0 -23 -15.5 -30t-49.5 -7h-142q-5 0 -82.5 -0.5t-81.5 0.5q-32 1 -43.5 13t-9.5 39q3 25 17.5 31.5t52.5 6.5q58 0 282 -1z" />
    <glyph glyph-name="grave" unicode="`" horiz-adv-x="220" 
d="M163 649q14 -20 1 -38.5t-34.5 -20.5t-39.5 14q-24 27 -34 78q-12 55 0 91q8 24 34 30t45 -10q5 -5 7.5 -13t2.5 -13t-2 -17t-2 -14q-3 -21 4 -46t18 -41z" />
    <glyph glyph-name="a" unicode="a" horiz-adv-x="404" 
d="M406 216q8 12 21 16.5t24.5 1t20.5 -11t11 -19.5t-5 -25q-41 -75 -107 -150q-32 -38 -80 -41.5t-75 33.5q-21 30 -25 76q-1 3 -2 31q-20 -24 -21 -25q-3 -3 -22 -25.5t-27.5 -31t-25 -21.5t-33.5 -19q-31 -12 -57 4t-31 49q-9 57 32 149q32 71 80 128q25 29 56.5 45.5
t67 13t61.5 -33.5q4 -4 6 -8.5t3.5 -7t2.5 -8.5t1.5 -8t1 -9.5t0.5 -8.5q1 -6 13.5 -19t10.5 -23q-5 -27 -15 -77t-13 -70q-7 -33 3 -40q9 -6 26 11q7 7 14.5 15t15.5 17.5t13 16t14 19t12.5 17.5t13.5 19.5t13 17.5v0.5t1 1.5zM76 136q20 22 42.5 47t50 55.5t42.5 47.5
q-9 18 -19 18.5t-21 -10.5q-57 -45 -96 -153q-1 -4 1 -5z" />
    <glyph glyph-name="a" unicode="&#xe5;" horiz-adv-x="404" 
d="M406 216q8 12 21 16.5t24.5 1t20.5 -11t11 -19.5t-5 -25q-41 -75 -107 -150q-32 -38 -80 -41.5t-75 33.5q-21 30 -25 76q-1 3 -2 31q-20 -24 -21 -25q-3 -3 -22 -25.5t-27.5 -31t-25 -21.5t-33.5 -19q-31 -12 -57 4t-31 49q-9 57 32 149q32 71 80 128q25 29 56.5 45.5
t67 13t61.5 -33.5q4 -4 6 -8.5t3.5 -7t2.5 -8.5t1.5 -8t1 -9.5t0.5 -8.5q1 -6 13.5 -19t10.5 -23q-5 -27 -15 -77t-13 -70q-7 -33 3 -40q9 -6 26 11q7 7 14.5 15t15.5 17.5t13 16t14 19t12.5 17.5t13.5 19.5t13 17.5v0.5t1 1.5zM76 136q20 22 42.5 47t50 55.5t42.5 47.5
q-9 18 -19 18.5t-21 -10.5q-57 -45 -96 -153q-1 -4 1 -5z" />
    <glyph glyph-name="a" unicode="&#xe4;" horiz-adv-x="404" 
d="M406 216q8 12 21 16.5t24.5 1t20.5 -11t11 -19.5t-5 -25q-41 -75 -107 -150q-32 -38 -80 -41.5t-75 33.5q-21 30 -25 76q-1 3 -2 31q-20 -24 -21 -25q-3 -3 -22 -25.5t-27.5 -31t-25 -21.5t-33.5 -19q-31 -12 -57 4t-31 49q-9 57 32 149q32 71 80 128q25 29 56.5 45.5
t67 13t61.5 -33.5q4 -4 6 -8.5t3.5 -7t2.5 -8.5t1.5 -8t1 -9.5t0.5 -8.5q1 -6 13.5 -19t10.5 -23q-5 -27 -15 -77t-13 -70q-7 -33 3 -40q9 -6 26 11q7 7 14.5 15t15.5 17.5t13 16t14 19t12.5 17.5t13.5 19.5t13 17.5v0.5t1 1.5zM76 136q20 22 42.5 47t50 55.5t42.5 47.5
q-9 18 -19 18.5t-21 -10.5q-57 -45 -96 -153q-1 -4 1 -5z" />
    <glyph glyph-name="a" unicode="&#xe3;" horiz-adv-x="404" 
d="M406 216q8 12 21 16.5t24.5 1t20.5 -11t11 -19.5t-5 -25q-41 -75 -107 -150q-32 -38 -80 -41.5t-75 33.5q-21 30 -25 76q-1 3 -2 31q-20 -24 -21 -25q-3 -3 -22 -25.5t-27.5 -31t-25 -21.5t-33.5 -19q-31 -12 -57 4t-31 49q-9 57 32 149q32 71 80 128q25 29 56.5 45.5
t67 13t61.5 -33.5q4 -4 6 -8.5t3.5 -7t2.5 -8.5t1.5 -8t1 -9.5t0.5 -8.5q1 -6 13.5 -19t10.5 -23q-5 -27 -15 -77t-13 -70q-7 -33 3 -40q9 -6 26 11q7 7 14.5 15t15.5 17.5t13 16t14 19t12.5 17.5t13.5 19.5t13 17.5v0.5t1 1.5zM76 136q20 22 42.5 47t50 55.5t42.5 47.5
q-9 18 -19 18.5t-21 -10.5q-57 -45 -96 -153q-1 -4 1 -5z" />
    <glyph glyph-name="a" unicode="&#xe2;" horiz-adv-x="404" 
d="M406 216q8 12 21 16.5t24.5 1t20.5 -11t11 -19.5t-5 -25q-41 -75 -107 -150q-32 -38 -80 -41.5t-75 33.5q-21 30 -25 76q-1 3 -2 31q-20 -24 -21 -25q-3 -3 -22 -25.5t-27.5 -31t-25 -21.5t-33.5 -19q-31 -12 -57 4t-31 49q-9 57 32 149q32 71 80 128q25 29 56.5 45.5
t67 13t61.5 -33.5q4 -4 6 -8.5t3.5 -7t2.5 -8.5t1.5 -8t1 -9.5t0.5 -8.5q1 -6 13.5 -19t10.5 -23q-5 -27 -15 -77t-13 -70q-7 -33 3 -40q9 -6 26 11q7 7 14.5 15t15.5 17.5t13 16t14 19t12.5 17.5t13.5 19.5t13 17.5v0.5t1 1.5zM76 136q20 22 42.5 47t50 55.5t42.5 47.5
q-9 18 -19 18.5t-21 -10.5q-57 -45 -96 -153q-1 -4 1 -5z" />
    <glyph glyph-name="a" unicode="&#xe1;" horiz-adv-x="404" 
d="M406 216q8 12 21 16.5t24.5 1t20.5 -11t11 -19.5t-5 -25q-41 -75 -107 -150q-32 -38 -80 -41.5t-75 33.5q-21 30 -25 76q-1 3 -2 31q-20 -24 -21 -25q-3 -3 -22 -25.5t-27.5 -31t-25 -21.5t-33.5 -19q-31 -12 -57 4t-31 49q-9 57 32 149q32 71 80 128q25 29 56.5 45.5
t67 13t61.5 -33.5q4 -4 6 -8.5t3.5 -7t2.5 -8.5t1.5 -8t1 -9.5t0.5 -8.5q1 -6 13.5 -19t10.5 -23q-5 -27 -15 -77t-13 -70q-7 -33 3 -40q9 -6 26 11q7 7 14.5 15t15.5 17.5t13 16t14 19t12.5 17.5t13.5 19.5t13 17.5v0.5t1 1.5zM76 136q20 22 42.5 47t50 55.5t42.5 47.5
q-9 18 -19 18.5t-21 -10.5q-57 -45 -96 -153q-1 -4 1 -5z" />
    <glyph glyph-name="a" unicode="&#xe0;" horiz-adv-x="404" 
d="M406 216q8 12 21 16.5t24.5 1t20.5 -11t11 -19.5t-5 -25q-41 -75 -107 -150q-32 -38 -80 -41.5t-75 33.5q-21 30 -25 76q-1 3 -2 31q-20 -24 -21 -25q-3 -3 -22 -25.5t-27.5 -31t-25 -21.5t-33.5 -19q-31 -12 -57 4t-31 49q-9 57 32 149q32 71 80 128q25 29 56.5 45.5
t67 13t61.5 -33.5q4 -4 6 -8.5t3.5 -7t2.5 -8.5t1.5 -8t1 -9.5t0.5 -8.5q1 -6 13.5 -19t10.5 -23q-5 -27 -15 -77t-13 -70q-7 -33 3 -40q9 -6 26 11q7 7 14.5 15t15.5 17.5t13 16t14 19t12.5 17.5t13.5 19.5t13 17.5v0.5t1 1.5zM76 136q20 22 42.5 47t50 55.5t42.5 47.5
q-9 18 -19 18.5t-21 -10.5q-57 -45 -96 -153q-1 -4 1 -5z" />
    <glyph glyph-name="b" unicode="b" horiz-adv-x="462" 
d="M469 245q25 0 34.5 -11t7.5 -37q0 -15 -9.5 -25t-24.5 -11q-41 -2 -89 -2q-25 0 -39 -28q-41 -78 -107 -123t-144 -26q-2 1 -27 11l-11 -14q-21 -24 -51 -13.5t-29 42.5q4 171 48.5 343t127.5 310q54 90 111 114.5t102 -28.5q18 -24 20 -55t-9.5 -63t-30.5 -65
t-45.5 -64.5t-51 -56.5t-48.5 -46q-29 -25 -59.5 -55.5t-37.5 -46.5q-10 -24 0 -34q37 45 48 56q21 21 42.5 37t49 29t55 11.5t51.5 -20.5q49 -38 40 -129q44 1 76 0zM289 678q-59 -71 -113 -193q40 34 80.5 100.5t32.5 92.5zM232 124q1 2 -0.5 3.5t-3.5 1.5
q-63 -13 -92 -57q-2 -4 3 -5q21 -4 46.5 11.5t46.5 45.5zM295 240q14 35 -5 62q-1 2 -2 1q-53 -26 -96 -87q76 17 100 22q2 1 3 2z" />
    <glyph glyph-name="c" unicode="c" horiz-adv-x="302" 
d="M361 232q18 -13 19 -30t-6.5 -29.5t-21.5 -30.5q-135 -162 -242 -162q-40 0 -69 21t-41 59q-21 65 1.5 142.5t71.5 133.5q25 29 58.5 46t70.5 11.5t61 -39.5q11 -17 11.5 -34t-15.5 -32q-46 -33 -65 6q0 1 -1 3l-1.5 3t-2 3t-2.5 3t-3 2t-5 1q-14 3 -38 -26
q-48 -59 -57 -131q-4 -32 8 -56t44 -21q63 4 162 129q3 3 9 11t8 10t7 7.5t8.5 6t8.5 1.5t10.5 -1.5t11.5 -6.5z" />
    <glyph glyph-name="c" unicode="&#xe7;" horiz-adv-x="302" 
d="M361 232q18 -13 19 -30t-6.5 -29.5t-21.5 -30.5q-135 -162 -242 -162q-40 0 -69 21t-41 59q-21 65 1.5 142.5t71.5 133.5q25 29 58.5 46t70.5 11.5t61 -39.5q11 -17 11.5 -34t-15.5 -32q-46 -33 -65 6q0 1 -1 3l-1.5 3t-2 3t-2.5 3t-3 2t-5 1q-14 3 -38 -26
q-48 -59 -57 -131q-4 -32 8 -56t44 -21q63 4 162 129q3 3 9 11t8 10t7 7.5t8.5 6t8.5 1.5t10.5 -1.5t11.5 -6.5z" />
    <glyph glyph-name="d" unicode="d" horiz-adv-x="380" 
d="M559 761q33 -37 14 -117q-35 -146 -231 -296q-15 -11 -19 -26q-38 -141 -45 -200q-4 -21 -4 -54.5t13 -52.5q10 -15 6.5 -31.5t-16.5 -25.5t-29 -11.5t-31 9.5q-8 6 -14 15.5t-9.5 17t-5.5 21t-2.5 20t-1 22t-0.5 20.5q-1 2 -1 50q-5 -8 -17.5 -30t-21 -35t-22 -30
t-28.5 -27t-32 -15q-23 -5 -43.5 4t-30.5 31q-14 39 -13 79t17 84.5t36 80.5t44 67q19 25 40 40.5t49 21.5t56 -11q4 -3 13.5 -8t13.5 -7q11 27 11 29q44 125 94 218q8 15 14.5 26.5t19.5 32.5t24.5 36t27 33t31 27.5t31.5 15t32 -0.5t30 -23zM77 116q1 3 105 175
q-14 10 -18 10t-13 -10q-58 -73 -79 -173q0 -2 2 -2.5t3 0.5zM385 489q34 26 69 86t35 96q-28 -26 -61 -86t-43 -96z" />
    <glyph glyph-name="e" unicode="e" horiz-adv-x="319" 
d="M386 246q13 -8 18.5 -22t1.5 -29q-2 -9 -7 -16q-24 -41 -55 -77t-69.5 -67t-85 -46t-92.5 -10q-35 5 -59.5 25.5t-34 48.5t-13 61.5t4.5 63.5q16 85 65 151q36 47 77 64q29 13 56 7.5t47.5 -21t30 -42t2.5 -56.5q-14 -52 -62.5 -92t-106.5 -57q-3 -1 -9.5 -3t-9.5 -3
l-4 -3q-1 -38 12.5 -47.5t50.5 -4.5q49 7 93.5 49t78.5 95q11 17 18 24q11 11 25.5 12.5t26.5 -5.5zM161 308q-34 -24 -52 -74q48 20 70 59q7 11 2 18q-6 7 -17 -2q-2 -1 -3 -1z" />
    <glyph glyph-name="e" unicode="&#xeb;" horiz-adv-x="319" 
d="M386 246q13 -8 18.5 -22t1.5 -29q-2 -9 -7 -16q-24 -41 -55 -77t-69.5 -67t-85 -46t-92.5 -10q-35 5 -59.5 25.5t-34 48.5t-13 61.5t4.5 63.5q16 85 65 151q36 47 77 64q29 13 56 7.5t47.5 -21t30 -42t2.5 -56.5q-14 -52 -62.5 -92t-106.5 -57q-3 -1 -9.5 -3t-9.5 -3
l-4 -3q-1 -38 12.5 -47.5t50.5 -4.5q49 7 93.5 49t78.5 95q11 17 18 24q11 11 25.5 12.5t26.5 -5.5zM161 308q-34 -24 -52 -74q48 20 70 59q7 11 2 18q-6 7 -17 -2q-2 -1 -3 -1z" />
    <glyph glyph-name="e" unicode="&#xea;" horiz-adv-x="319" 
d="M386 246q13 -8 18.5 -22t1.5 -29q-2 -9 -7 -16q-24 -41 -55 -77t-69.5 -67t-85 -46t-92.5 -10q-35 5 -59.5 25.5t-34 48.5t-13 61.5t4.5 63.5q16 85 65 151q36 47 77 64q29 13 56 7.5t47.5 -21t30 -42t2.5 -56.5q-14 -52 -62.5 -92t-106.5 -57q-3 -1 -9.5 -3t-9.5 -3
l-4 -3q-1 -38 12.5 -47.5t50.5 -4.5q49 7 93.5 49t78.5 95q11 17 18 24q11 11 25.5 12.5t26.5 -5.5zM161 308q-34 -24 -52 -74q48 20 70 59q7 11 2 18q-6 7 -17 -2q-2 -1 -3 -1z" />
    <glyph glyph-name="e" unicode="&#xe9;" horiz-adv-x="319" 
d="M386 246q13 -8 18.5 -22t1.5 -29q-2 -9 -7 -16q-24 -41 -55 -77t-69.5 -67t-85 -46t-92.5 -10q-35 5 -59.5 25.5t-34 48.5t-13 61.5t4.5 63.5q16 85 65 151q36 47 77 64q29 13 56 7.5t47.5 -21t30 -42t2.5 -56.5q-14 -52 -62.5 -92t-106.5 -57q-3 -1 -9.5 -3t-9.5 -3
l-4 -3q-1 -38 12.5 -47.5t50.5 -4.5q49 7 93.5 49t78.5 95q11 17 18 24q11 11 25.5 12.5t26.5 -5.5zM161 308q-34 -24 -52 -74q48 20 70 59q7 11 2 18q-6 7 -17 -2q-2 -1 -3 -1z" />
    <glyph glyph-name="e" unicode="&#xe8;" horiz-adv-x="319" 
d="M386 246q13 -8 18.5 -22t1.5 -29q-2 -9 -7 -16q-24 -41 -55 -77t-69.5 -67t-85 -46t-92.5 -10q-35 5 -59.5 25.5t-34 48.5t-13 61.5t4.5 63.5q16 85 65 151q36 47 77 64q29 13 56 7.5t47.5 -21t30 -42t2.5 -56.5q-14 -52 -62.5 -92t-106.5 -57q-3 -1 -9.5 -3t-9.5 -3
l-4 -3q-1 -38 12.5 -47.5t50.5 -4.5q49 7 93.5 49t78.5 95q11 17 18 24q11 11 25.5 12.5t26.5 -5.5zM161 308q-34 -24 -52 -74q48 20 70 59q7 11 2 18q-6 7 -17 -2q-2 -1 -3 -1z" />
    <glyph glyph-name="f" unicode="f" horiz-adv-x="183" 
d="M282 242q3 -17 -7 -30.5t-27 -18.5q-44 -14 -91.5 -43t-76.5 -63q53 -88 66.5 -206.5t-23.5 -179.5q-29 -48 -80 -48q-5 0 -10 1q-43 4 -69 43q-50 74 -14 298.5t166 647.5q5 17 20.5 25.5t32.5 3.5t25 -21t3 -33q-76 -249 -116 -413q76 58 152 72q17 3 31.5 -7t17.5 -28
zM50 -255q18 25 14.5 98.5t-29.5 141.5q-31 -194 0 -241q3 -5 7 -5.5t8 6.5z" />
    <glyph glyph-name="g" unicode="g" horiz-adv-x="386" 
d="M458.5 215.5q24.5 -36.5 -28.5 -72.5q-103 -70 -141 -95q-16 -10 -23 -47q-35 -167 -90 -291q-65 -149 -143 -194q-43 -24 -86.5 -15.5t-72.5 48.5q-20 29 -23 71t7 79.5t28 69.5q79 144 279 298q11 8 15 11.5t8.5 11t5.5 17.5q1 3 2 14.5t2 20.5q-2 1 -15 -14
q-7 -7 -24 -28t-26.5 -32t-25.5 -26t-31 -26q-39 -28 -77 -8q-60 32 -24 145q30 90 90 168q24 32 57.5 53.5t72.5 20.5t67 -35q16 -20 15 -39q-1 -14 8 -20q21 -16 18 -48q-1 -5 -8 -71q0 -4 -1 -8t-2 -12q77 49 86 55q56 35 80.5 -1.5zM151 -90q7 28 9 37
q-73 -65 -122 -119.5t-79 -116.5q-26 -50 -16 -94q4 -20 19.5 -25t31.5 7q34 25 70 89q49 87 87 222zM68 136q63 69 136 151q-10 17 -19.5 17t-21.5 -10l-5 -5q-49 -47 -90 -153z" />
    <glyph glyph-name="h" unicode="h" horiz-adv-x="380" 
d="M270 397q34 8 58.5 -12t22.5 -54q-1 -25 -9.5 -53t-23.5 -63t-20 -50q-22 -63 -15 -104q2 -18 -3 -35.5t-19 -26.5q-16 -11 -36.5 -4.5t-27.5 25.5q-14 37 -7 82q3 25 10.5 51.5t18.5 59t16 49.5q0 2 -1 3t-3 -1q-65 -63 -131 -200q-4 -7 -16 -37t-21 -44
q-10 -16 -30.5 -20t-36.5 7t-16 31q3 163 51.5 333.5t131.5 317.5q51 89 103 120q33 20 63.5 9.5t42.5 -46.5q30 -94 -62 -227q-55 -79 -172 -170q-6 -4 -10.5 -10.5t-8 -15.5t-5 -14.5t-4 -17t-3.5 -14.5q-2 -8 1 -8q4 5 10.5 13t7.5 10q25 32 41 49.5t45 38.5t58 28z
M284 671q-25 -22 -63 -90.5t-50 -111.5q27 14 70 91t43 111z" />
    <glyph glyph-name="i" unicode="i" horiz-adv-x="188" 
d="M236 235q17 -2 27 -18.5t1 -31.5q-47 -75 -94 -125q-30 -33 -67.5 -51.5t-72.5 -1.5q-39 18 -40 95q-1 81 45 209q9 24 40.5 24.5t43.5 -17.5q9 -11 4 -26q-33 -94 -47 -174q-2 -11 0 -19.5t10 -7.5q22 3 51 40q30 37 63 86q14 21 36 18zM102 356q-17 5 -26.5 19t-3.5 35
q7 25 16 43q8 14 23 19t30 0q14 -5 22 -18t6 -28q-4 -25 -15 -48q-7 -15 -21.5 -21t-30.5 -1z" />
    <glyph glyph-name="i" unicode="&#xef;" horiz-adv-x="188" 
d="M236 235q17 -2 27 -18.5t1 -31.5q-47 -75 -94 -125q-30 -33 -67.5 -51.5t-72.5 -1.5q-39 18 -40 95q-1 81 45 209q9 24 40.5 24.5t43.5 -17.5q9 -11 4 -26q-33 -94 -47 -174q-2 -11 0 -19.5t10 -7.5q22 3 51 40q30 37 63 86q14 21 36 18zM102 356q-17 5 -26.5 19t-3.5 35
q7 25 16 43q8 14 23 19t30 0q14 -5 22 -18t6 -28q-4 -25 -15 -48q-7 -15 -21.5 -21t-30.5 -1z" />
    <glyph glyph-name="i" unicode="&#xee;" horiz-adv-x="188" 
d="M236 235q17 -2 27 -18.5t1 -31.5q-47 -75 -94 -125q-30 -33 -67.5 -51.5t-72.5 -1.5q-39 18 -40 95q-1 81 45 209q9 24 40.5 24.5t43.5 -17.5q9 -11 4 -26q-33 -94 -47 -174q-2 -11 0 -19.5t10 -7.5q22 3 51 40q30 37 63 86q14 21 36 18zM102 356q-17 5 -26.5 19t-3.5 35
q7 25 16 43q8 14 23 19t30 0q14 -5 22 -18t6 -28q-4 -25 -15 -48q-7 -15 -21.5 -21t-30.5 -1z" />
    <glyph glyph-name="i" unicode="&#xed;" horiz-adv-x="188" 
d="M236 235q17 -2 27 -18.5t1 -31.5q-47 -75 -94 -125q-30 -33 -67.5 -51.5t-72.5 -1.5q-39 18 -40 95q-1 81 45 209q9 24 40.5 24.5t43.5 -17.5q9 -11 4 -26q-33 -94 -47 -174q-2 -11 0 -19.5t10 -7.5q22 3 51 40q30 37 63 86q14 21 36 18zM102 356q-17 5 -26.5 19t-3.5 35
q7 25 16 43q8 14 23 19t30 0q14 -5 22 -18t6 -28q-4 -25 -15 -48q-7 -15 -21.5 -21t-30.5 -1z" />
    <glyph glyph-name="i" unicode="&#xec;" horiz-adv-x="188" 
d="M236 235q17 -2 27 -18.5t1 -31.5q-47 -75 -94 -125q-30 -33 -67.5 -51.5t-72.5 -1.5q-39 18 -40 95q-1 81 45 209q9 24 40.5 24.5t43.5 -17.5q9 -11 4 -26q-33 -94 -47 -174q-2 -11 0 -19.5t10 -7.5q22 3 51 40q30 37 63 86q14 21 36 18zM102 356q-17 5 -26.5 19t-3.5 35
q7 25 16 43q8 14 23 19t30 0q14 -5 22 -18t6 -28q-4 -25 -15 -48q-7 -15 -21.5 -21t-30.5 -1z" />
    <glyph glyph-name="j" unicode="j" horiz-adv-x="179" 
d="M250 218q27 -37 -29 -74q-85 -56 -148 -96q-19 -13 -25 -36q-43 -167 -97 -281q-21 -46 -35 -73t-40 -63t-55 -59q-33 -27 -74.5 -35.5t-78.5 9.5t-51 63q-18 57 6 123.5t67 123.5q89 117 266 251q20 15 24 38q18 108 31 176q5 27 17.5 41t41.5 9q36 -5 31 -49
q-4 -37 -19 -125q79 49 89 56q56 34 79 1zM-75 -94q2 7 9 30q-3 3 -12 -4q-114 -97 -168 -174q-10 -15 -21.5 -35.5t-23.5 -49t-10.5 -52t20.5 -32.5q6 -3 11.5 -3t10.5 2t10.5 6t9.5 8t9.5 10t8.5 10t7 10t6 8q76 100 133 266zM71 353q-17 2 -29.5 14.5t-9.5 34.5
q2 26 8 44q5 16 19 23.5t30 5.5q15 -3 25 -14t11 -27q0 -25 -7 -50q-4 -15 -17 -23.5t-30 -7.5z" />
    <glyph glyph-name="k" unicode="k" horiz-adv-x="366" 
d="M269 389q40 -5 58 -39t13.5 -74t-24.5 -69q-44 -64 -146 -105l-1 -2q3 -41 29.5 -68t65.5 -31q19 -2 33 -12.5t15 -30.5q1 -31 -26 -41.5t-58 -2.5q-83 19 -129 106q-9 16 -16 32q-2 6 -6 3q-1 -1 -1 -2q-1 -5 -3 -23q-3 -36 -10 -47q-10 -16 -30.5 -20t-36.5 7t-16 32
q3 163 50 334t129 316q20 35 49.5 69t57.5 51q33 20 63.5 9.5t42.5 -46.5q55 -171 -234 -397q-13 -10 -21 -29q-2 -7 -5 -18q11 12 13 15q35 41 69.5 65t74.5 18zM284 671q-25 -22 -63 -90.5t-50 -111.5q27 14 70 91t43 111zM159 198q42 14 68.5 43.5t21.5 55.5
q-18 -11 -35.5 -29.5t-26 -30t-28.5 -39.5z" />
    <glyph glyph-name="l" unicode="l" horiz-adv-x="217" 
d="M276 227q40 -24 16 -65q-33 -56 -84 -112.5t-99 -86.5q-41 -26 -84.5 -4t-44.5 70q-6 302 176 623q19 35 48.5 69t57.5 51q33 20 63.5 9.5t42.5 -46.5q11 -40 8 -78t-21 -77t-42 -73t-56 -66.5t-62 -57.5t-61 -45q-15 -10 -20 -29q-32 -112 -39 -231q0 -13 5 -17t13 3
q53 44 113 129q1 2 6 9t7 9.5t7 8.5t8 7.5t8.5 4.5t10 2.5t11 -2t12.5 -5.5zM280 671q-25 -22 -62.5 -90.5t-50.5 -111.5q27 14 70 91t43 111z" />
    <glyph glyph-name="m" unicode="m" horiz-adv-x="573" 
d="M533 504q26 13 45.5 -3.5t12.5 -43.5q-1 -6 -13 -33q-118 -279 -73 -444q6 -24 -21 -29q-31 -7 -54 19q-7 7 -11 17q-27 67 -8 176q0 3 1.5 11t2.5 14.5l1 6.5q-16 -23 -44 -66.5t-33 -51.5q-67 -99 -123 -76q-6 3 -11.5 6.5t-9.5 9t-6.5 10t-4.5 12.5t-3 12.5t-1.5 14
t-0.5 13v13.5v12q0 7 1 31q-2 -3 -8.5 -12.5t-8.5 -13.5q-5 -8 -20.5 -33t-25 -38t-27 -29t-34.5 -22q-40 -13 -62.5 18.5t-17.5 69.5q15 113 68 253q9 23 35 29t45.5 -8.5t10.5 -41.5q-4 -15 -17.5 -55.5t-20.5 -62.5q-10 -33 -6 -32q1 0 2 2q4 5 16 24q93 143 96 147
q1 2 7 11l8 12t8 11.5t9 12t9 10t11 10t11.5 7t12.5 5.5q24 9 41 -6t15 -41q-1 -13 -13 -51q-8 -26 -22.5 -74t-21.5 -70q-4 -12 -7 -24q-1 -6 1 -6.5t6 3.5q6 8 16 23q185 283 194 296q23 35 43 45z" />
    <glyph glyph-name="n" unicode="n" horiz-adv-x="381" 
d="M386 501q20 -16 12 -47q-2 -4 -13 -31q-53 -124 -76 -231t0 -206q1 -6 -3 -11q-17 -19 -40 -15t-37 24q-19 29 -20 87q-1 47 9 93q0 1 5 28q-10 -12 -15 -19l-72 -111q-20 -29 -40 -45q-37 -31 -71.5 -19t-45.5 59q-9 42 3 106q10 57 45 154q9 25 35.5 32.5t47.5 -6.5
q12 -7 16.5 -20t0.5 -26q-39 -125 -40 -129q-5 -17 -7 -28q0 -2 1.5 -3t2.5 1q4 3 20 27q189 288 191 292q50 76 91 44z" />
    <glyph glyph-name="n" unicode="&#xf1;" horiz-adv-x="381" 
d="M386 501q20 -16 12 -47q-2 -4 -13 -31q-53 -124 -76 -231t0 -206q1 -6 -3 -11q-17 -19 -40 -15t-37 24q-19 29 -20 87q-1 47 9 93q0 1 5 28q-10 -12 -15 -19l-72 -111q-20 -29 -40 -45q-37 -31 -71.5 -19t-45.5 59q-9 42 3 106q10 57 45 154q9 25 35.5 32.5t47.5 -6.5
q12 -7 16.5 -20t0.5 -26q-39 -125 -40 -129q-5 -17 -7 -28q0 -2 1.5 -3t2.5 1q4 3 20 27q189 288 191 292q50 76 91 44z" />
    <glyph glyph-name="o" unicode="o" horiz-adv-x="323" 
d="M115 397q76 20 126.5 -25t51.5 -121q1 -126 -94 -234q-26 -29 -62.5 -44.5t-74 -8t-59.5 41.5q-32 49 -16 128q1 5 2 8q12 29 4 74q-10 58 28 112t94 69zM199 222q1 19 1.5 42t-12 39t-36.5 11q-1 -1 -24 -9l6 -6q46 -33 4 -72q-8 -7 -25 -25q-9 -11 -5 -24
q11 -34 -23 -55q-9 -6 -10 -13q-3 -28 -1 -43q1 -13 8.5 -16t18.5 4q41 27 66.5 71.5t31.5 95.5z" />
    <glyph glyph-name="o" unicode="&#xf8;" horiz-adv-x="323" 
d="M115 397q76 20 126.5 -25t51.5 -121q1 -126 -94 -234q-26 -29 -62.5 -44.5t-74 -8t-59.5 41.5q-32 49 -16 128q1 5 2 8q12 29 4 74q-10 58 28 112t94 69zM199 222q1 19 1.5 42t-12 39t-36.5 11q-1 -1 -24 -9l6 -6q46 -33 4 -72q-8 -7 -25 -25q-9 -11 -5 -24
q11 -34 -23 -55q-9 -6 -10 -13q-3 -28 -1 -43q1 -13 8.5 -16t18.5 4q41 27 66.5 71.5t31.5 95.5z" />
    <glyph glyph-name="o" unicode="&#xf6;" horiz-adv-x="323" 
d="M115 397q76 20 126.5 -25t51.5 -121q1 -126 -94 -234q-26 -29 -62.5 -44.5t-74 -8t-59.5 41.5q-32 49 -16 128q1 5 2 8q12 29 4 74q-10 58 28 112t94 69zM199 222q1 19 1.5 42t-12 39t-36.5 11q-1 -1 -24 -9l6 -6q46 -33 4 -72q-8 -7 -25 -25q-9 -11 -5 -24
q11 -34 -23 -55q-9 -6 -10 -13q-3 -28 -1 -43q1 -13 8.5 -16t18.5 4q41 27 66.5 71.5t31.5 95.5z" />
    <glyph glyph-name="o" unicode="&#xf5;" horiz-adv-x="323" 
d="M115 397q76 20 126.5 -25t51.5 -121q1 -126 -94 -234q-26 -29 -62.5 -44.5t-74 -8t-59.5 41.5q-32 49 -16 128q1 5 2 8q12 29 4 74q-10 58 28 112t94 69zM199 222q1 19 1.5 42t-12 39t-36.5 11q-1 -1 -24 -9l6 -6q46 -33 4 -72q-8 -7 -25 -25q-9 -11 -5 -24
q11 -34 -23 -55q-9 -6 -10 -13q-3 -28 -1 -43q1 -13 8.5 -16t18.5 4q41 27 66.5 71.5t31.5 95.5z" />
    <glyph glyph-name="o" unicode="&#xf4;" horiz-adv-x="323" 
d="M115 397q76 20 126.5 -25t51.5 -121q1 -126 -94 -234q-26 -29 -62.5 -44.5t-74 -8t-59.5 41.5q-32 49 -16 128q1 5 2 8q12 29 4 74q-10 58 28 112t94 69zM199 222q1 19 1.5 42t-12 39t-36.5 11q-1 -1 -24 -9l6 -6q46 -33 4 -72q-8 -7 -25 -25q-9 -11 -5 -24
q11 -34 -23 -55q-9 -6 -10 -13q-3 -28 -1 -43q1 -13 8.5 -16t18.5 4q41 27 66.5 71.5t31.5 95.5z" />
    <glyph glyph-name="o" unicode="&#xf3;" horiz-adv-x="323" 
d="M115 397q76 20 126.5 -25t51.5 -121q1 -126 -94 -234q-26 -29 -62.5 -44.5t-74 -8t-59.5 41.5q-32 49 -16 128q1 5 2 8q12 29 4 74q-10 58 28 112t94 69zM199 222q1 19 1.5 42t-12 39t-36.5 11q-1 -1 -24 -9l6 -6q46 -33 4 -72q-8 -7 -25 -25q-9 -11 -5 -24
q11 -34 -23 -55q-9 -6 -10 -13q-3 -28 -1 -43q1 -13 8.5 -16t18.5 4q41 27 66.5 71.5t31.5 95.5z" />
    <glyph glyph-name="o" unicode="&#xf2;" horiz-adv-x="323" 
d="M115 397q76 20 126.5 -25t51.5 -121q1 -126 -94 -234q-26 -29 -62.5 -44.5t-74 -8t-59.5 41.5q-32 49 -16 128q1 5 2 8q12 29 4 74q-10 58 28 112t94 69zM199 222q1 19 1.5 42t-12 39t-36.5 11q-1 -1 -24 -9l6 -6q46 -33 4 -72q-8 -7 -25 -25q-9 -11 -5 -24
q11 -34 -23 -55q-9 -6 -10 -13q-3 -28 -1 -43q1 -13 8.5 -16t18.5 4q41 27 66.5 71.5t31.5 95.5z" />
    <glyph glyph-name="p" unicode="p" horiz-adv-x="394" 
d="M420 268q17 -2 26 -16.5t7 -32.5q-6 -38 -44 -38q-53 0 -73 -9t-40 -47q-76 -148 -237 -124q-9 1 -10 -1q-69 -249 -109 -408q-6 -20 -13 -41q-7 -20 -21.5 -28.5t-31.5 -4.5q-18 4 -27 19.5t-4 35.5q9 41 38 158q18 72 159 632q10 41 41 45q23 4 38 -10t12 -37
q36 30 89 39q59 11 93 -16t35 -78q0 -17 -3 -33q-1 -3 1 -4.5t4 -1.5q41 3 70 1zM68 62q41 2 81 28.5t53 58.5q-46 -4 -90 -31.5t-44 -55.5zM242 272q4 29 -8 36q-14 9 -37 -5q-62 -37 -87 -73q-3 -4 -2 -9q1 0 94 26q1 0 6 1.5t6.5 2t5.5 1.5t6 2l5 2.5t4.5 3t3 3.5
t2.5 4.5t1 4.5z" />
    <glyph glyph-name="q" unicode="q" horiz-adv-x="386" 
d="M334 -17q4 -14 -3 -27t-22 -17q-27 -8 -57 -19q54 -89 67.5 -208t-23.5 -181q-29 -47 -84 -46t-85 47q-55 83 -2 325q-12 -7 -17 -10q-9 -6 -20 -6q-19 0 -29 16q-8 12 -5 26.5t15 22.5q37 24 78 45q21 78 54 189l-12 -13q-20 -24 -21 -25q-3 -3 -22 -25.5t-27 -31
t-25 -21.5t-34 -19q-31 -12 -57 4t-31 49q-10 65 24.5 140t87.5 137q25 29 56.5 45.5t67 13t62.5 -33.5q3 -4 5 -8.5t3.5 -7t2.5 -8.5t1.5 -7.5t1.5 -9.5t1 -9q0 -3 2 -7l8 -2q17 -5 25 -20.5t3 -32.5t-15 -49q-41 -132 -61 -205q24 8 43 14q14 4 27 -3.5t17 -21.5zM76 136
q20 22 43 47t50 55.5t42 47.5q-9 18 -19 18.5t-21 -10.5q-57 -45 -96 -153q0 -4 1 -5zM223 -425q19 26 14.5 103t-32.5 146q-40 -194 -7 -245q5 -7 12.5 -9t12.5 5z" />
    <glyph glyph-name="r" unicode="r" horiz-adv-x="365" 
d="M351 214q22 -14 9 -47q-10 -25 -37.5 -26.5t-46.5 13.5q-36 25 -50 75q-4 15 -8 33q-1 -3 -3.5 -8t-4 -9t-2.5 -6q-5 -12 -22 -55.5t-29 -71t-25.5 -53.5t-41 -43.5t-55.5 -12.5q-26 5 -40 29t-14 50.5t1 50.5q15 129 57 208q11 20 28 27.5t35 -0.5q17 -9 22 -26.5
t-3 -39.5q-6 -16 -37 -108q-2 -6 -3 -10t1.5 -4.5t3.5 2.5q11 30 21 51q45 93 68 137q16 30 42.5 49.5t59.5 17.5q25 -2 38.5 -20.5t8.5 -43.5q0 -2 -2.5 -14t-3.5 -15t-2.5 -13.5t-2 -15l-1.5 -13.5t-1 -15v-14t1 -15q2 -11 9 -20t12 -12.5t18 -11.5z" />
    <glyph glyph-name="s" unicode="s" horiz-adv-x="277" 
d="M353 210q9 -21 -2.5 -38.5t-32.5 -27.5q-98 -48 -115 -57v-23q1 -53 -40.5 -90t-96.5 -35q-37 1 -54 27.5t-1 59.5q8 16 22 34t23.5 27.5l28.5 28.5q-47 37 -49 39q-34 29 -36 67.5t20.5 74.5t51 65.5t59.5 49.5q14 11 34 10t31 -17q8 -11 8 -25.5t-8 -25.5
q-13 -16 -43.5 -44t-43.5 -44q-25 -31 9 -60q3 -3 44 -36q11 6 47 23.5t55 26.5q70 33 89 -10z" />
    <glyph glyph-name="t" unicode="t" horiz-adv-x="165" 
d="M521 632q18 -1 34 0.5t28 -10t12 -38.5q0 -12 -4 -20.5t-9 -13t-15 -6.5t-15.5 -2.5t-17.5 -1.5q-235 -10 -315 -14q-36 -2 -50 -43q-53 -158 -83 -278t-30 -219q0 -24 19 -46q13 -13 10.5 -29.5t-15 -26.5t-28.5 -13.5t-30 8.5q-49 40 -46 141q2 43 7.5 85.5t19.5 98
t20 80t28 96.5t26 83q7 26 -1.5 37.5t-35.5 9.5q-36 -3 -102 -10.5t-88 -10.5q-14 -1 -26 -0.5t-21 9t-12 25.5q-4 22 6.5 36.5t29.5 17.5q26 4 86 10q25 3 210 22q3 0 4 2q5 15 16 46.5t20 55t19 44.5q9 17 25 24t33 1q17 -7 24.5 -23.5t0.5 -35.5q-4 -14 -17 -47.5
t-19 -52.5q-1 -2 0.5 -3.5t3.5 -1.5q28 1 34 2q240 11 264 12z" />
    <glyph glyph-name="u" unicode="u" horiz-adv-x="388" 
d="M434 233q18 -5 28 -20.5t1 -31.5q-99 -158 -175 -185q-42 -15 -72.5 4.5t-33.5 60.5q-1 7 -2 27q0 1 -0.5 1h-0.5q-12 -24 -23 -42q-16 -27 -41 -40.5t-54 -8.5q-45 7 -65 46t-15 87q8 100 60 231q14 37 51 33q22 -3 32.5 -19t4.5 -36q-39 -123 -40 -125
q-29 -105 -17 -128q3 -5 8 -2q5 2 12 12t15.5 26t15.5 29.5t17 33.5t14 29q45 87 78 148q11 20 24 29t34 0q12 -5 19.5 -12t10 -13t1 -17.5t-3 -16t-5.5 -17.5q-45 -131 -53 -220q-1 -9 6 -14t15 2q47 41 105 126q11 16 22 21.5t27 1.5z" />
    <glyph glyph-name="u" unicode="&#xfc;" horiz-adv-x="388" 
d="M434 233q18 -5 28 -20.5t1 -31.5q-99 -158 -175 -185q-42 -15 -72.5 4.5t-33.5 60.5q-1 7 -2 27q0 1 -0.5 1h-0.5q-12 -24 -23 -42q-16 -27 -41 -40.5t-54 -8.5q-45 7 -65 46t-15 87q8 100 60 231q14 37 51 33q22 -3 32.5 -19t4.5 -36q-39 -123 -40 -125
q-29 -105 -17 -128q3 -5 8 -2q5 2 12 12t15.5 26t15.5 29.5t17 33.5t14 29q45 87 78 148q11 20 24 29t34 0q12 -5 19.5 -12t10 -13t1 -17.5t-3 -16t-5.5 -17.5q-45 -131 -53 -220q-1 -9 6 -14t15 2q47 41 105 126q11 16 22 21.5t27 1.5z" />
    <glyph glyph-name="u" unicode="&#xfb;" horiz-adv-x="388" 
d="M434 233q18 -5 28 -20.5t1 -31.5q-99 -158 -175 -185q-42 -15 -72.5 4.5t-33.5 60.5q-1 7 -2 27q0 1 -0.5 1h-0.5q-12 -24 -23 -42q-16 -27 -41 -40.5t-54 -8.5q-45 7 -65 46t-15 87q8 100 60 231q14 37 51 33q22 -3 32.5 -19t4.5 -36q-39 -123 -40 -125
q-29 -105 -17 -128q3 -5 8 -2q5 2 12 12t15.5 26t15.5 29.5t17 33.5t14 29q45 87 78 148q11 20 24 29t34 0q12 -5 19.5 -12t10 -13t1 -17.5t-3 -16t-5.5 -17.5q-45 -131 -53 -220q-1 -9 6 -14t15 2q47 41 105 126q11 16 22 21.5t27 1.5z" />
    <glyph glyph-name="u" unicode="&#xfa;" horiz-adv-x="388" 
d="M434 233q18 -5 28 -20.5t1 -31.5q-99 -158 -175 -185q-42 -15 -72.5 4.5t-33.5 60.5q-1 7 -2 27q0 1 -0.5 1h-0.5q-12 -24 -23 -42q-16 -27 -41 -40.5t-54 -8.5q-45 7 -65 46t-15 87q8 100 60 231q14 37 51 33q22 -3 32.5 -19t4.5 -36q-39 -123 -40 -125
q-29 -105 -17 -128q3 -5 8 -2q5 2 12 12t15.5 26t15.5 29.5t17 33.5t14 29q45 87 78 148q11 20 24 29t34 0q12 -5 19.5 -12t10 -13t1 -17.5t-3 -16t-5.5 -17.5q-45 -131 -53 -220q-1 -9 6 -14t15 2q47 41 105 126q11 16 22 21.5t27 1.5z" />
    <glyph glyph-name="u" unicode="&#xf9;" horiz-adv-x="388" 
d="M434 233q18 -5 28 -20.5t1 -31.5q-99 -158 -175 -185q-42 -15 -72.5 4.5t-33.5 60.5q-1 7 -2 27q0 1 -0.5 1h-0.5q-12 -24 -23 -42q-16 -27 -41 -40.5t-54 -8.5q-45 7 -65 46t-15 87q8 100 60 231q14 37 51 33q22 -3 32.5 -19t4.5 -36q-39 -123 -40 -125
q-29 -105 -17 -128q3 -5 8 -2q5 2 12 12t15.5 26t15.5 29.5t17 33.5t14 29q45 87 78 148q11 20 24 29t34 0q12 -5 19.5 -12t10 -13t1 -17.5t-3 -16t-5.5 -17.5q-45 -131 -53 -220q-1 -9 6 -14t15 2q47 41 105 126q11 16 22 21.5t27 1.5z" />
    <glyph glyph-name="v" unicode="v" horiz-adv-x="365" 
d="M378 244q13 0 17.5 -0.5t14.5 -3t14 -6.5t7.5 -13t2.5 -22q-2 -27 -24 -36.5t-51 -7.5q-48 4 -96 39q-58 -109 -100 -165q-12 -16 -27 -29.5t-33 -24t-38 -10t-37 14.5q-33 26 -37 90q-3 43 3 98.5t12 84t20 96.5q3 10 5 17q8 17 22.5 24.5t31.5 3.5q17 -5 26 -19.5
t6 -31.5q-32 -173 -37 -257q0 -11 3 -11q2 0 11 12q53 72 114 204q2 3 7 30q7 35 35 60.5t59 5.5q29 -20 15 -59q-8 -20 -12 -28q-10 -17 6 -32q25 -22 60 -24z" />
    <glyph glyph-name="w" unicode="w" horiz-adv-x="528" 
d="M552 240q20 -8 24.5 -27t-6 -36.5t-30.5 -20.5q-36 -5 -76 8q-1 1 -26 10q-6 -13 -9 -20q-4 -10 -13.5 -33.5t-15.5 -36.5t-16 -32t-21.5 -33.5t-25.5 -26.5q-34 -31 -71.5 -22.5t-54.5 51.5q-13 32 -21 72q-1 1 -1.5 0t-2 -3t-3 -3.5t-3.5 -4.5t-2 -4q-4 -5 -17 -25.5
t-19.5 -29.5t-19.5 -22.5t-26 -20.5q-28 -17 -56 -7.5t-39 39.5q-19 50 -4 153q11 81 47 182q10 26 27 40.5t43 3.5q34 -15 16 -70q-40 -114 -50 -221q-1 -2 1 -2.5t4 1.5q19 31 55.5 90t52.5 86q32 52 69 37q13 -5 20.5 -18.5t6.5 -29.5q-7 -113 -4 -170q1 -32 5 -30
q8 13 21 37q31 58 50 138q2 11 -2 33q-7 34 6 70t44 49q25 12 45 -1.5t19 -41.5q-1 -2 -9 -58q-2 -17 1 -23t18 -12q11 -4 34.5 -7t34.5 -8z" />
    <glyph glyph-name="x" unicode="x" horiz-adv-x="329" 
d="M159 81q-4 13 -7 24q-2 -3 -8.5 -10.5t-8.5 -10.5q-52 -65 -53 -66q-40 -45 -72 -17q-13 11 -13.5 25t4.5 23t16 22q57 73 90 113q15 18 7 39q-7 20 -33 102q-10 35 16 58q19 16 40.5 11t30.5 -28q4 -13 24 -74q5 6 12 15q7 8 23 28.5t25 30.5q41 49 74 20
q13 -12 12.5 -26.5t-6 -24.5t-16.5 -24q-61 -77 -81 -101q-13 -16 -7 -35q5 -14 41 -127q7 -13 2 -31t-25 -24q-50 -16 -67 31q-11 29 -20 57z" />
    </font>
</defs>
</svg>
