<?xml version="1.0" standalone="no"?>
<!DOCTYPE svg PUBLIC "-//W3C//DTD SVG 20010904//EN"
 "http://www.w3.org/TR/2001/REC-SVG-20010904/DTD/svg10.dtd">
<svg version="1.0" xmlns="http://www.w3.org/2000/svg"
 width="576.000000pt" height="576.000000pt" viewBox="0 0 576.000000 576.000000"
 preserveAspectRatio="xMidYMid meet">
<metadata>
Created by potrace 1.14, written by Peter Selinger 2001-2017
</metadata>
<g transform="translate(0.000000,576.000000) scale(0.100000,-0.100000)"
fill="#000000" stroke="none">
<path d="M779 5756 c-2 -2 -20 -7 -39 -9 -19 -3 -37 -6 -40 -7 -3 -1 -9 -3
-15 -4 -58 -8 -222 -86 -280 -132 -16 -14 -43 -34 -58 -47 -85 -68 -216 -275
-232 -367 -3 -18 -8 -37 -11 -42 -3 -4 -8 -18 -12 -30 -12 -39 -13 -4397 -1
-4453 36 -172 101 -301 211 -416 117 -123 256 -198 428 -233 66 -14 326 -15
2180 -13 1158 2 2114 6 2125 9 11 4 21 7 23 8 2 3 3 3 52 14 41 10 199 83 217
102 7 7 22 16 33 19 11 4 18 11 15 16 -4 5 -1 9 4 9 17 0 125 113 163 172 20
29 46 76 58 103 13 28 27 58 32 68 5 10 18 58 28 105 19 84 20 155 19 2252 0
1446 -3 2182 -10 2215 -35 172 -102 304 -210 416 -94 97 -209 171 -324 207
-130 41 -77 40 -2261 41 -1150 1 -2093 -1 -2095 -3z"/>
</g>
</svg>
